<svg width="150" height="50" viewBox="0 0 150 50" fill="none" xmlns="http://www.w3.org/2000/svg">
<circle cx="20" cy="5" r="5" fill="#CC5C52"/>
<mask id="path-2-inside-1_404_317" fill="white">
<path fill-rule="evenodd" clip-rule="evenodd" d="M37.5 15H0V40H21.6841C24.4927 45.9124 30.519 50 37.5 50H62.5C69.481 50 75.5073 45.9124 78.3159 40H150V15H62.5H37.5Z"/>
</mask>
<path fill-rule="evenodd" clip-rule="evenodd" d="M37.5 15H0V40H21.6841C24.4927 45.9124 30.519 50 37.5 50H62.5C69.481 50 75.5073 45.9124 78.3159 40H150V15H62.5H37.5Z" fill="white"/>
<path d="M0 15V14H-1V15H0ZM0 40H-1V41H0V40ZM21.6841 40L22.5873 39.5709L22.3161 39H21.6841V40ZM78.3159 40V39H77.6839L77.4127 39.5709L78.3159 40ZM150 40V41H151V40H150ZM150 15H151V14H150V15ZM0 16H37.5V14H0V16ZM1 40V15H-1V40H1ZM21.6841 39H0V41H21.6841V39ZM37.5 49C30.9194 49 25.2366 45.1478 22.5873 39.5709L20.7808 40.4291C23.7489 46.677 30.1186 51 37.5 51V49ZM62.5 49H37.5V51H62.5V49ZM77.4127 39.5709C74.7634 45.1478 69.0806 49 62.5 49V51C69.8814 51 76.2511 46.677 79.2192 40.4291L77.4127 39.5709ZM150 39H78.3159V41H150V39ZM149 15V40H151V15H149ZM62.5 16H150V14H62.5V16ZM37.5 16H62.5V14H37.5V16Z" fill="#2E3D4D" mask="url(#path-2-inside-1_404_317)"/>
<rect x="23.5" y="18.5" width="53" height="28" rx="14" fill="#CCEEFF" stroke="#2E3D4D"/>
<circle cx="50" cy="33" r="3" fill="black" fill-opacity="0.2"/>
<rect x="16" y="35" width="4" height="24" rx="2" transform="rotate(-90 16 35)" fill="#2E3D4D"/>
<circle cx="18" cy="33" r="4" transform="rotate(-90 18 33)" fill="#2E3D4D"/>
</svg>
