<svg width="150" height="205" viewBox="0 0 150 205" fill="none" xmlns="http://www.w3.org/2000/svg">
<rect x="5.5" y="5.5" width="139" height="199" rx="1.5" fill="#4D7399" stroke="#2E3D4D"/>
<path d="M41 9.5C48.4611 9.5 52.6938 9.74619 56.292 9.99414C59.8962 10.2425 62.8837 10.4944 67.8301 10.5C67.9673 10.5002 68.1087 10.4885 68.2451 10.4658L71.3203 9.95313C72.3355 9.78398 73.216 10.6645 73.0469 11.6797L72.5342 14.7549C72.5116 14.8905 72.4994 15.0298 72.5 15.1689C72.511 17.6487 72.7651 19.6676 73.0107 22.2607C73.2568 24.8583 73.5 28.0751 73.5 33C73.5 37.924 73.2566 40.8958 73.0107 43.3662C72.7645 45.8398 72.5111 47.8458 72.5 50.7979C72.4994 50.9632 72.5165 51.1304 72.5488 51.292L72.9209 53.1563C73.1308 54.2058 72.2058 55.1308 71.1562 54.9209L69.292 54.5488C69.1297 54.5164 68.9609 54.4998 68.7969 54.5C63.3672 54.5061 60.1295 54.7575 56.3975 55.0059C52.6722 55.2538 48.4399 55.5 41 55.5C33.564 55.5 29.0851 55.2537 25.2354 55.0059C21.3818 54.7578 18.1405 54.5067 13.2021 54.5C13.0379 54.4998 12.8701 54.5164 12.708 54.5488L10.7432 54.9414C9.7139 55.1472 8.79716 54.259 8.96973 53.2236L9.46582 50.2451C9.48841 50.1095 9.5006 49.97 9.5 49.8311C9.48891 47.3555 9.23476 45.4604 8.98926 42.9912C8.74343 40.5187 8.5 37.4247 8.5 32.5C8.5 27.5753 8.74343 24.4813 8.98926 22.0088C9.23476 19.5396 9.48891 17.6445 9.5 15.1689C9.5006 15.03 9.4884 14.8905 9.46582 14.7549L8.95312 11.6797C8.78398 10.6645 9.66451 9.78398 10.6797 9.95312L13.7549 10.4658C13.8912 10.4885 14.0315 10.5002 14.1689 10.5C18.6294 10.4938 21.6206 10.2422 25.3447 9.99414C29.0663 9.74629 33.5426 9.5 41 9.5Z" fill="#FFBB99" stroke="#2E3D4D"/>
<path d="M13.8367 9.97279C13.9454 9.9909 14.0581 10 14.1683 9.99988C18.0122 9.99454 20.7561 9.80651 23.8436 9.59494C27.8896 9.31768 32.5256 9 41 9C49.2815 9 53.5975 9.30338 57.4751 9.57594C60.5976 9.79542 63.4357 9.99492 67.8311 9.9999C67.9413 10 68.0546 9.9909 68.1633 9.97279L71.2381 9.46032C72.5917 9.23471 73.7653 10.4083 73.5397 11.7619L73.0272 14.8367C73.0091 14.9454 72.9999 15.0566 73.0004 15.1668C73.0093 17.1645 73.177 18.8536 73.3726 20.8234C73.5297 22.406 73.7049 24.1697 73.8301 26.4203C68.889 19.7523 56.0544 15 41 15C25.9205 15 13.0684 19.7681 8.14537 26.4535C8.27151 24.0434 8.45971 22.2422 8.62741 20.6371C8.82299 18.7652 8.99069 17.1601 8.99962 15.1671C9.00012 15.057 8.9909 14.9454 8.97278 14.8367L8.46031 11.7619C8.23471 10.4083 9.40826 9.23471 10.7619 9.46032L13.8367 9.97279Z" fill="black" fill-opacity="0.2"/>
<path d="M109 9.5C116.461 9.5 120.694 9.74619 124.292 9.99414C127.896 10.2425 130.884 10.4944 135.83 10.5C135.967 10.5002 136.109 10.4885 136.245 10.4658L139.32 9.95313C140.335 9.78398 141.216 10.6645 141.047 11.6797L140.534 14.7549C140.512 14.8905 140.499 15.0298 140.5 15.1689C140.511 17.6487 140.765 19.6676 141.011 22.2607C141.257 24.8583 141.5 28.0751 141.5 33C141.5 37.924 141.257 40.8958 141.011 43.3662C140.765 45.8398 140.511 47.8458 140.5 50.7979C140.499 50.9632 140.517 51.1304 140.549 51.292L140.921 53.1563C141.131 54.2058 140.206 55.1308 139.156 54.9209L137.292 54.5488C137.13 54.5164 136.961 54.4998 136.797 54.5C131.367 54.5061 128.129 54.7575 124.397 55.0059C120.672 55.2538 116.44 55.5 109 55.5C101.564 55.5 97.0851 55.2537 93.2354 55.0059C89.3818 54.7578 86.1405 54.5067 81.2021 54.5C81.0379 54.4998 80.8701 54.5164 80.708 54.5488L78.7432 54.9414C77.7139 55.1472 76.7972 54.259 76.9697 53.2236L77.4658 50.2451C77.4884 50.1095 77.5006 49.97 77.5 49.8311C77.4889 47.3555 77.2348 45.4604 76.9893 42.9912C76.7434 40.5187 76.5 37.4247 76.5 32.5C76.5 27.5753 76.7434 24.4813 76.9893 22.0088C77.2348 19.5396 77.4889 17.6445 77.5 15.1689C77.5006 15.03 77.4884 14.8905 77.4658 14.7549L76.9531 11.6797C76.784 10.6645 77.6645 9.78398 78.6797 9.95312L81.7549 10.4658C81.8912 10.4885 82.0315 10.5002 82.1689 10.5C86.6294 10.4938 89.6206 10.2422 93.3447 9.99414C97.0663 9.74629 101.543 9.5 109 9.5Z" fill="#FFBB99" stroke="#2E3D4D"/>
<path d="M81.8367 9.97279C81.9454 9.9909 82.0581 10 82.1683 9.99988C86.0122 9.99454 88.7561 9.80651 91.8436 9.59494C95.8896 9.31768 100.526 9 109 9C117.281 9 121.598 9.30338 125.475 9.57594C128.598 9.79542 131.436 9.99492 135.831 9.9999C135.941 10 136.055 9.9909 136.163 9.97279L139.238 9.46032C140.592 9.23471 141.765 10.4083 141.54 11.7619L141.027 14.8367C141.009 14.9454 141 15.0566 141 15.1668C141.009 17.1645 141.177 18.8536 141.373 20.8234C141.53 22.406 141.705 24.1697 141.83 26.4203C136.889 19.7523 124.054 15 109 15C93.9205 15 81.0684 19.7681 76.1454 26.4535C76.2715 24.0434 76.4597 22.2422 76.6274 20.6371C76.823 18.7652 76.9907 17.1601 76.9996 15.1671C77.0001 15.057 76.9909 14.9454 76.9728 14.8367L76.4603 11.7619C76.2347 10.4083 77.4083 9.23471 78.7619 9.46032L81.8367 9.97279Z" fill="black" fill-opacity="0.2"/>
<path d="M5 31L145 46V51H5V31Z" fill="black" fill-opacity="0.2"/>
<path d="M2.19824 30.7979L146.463 50.0332C148.201 50.2652 149.5 51.7479 149.5 53.502V203C149.5 203.828 148.828 204.5 148 204.5H2C1.17157 204.5 0.5 203.828 0.5 203V32.2842C0.500105 31.3771 1.29907 30.678 2.19824 30.7979Z" fill="#E5A0C3" stroke="#2E3D4D"/>
<path d="M150 184C150 195.598 140.598 205 129 205H148C149.105 205 150 204.105 150 203L150 184Z" fill="black" fill-opacity="0.2"/>
<path d="M21 205C9.40202 205 0 195.598 0 184V203C0 204.105 0.895432 205 2 205H21Z" fill="black" fill-opacity="0.2"/>
<path d="M0 31L146.503 49.557C148.501 49.8102 150 51.5105 150 53.5253V55L142.681 68.1751C141.108 71.0048 137.801 72.3875 134.683 71.5188L0 34V31Z" fill="black" fill-opacity="0.2"/>
<path d="M2.19824 30.7979L146.615 50.0527C148.266 50.2729 149.5 51.6818 149.5 53.3477C149.5 53.6599 149.397 53.9638 149.206 54.2109L140.483 65.5049C138.644 67.8861 135.56 68.938 132.649 68.1768L1.62012 33.9072C0.960286 33.7345 0.500107 33.1381 0.5 32.4561V32.2842C0.500109 31.3771 1.29908 30.678 2.19824 30.7979Z" fill="#E5A0C3" stroke="#2E3D4D"/>
<path d="M6 7C6 6.44772 6.44772 6 7 6H143C143.552 6 144 6.44772 144 7V9H6V7Z" fill="black" fill-opacity="0.2"/>
<rect x="0.5" y="0.5" width="149" height="5" fill="#B28F7D" stroke="#2E3D4D"/>
</svg>
