<svg width="190" height="205" viewBox="0 0 190 205" fill="none" xmlns="http://www.w3.org/2000/svg">
<rect x="5.5" y="5.5" width="179" height="199" rx="1.5" fill="#4D7399" stroke="#2E3D4D"/>
<path d="M53 9.5C60.4611 9.5 64.6938 9.74619 68.292 9.99414C71.8962 10.2425 74.8837 10.4944 79.8301 10.5C79.9673 10.5002 80.1087 10.4885 80.2451 10.4658L83.3203 9.95313C84.3355 9.78398 85.216 10.6645 85.0469 11.6797L84.5342 14.7549C84.5116 14.8905 84.4994 15.0298 84.5 15.1689C84.511 17.6487 84.7651 19.6676 85.0107 22.2607C85.2568 24.8583 85.5 28.0751 85.5 33C85.5 37.924 85.2566 40.8958 85.0107 43.3662C84.7645 45.8398 84.5111 47.8458 84.5 50.7979C84.4994 50.9632 84.5165 51.1304 84.5488 51.292L84.9209 53.1563C85.1308 54.2058 84.2058 55.1308 83.1562 54.9209L81.292 54.5488C81.1297 54.5164 80.9609 54.4998 80.7969 54.5C75.3672 54.5061 72.1295 54.7575 68.3975 55.0059C64.6722 55.2538 60.4399 55.5 53 55.5C45.564 55.5 41.0851 55.2537 37.2354 55.0059C33.3818 54.7578 30.1405 54.5067 25.2021 54.5C25.0379 54.4998 24.8701 54.5164 24.708 54.5488L22.7432 54.9414C21.7139 55.1472 20.7972 54.259 20.9697 53.2236L21.4658 50.2451C21.4884 50.1095 21.5006 49.97 21.5 49.8311C21.4889 47.3555 21.2348 45.4604 20.9893 42.9912C20.7434 40.5187 20.5 37.4247 20.5 32.5C20.5 27.5753 20.7434 24.4813 20.9893 22.0088C21.2348 19.5396 21.4889 17.6445 21.5 15.1689C21.5006 15.03 21.4884 14.8905 21.4658 14.7549L20.9531 11.6797C20.784 10.6645 21.6645 9.78398 22.6797 9.95312L25.7549 10.4658C25.8912 10.4885 26.0315 10.5002 26.1689 10.5C30.6294 10.4938 33.6206 10.2422 37.3447 9.99414C41.0663 9.74629 45.5426 9.5 53 9.5Z" fill="#FFBB99" stroke="#2E3D4D"/>
<path d="M25.8367 9.97279C25.9454 9.9909 26.0581 10 26.1683 9.99988C30.0122 9.99454 32.7561 9.80651 35.8436 9.59494C39.8896 9.31768 44.5256 9 53 9C61.2815 9 65.5975 9.30338 69.4751 9.57594C72.5976 9.79542 75.4357 9.99492 79.8311 9.9999C79.9413 10 80.0546 9.9909 80.1633 9.97279L83.2381 9.46032C84.5917 9.23471 85.7653 10.4083 85.5397 11.7619L85.0272 14.8367C85.0091 14.9454 84.9999 15.0566 85.0004 15.1668C85.0093 17.1645 85.177 18.8536 85.3726 20.8234C85.5297 22.406 85.7049 24.1697 85.8301 26.4203C80.889 19.7523 68.0544 15 53 15C37.9205 15 25.0684 19.7681 20.1454 26.4535C20.2715 24.0434 20.4597 22.2422 20.6274 20.6371C20.823 18.7652 20.9907 17.1601 20.9996 15.1671C21.0001 15.057 20.9909 14.9454 20.9728 14.8367L20.4603 11.7619C20.2347 10.4083 21.4083 9.23471 22.7619 9.46032L25.8367 9.97279Z" fill="black" fill-opacity="0.2"/>
<path d="M137 9.5C144.461 9.5 148.694 9.74619 152.292 9.99414C155.896 10.2425 158.884 10.4944 163.83 10.5C163.967 10.5002 164.109 10.4885 164.245 10.4658L167.32 9.95313C168.335 9.78398 169.216 10.6645 169.047 11.6797L168.534 14.7549C168.512 14.8905 168.499 15.0298 168.5 15.1689C168.511 17.6487 168.765 19.6676 169.011 22.2607C169.257 24.8583 169.5 28.0751 169.5 33C169.5 37.924 169.257 40.8958 169.011 43.3662C168.765 45.8398 168.511 47.8458 168.5 50.7979C168.499 50.9632 168.517 51.1304 168.549 51.292L168.921 53.1563C169.131 54.2058 168.206 55.1308 167.156 54.9209L165.292 54.5488C165.13 54.5164 164.961 54.4998 164.797 54.5C159.367 54.5061 156.129 54.7575 152.397 55.0059C148.672 55.2538 144.44 55.5 137 55.5C129.564 55.5 125.085 55.2537 121.235 55.0059C117.382 54.7578 114.14 54.5067 109.202 54.5C109.038 54.4998 108.87 54.5164 108.708 54.5488L106.743 54.9414C105.714 55.1472 104.797 54.259 104.97 53.2236L105.466 50.2451C105.488 50.1095 105.501 49.97 105.5 49.8311C105.489 47.3555 105.235 45.4604 104.989 42.9912C104.743 40.5187 104.5 37.4247 104.5 32.5C104.5 27.5753 104.743 24.4813 104.989 22.0088C105.235 19.5396 105.489 17.6445 105.5 15.1689C105.501 15.03 105.488 14.8905 105.466 14.7549L104.953 11.6797C104.784 10.6645 105.665 9.78398 106.68 9.95312L109.755 10.4658C109.891 10.4885 110.031 10.5002 110.169 10.5C114.629 10.4938 117.621 10.2422 121.345 9.99414C125.066 9.74629 129.543 9.5 137 9.5Z" fill="#FFBB99" stroke="#2E3D4D"/>
<path d="M109.837 9.97279C109.945 9.9909 110.058 10 110.168 9.99988C114.012 9.99454 116.756 9.80651 119.844 9.59494C123.89 9.31768 128.526 9 137 9C145.281 9 149.598 9.30338 153.475 9.57594C156.598 9.79542 159.436 9.99492 163.831 9.9999C163.941 10 164.055 9.9909 164.163 9.97279L167.238 9.46032C168.592 9.23471 169.765 10.4083 169.54 11.7619L169.027 14.8367C169.009 14.9454 169 15.0566 169 15.1668C169.009 17.1645 169.177 18.8536 169.373 20.8234C169.53 22.406 169.705 24.1697 169.83 26.4203C164.889 19.7523 152.054 15 137 15C121.921 15 109.068 19.7681 104.145 26.4535C104.272 24.0434 104.46 22.2422 104.627 20.6371C104.823 18.7652 104.991 17.1601 105 15.1671C105 15.057 104.991 14.9454 104.973 14.8367L104.46 11.7619C104.235 10.4083 105.408 9.23471 106.762 9.46032L109.837 9.97279Z" fill="black" fill-opacity="0.2"/>
<path d="M5 31L185 46V51H5V31Z" fill="black" fill-opacity="0.2"/>
<path d="M2.15723 30.7295L186.366 50.1201C188.147 50.3076 189.5 51.8096 189.5 53.6006V203C189.5 203.828 188.828 204.5 188 204.5H2C1.17157 204.5 0.5 203.828 0.5 203V32.2217C0.5 31.3311 1.27157 30.6363 2.15723 30.7295Z" fill="#E5A0C3" stroke="#2E3D4D"/>
<path d="M190 184C190 195.598 180.598 205 169 205H188C189.105 205 190 204.105 190 203L190 184Z" fill="black" fill-opacity="0.2"/>
<path d="M21 205C9.40202 205 0 195.598 0 184V203C0 204.105 0.895432 205 2 205H21Z" fill="black" fill-opacity="0.2"/>
<path d="M0 31L186.398 49.6398C188.443 49.8443 190 51.5649 190 53.62V55L182.523 68.458C181.025 71.1551 177.937 72.5531 174.922 71.8998L0 34V31Z" fill="black" fill-opacity="0.2"/>
<path d="M2.15723 30.7295L186.604 50.1455C188.25 50.3189 189.5 51.7069 189.5 53.3623C189.5 53.6647 189.4 53.9589 189.215 54.1982L180.29 65.7549C178.544 68.016 175.664 69.0889 172.864 68.5215L1.70215 33.835C1.00278 33.6932 0.5 33.0778 0.5 32.3643V32.2217C0.5 31.3311 1.27157 30.6363 2.15723 30.7295Z" fill="#E5A0C3" stroke="#2E3D4D"/>
<path d="M6 7C6 6.44772 6.44772 6 7 6H183C183.552 6 184 6.44772 184 7V9H6V7Z" fill="black" fill-opacity="0.2"/>
<rect x="0.5" y="0.5" width="189" height="5" fill="#B28F7D" stroke="#2E3D4D"/>
</svg>
