<svg width="120" height="205" viewBox="0 0 120 205" fill="none" xmlns="http://www.w3.org/2000/svg">
<rect x="5.5" y="5.5" width="109" height="199" rx="1.5" fill="#4D7399" stroke="#2E3D4D"/>
<path d="M60 9.5C67.4611 9.5 71.6938 9.74619 75.292 9.99414C78.8962 10.2425 81.8837 10.4944 86.8301 10.5C86.9673 10.5002 87.1087 10.4885 87.2451 10.4658L90.3203 9.95313C91.3355 9.78398 92.216 10.6645 92.0469 11.6797L91.5342 14.7549C91.5116 14.8905 91.4994 15.0298 91.5 15.1689C91.511 17.6487 91.7651 19.6676 92.0107 22.2607C92.2568 24.8583 92.5 28.0751 92.5 33C92.5 37.924 92.2566 40.8958 92.0107 43.3662C91.7645 45.8398 91.5111 47.8458 91.5 50.7979C91.4994 50.9632 91.5165 51.1304 91.5488 51.292L91.9209 53.1563C92.1308 54.2058 91.2058 55.1308 90.1562 54.9209L88.292 54.5488C88.1297 54.5164 87.9609 54.4998 87.7969 54.5C82.3672 54.5061 79.1295 54.7575 75.3975 55.0059C71.6722 55.2538 67.4399 55.5 60 55.5C52.564 55.5 48.0851 55.2537 44.2354 55.0059C40.3818 54.7578 37.1405 54.5067 32.2021 54.5C32.0379 54.4998 31.8701 54.5164 31.708 54.5488L29.7432 54.9414C28.7139 55.1472 27.7972 54.259 27.9697 53.2236L28.4658 50.2451C28.4884 50.1095 28.5006 49.97 28.5 49.8311C28.4889 47.3555 28.2348 45.4604 27.9893 42.9912C27.7434 40.5187 27.5 37.4247 27.5 32.5C27.5 27.5753 27.7434 24.4813 27.9893 22.0088C28.2348 19.5396 28.4889 17.6445 28.5 15.1689C28.5006 15.03 28.4884 14.8905 28.4658 14.7549L27.9531 11.6797C27.784 10.6645 28.6645 9.78398 29.6797 9.95312L32.7549 10.4658C32.8912 10.4885 33.0315 10.5002 33.1689 10.5C37.6294 10.4938 40.6206 10.2422 44.3447 9.99414C48.0663 9.74629 52.5426 9.5 60 9.5Z" fill="#FFBB99" stroke="#2E3D4D"/>
<path d="M32.8367 9.97279C32.9454 9.9909 33.0581 10 33.1683 9.99988C37.0122 9.99454 39.7561 9.80651 42.8436 9.59494C46.8896 9.31768 51.5256 9 60 9C68.2815 9 72.5975 9.30338 76.4751 9.57594C79.5976 9.79542 82.4357 9.99492 86.8311 9.9999C86.9413 10 87.0546 9.9909 87.1633 9.97279L90.2381 9.46032C91.5917 9.23471 92.7653 10.4083 92.5397 11.7619L92.0272 14.8367C92.0091 14.9454 91.9999 15.0566 92.0004 15.1668C92.0093 17.1645 92.177 18.8536 92.3726 20.8234C92.5297 22.406 92.7049 24.1697 92.8301 26.4203C87.889 19.7523 75.0544 15 60 15C44.9205 15 32.0684 19.7681 27.1454 26.4535C27.2715 24.0434 27.4597 22.2422 27.6274 20.6371C27.823 18.7652 27.9907 17.1601 27.9996 15.1671C28.0001 15.057 27.9909 14.9454 27.9728 14.8367L27.4603 11.7619C27.2347 10.4083 28.4083 9.23471 29.7619 9.46032L32.8367 9.97279Z" fill="black" fill-opacity="0.2"/>
<path d="M5 31L115 46V51H5V31Z" fill="black" fill-opacity="0.2"/>
<path d="M2.24707 30.8809L116.575 49.9365C118.263 50.2178 119.5 51.6777 119.5 53.3887V203C119.5 203.828 118.828 204.5 118 204.5H2C1.17157 204.5 0.5 203.828 0.5 203V32.3613C0.5 31.4344 1.33277 30.7285 2.24707 30.8809Z" fill="#E5A0C3" stroke="#2E3D4D"/>
<path d="M120 184C120 195.598 110.598 205 99 205H118C119.105 205 120 204.105 120 203L120 184Z" fill="black" fill-opacity="0.2"/>
<path d="M21 205C9.40202 205 0 195.598 0 184V203C0 204.105 0.895432 205 2 205H21Z" fill="black" fill-opacity="0.2"/>
<path d="M0 31L116.626 49.4657C118.569 49.7734 120 51.4488 120 53.4165V55L112.876 67.8228C111.216 70.8112 107.64 72.1633 104.418 71.0209L0 34V31Z" fill="black" fill-opacity="0.2"/>
<path d="M2.24707 30.8809L116.634 49.9463C118.288 50.2221 119.5 51.6525 119.5 53.3291C119.5 53.6531 119.392 53.9681 119.194 54.2246L110.724 65.1934C108.773 67.7197 105.436 68.7341 102.409 67.7217L1.52441 33.9824C0.912625 33.7778 0.5 33.2047 0.5 32.5596V32.3613C0.5 31.4344 1.33277 30.7285 2.24707 30.8809Z" fill="#E5A0C3" stroke="#2E3D4D"/>
<path d="M6 7C6 6.44772 6.44772 6 7 6H113C113.552 6 114 6.44772 114 7V9H6V7Z" fill="black" fill-opacity="0.2"/>
<rect x="0.5" y="0.5" width="119" height="5" fill="#B28F7D" stroke="#2E3D4D"/>
</svg>
