<svg width="100" height="30" viewBox="0 0 100 30" fill="none" xmlns="http://www.w3.org/2000/svg">
<rect x="0.5" y="0.5" width="99" height="29" fill="#B28F7D" stroke="#2E3D4D"/>
<path d="M92 2H97V21C97 21.5523 96.5523 22 96 22H93C92.4477 22 92 21.5523 92 21V2Z" fill="#FFBB99"/>
<path d="M92 2H97H92ZM97.5 21C97.5 21.8284 96.8284 22.5 96 22.5H93C92.1716 22.5 91.5 21.8284 91.5 21H92.5C92.5 21.2761 92.7239 21.5 93 21.5H96C96.2761 21.5 96.5 21.2761 96.5 21H97.5ZM93 22.5C92.1716 22.5 91.5 21.8284 91.5 21V2H92.5V21C92.5 21.2761 92.7239 21.5 93 21.5V22.5ZM97.5 2V21C97.5 21.8284 96.8284 22.5 96 22.5V21.5C96.2761 21.5 96.5 21.2761 96.5 21V2H97.5Z" fill="#2E3D4D"/>
<path d="M88 2H92V21C92 21.5523 91.5523 22 91 22H89C88.4477 22 88 21.5523 88 21V2Z" fill="#FAF7F0"/>
<path d="M88 2H92H88ZM92.5 21C92.5 21.8284 91.8284 22.5 91 22.5H89C88.1716 22.5 87.5 21.8284 87.5 21H88.5C88.5 21.2761 88.7239 21.5 89 21.5H91C91.2761 21.5 91.5 21.2761 91.5 21H92.5ZM89 22.5C88.1716 22.5 87.5 21.8284 87.5 21V2H88.5V21C88.5 21.2761 88.7239 21.5 89 21.5V22.5ZM92.5 2V21C92.5 21.8284 91.8284 22.5 91 22.5V21.5C91.2761 21.5 91.5 21.2761 91.5 21V2H92.5Z" fill="#2E3D4D"/>
<path d="M84 2H88V20C88 20.5523 87.5523 21 87 21H85C84.4477 21 84 20.5523 84 20V2Z" fill="#FFDD99"/>
<path d="M84 2H88H84ZM88.5 20C88.5 20.8284 87.8284 21.5 87 21.5H85C84.1716 21.5 83.5 20.8284 83.5 20H84.5C84.5 20.2761 84.7239 20.5 85 20.5H87C87.2761 20.5 87.5 20.2761 87.5 20H88.5ZM85 21.5C84.1716 21.5 83.5 20.8284 83.5 20V2H84.5V20C84.5 20.2761 84.7239 20.5 85 20.5V21.5ZM88.5 2V20C88.5 20.8284 87.8284 21.5 87 21.5V20.5C87.2761 20.5 87.5 20.2761 87.5 20V2H88.5Z" fill="#2E3D4D"/>
<path d="M80 2H84V20C84 20.5523 83.5523 21 83 21H81C80.4477 21 80 20.5523 80 20V2Z" fill="#E5A0C3"/>
<path d="M80 2H84H80ZM84.5 20C84.5 20.8284 83.8284 21.5 83 21.5H81C80.1716 21.5 79.5 20.8284 79.5 20H80.5C80.5 20.2761 80.7239 20.5 81 20.5H83C83.2761 20.5 83.5 20.2761 83.5 20H84.5ZM81 21.5C80.1716 21.5 79.5 20.8284 79.5 20V2H80.5V20C80.5 20.2761 80.7239 20.5 81 20.5V21.5ZM84.5 2V20C84.5 20.8284 83.8284 21.5 83 21.5V20.5C83.2761 20.5 83.5 20.2761 83.5 20V2H84.5Z" fill="#2E3D4D"/>
<path d="M77 2H80V20C80 20.5523 79.5523 21 79 21H78C77.4477 21 77 20.5523 77 20V2Z" fill="#4D7399"/>
<path d="M77 2H80H77ZM80.5 20C80.5 20.8284 79.8284 21.5 79 21.5H78C77.1716 21.5 76.5 20.8284 76.5 20H77.5C77.5 20.2761 77.7239 20.5 78 20.5H79C79.2761 20.5 79.5 20.2761 79.5 20H80.5ZM78 21.5C77.1716 21.5 76.5 20.8284 76.5 20V2H77.5V20C77.5 20.2761 77.7239 20.5 78 20.5V21.5ZM80.5 2V20C80.5 20.8284 79.8284 21.5 79 21.5V20.5C79.2761 20.5 79.5 20.2761 79.5 20V2H80.5Z" fill="#2E3D4D"/>
<rect x="77" y="2" width="20" height="3" fill="black" fill-opacity="0.2"/>
<path d="M20 2H23V20C23 20.5523 22.5523 21 22 21H21C20.4477 21 20 20.5523 20 20V2Z" fill="#4D7399"/>
<path d="M20 2H23H20ZM23.5 20C23.5 20.8284 22.8284 21.5 22 21.5H21C20.1716 21.5 19.5 20.8284 19.5 20H20.5C20.5 20.2761 20.7239 20.5 21 20.5H22C22.2761 20.5 22.5 20.2761 22.5 20H23.5ZM21 21.5C20.1716 21.5 19.5 20.8284 19.5 20V2H20.5V20C20.5 20.2761 20.7239 20.5 21 20.5V21.5ZM23.5 2V20C23.5 20.8284 22.8284 21.5 22 21.5V20.5C22.2761 20.5 22.5 20.2761 22.5 20V2H23.5Z" fill="#2E3D4D"/>
<path d="M16 2H20V20C20 20.5523 19.5523 21 19 21H17C16.4477 21 16 20.5523 16 20V2Z" fill="#FAF7F0"/>
<path d="M16 2H20H16ZM20.5 20C20.5 20.8284 19.8284 21.5 19 21.5H17C16.1716 21.5 15.5 20.8284 15.5 20H16.5C16.5 20.2761 16.7239 20.5 17 20.5H19C19.2761 20.5 19.5 20.2761 19.5 20H20.5ZM17 21.5C16.1716 21.5 15.5 20.8284 15.5 20V2H16.5V20C16.5 20.2761 16.7239 20.5 17 20.5V21.5ZM20.5 2V20C20.5 20.8284 19.8284 21.5 19 21.5V20.5C19.2761 20.5 19.5 20.2761 19.5 20V2H20.5Z" fill="#2E3D4D"/>
<path d="M12 2H16V20C16 20.5523 15.5523 21 15 21H13C12.4477 21 12 20.5523 12 20V2Z" fill="#E5A0C3"/>
<path d="M12 2H16H12ZM16.5 20C16.5 20.8284 15.8284 21.5 15 21.5H13C12.1716 21.5 11.5 20.8284 11.5 20H12.5C12.5 20.2761 12.7239 20.5 13 20.5H15C15.2761 20.5 15.5 20.2761 15.5 20H16.5ZM13 21.5C12.1716 21.5 11.5 20.8284 11.5 20V2H12.5V20C12.5 20.2761 12.7239 20.5 13 20.5V21.5ZM16.5 2V20C16.5 20.8284 15.8284 21.5 15 21.5V20.5C15.2761 20.5 15.5 20.2761 15.5 20V2H16.5Z" fill="#2E3D4D"/>
<path d="M8 2H12V20C12 20.5523 11.5523 21 11 21H9C8.44772 21 8 20.5523 8 20V2Z" fill="#3D9999"/>
<path d="M8 2H12H8ZM12.5 20C12.5 20.8284 11.8284 21.5 11 21.5H9C8.17157 21.5 7.5 20.8284 7.5 20H8.5C8.5 20.2761 8.72386 20.5 9 20.5H11C11.2761 20.5 11.5 20.2761 11.5 20H12.5ZM9 21.5C8.17157 21.5 7.5 20.8284 7.5 20V2H8.5V20C8.5 20.2761 8.72386 20.5 9 20.5V21.5ZM12.5 2V20C12.5 20.8284 11.8284 21.5 11 21.5V20.5C11.2761 20.5 11.5 20.2761 11.5 20V2H12.5Z" fill="#2E3D4D"/>
<path d="M3 2H8V21C8 21.5523 7.55228 22 7 22H4C3.44772 22 3 21.5523 3 21V2Z" fill="#CCEEFF"/>
<path d="M3 2H8H3ZM8.5 21C8.5 21.8284 7.82843 22.5 7 22.5H4C3.17157 22.5 2.5 21.8284 2.5 21H3.5C3.5 21.2761 3.72386 21.5 4 21.5H7C7.27614 21.5 7.5 21.2761 7.5 21H8.5ZM4 22.5C3.17157 22.5 2.5 21.8284 2.5 21V2H3.5V21C3.5 21.2761 3.72386 21.5 4 21.5V22.5ZM8.5 2V21C8.5 21.8284 7.82843 22.5 7 22.5V21.5C7.27614 21.5 7.5 21.2761 7.5 21V2H8.5Z" fill="#2E3D4D"/>
<rect x="3" y="2" width="20" height="3" fill="black" fill-opacity="0.2"/>
</svg>
