<svg width="100" height="80" viewBox="0 0 100 80" fill="none" xmlns="http://www.w3.org/2000/svg">
<mask id="path-1-inside-1_4402_3144" fill="white">
<path fill-rule="evenodd" clip-rule="evenodd" d="M70 0H0V30H70V80H100V30V0H70Z"/>
</mask>
<path fill-rule="evenodd" clip-rule="evenodd" d="M70 0H0V30H70V80H100V30V0H70Z" fill="#B28F7D"/>
<path d="M0 0V-1H-1V0H0ZM0 30H-1V31H0V30ZM70 30H71V29H70V30ZM70 80H69V81H70V80ZM100 80V81H101V80H100ZM100 0H101V-1H100V0ZM0 1H70V-1H0V1ZM1 30V0H-1V30H1ZM70 29H0V31H70V29ZM71 80V30H69V80H71ZM100 79H70V81H100V79ZM99 30V80H101V30H99ZM99 0V30H101V0H99ZM70 1H100V-1H70V1Z" fill="#2E3D4D" mask="url(#path-1-inside-1_4402_3144)"/>
<path d="M98 72L98 77L79 77C78.4477 77 78 76.5523 78 76L78 73C78 72.4477 78.4477 72 79 72L98 72Z" fill="#FFBB99"/>
<path d="M98 72L98 77L98 72ZM79 77.5C78.1716 77.5 77.5 76.8284 77.5 76L77.5 73C77.5 72.1716 78.1716 71.5 79 71.5L79 72.5C78.7239 72.5 78.5 72.7239 78.5 73L78.5 76C78.5 76.2761 78.7239 76.5 79 76.5L79 77.5ZM77.5 73C77.5 72.1716 78.1716 71.5 79 71.5L98 71.5L98 72.5L79 72.5C78.7239 72.5 78.5 72.7239 78.5 73L77.5 73ZM98 77.5L79 77.5C78.1716 77.5 77.5 76.8284 77.5 76L78.5 76C78.5 76.2761 78.7239 76.5 79 76.5L98 76.5L98 77.5Z" fill="#2E3D4D"/>
<path d="M98 68L98 72L79 72C78.4477 72 78 71.5523 78 71L78 69C78 68.4477 78.4477 68 79 68L98 68Z" fill="#FAF7F0"/>
<path d="M98 68L98 72L98 68ZM79 72.5C78.1716 72.5 77.5 71.8284 77.5 71L77.5 69C77.5 68.1716 78.1716 67.5 79 67.5L79 68.5C78.7239 68.5 78.5 68.7239 78.5 69L78.5 71C78.5 71.2761 78.7239 71.5 79 71.5L79 72.5ZM77.5 69C77.5 68.1716 78.1716 67.5 79 67.5L98 67.5L98 68.5L79 68.5C78.7239 68.5 78.5 68.7239 78.5 69L77.5 69ZM98 72.5L79 72.5C78.1716 72.5 77.5 71.8284 77.5 71L78.5 71C78.5 71.2761 78.7239 71.5 79 71.5L98 71.5L98 72.5Z" fill="#2E3D4D"/>
<path d="M98 64L98 68L80 68C79.4477 68 79 67.5523 79 67L79 65C79 64.4477 79.4477 64 80 64L98 64Z" fill="#FFDD99"/>
<path d="M98 64L98 68L98 64ZM80 68.5C79.1716 68.5 78.5 67.8284 78.5 67L78.5 65C78.5 64.1716 79.1716 63.5 80 63.5L80 64.5C79.7239 64.5 79.5 64.7239 79.5 65L79.5 67C79.5 67.2761 79.7239 67.5 80 67.5L80 68.5ZM78.5 65C78.5 64.1716 79.1716 63.5 80 63.5L98 63.5L98 64.5L80 64.5C79.7239 64.5 79.5 64.7239 79.5 65L78.5 65ZM98 68.5L80 68.5C79.1716 68.5 78.5 67.8284 78.5 67L79.5 67C79.5 67.2761 79.7239 67.5 80 67.5L98 67.5L98 68.5Z" fill="#2E3D4D"/>
<path d="M98 60L98 64L80 64C79.4477 64 79 63.5523 79 63L79 61C79 60.4477 79.4477 60 80 60L98 60Z" fill="#E5A0C3"/>
<path d="M98 60L98 64L98 60ZM80 64.5C79.1716 64.5 78.5 63.8284 78.5 63L78.5 61C78.5 60.1716 79.1716 59.5 80 59.5L80 60.5C79.7239 60.5 79.5 60.7239 79.5 61L79.5 63C79.5 63.2761 79.7239 63.5 80 63.5L80 64.5ZM78.5 61C78.5 60.1716 79.1716 59.5 80 59.5L98 59.5L98 60.5L80 60.5C79.7239 60.5 79.5 60.7239 79.5 61L78.5 61ZM98 64.5L80 64.5C79.1716 64.5 78.5 63.8284 78.5 63L79.5 63C79.5 63.2761 79.7239 63.5 80 63.5L98 63.5L98 64.5Z" fill="#2E3D4D"/>
<path d="M98 57L98 60L80 60C79.4477 60 79 59.5523 79 59L79 58C79 57.4477 79.4477 57 80 57L98 57Z" fill="#4D7399"/>
<path d="M98 57L98 60L98 57ZM80 60.5C79.1716 60.5 78.5 59.8284 78.5 59L78.5 58C78.5 57.1716 79.1716 56.5 80 56.5L80 57.5C79.7239 57.5 79.5 57.7239 79.5 58L79.5 59C79.5 59.2761 79.7239 59.5 80 59.5L80 60.5ZM78.5 58C78.5 57.1716 79.1716 56.5 80 56.5L98 56.5L98 57.5L80 57.5C79.7239 57.5 79.5 57.7239 79.5 58L78.5 58ZM98 60.5L80 60.5C79.1716 60.5 78.5 59.8284 78.5 59L79.5 59C79.5 59.2761 79.7239 59.5 80 59.5L98 59.5L98 60.5Z" fill="#2E3D4D"/>
<rect x="98" y="57" width="20" height="3" transform="rotate(90 98 57)" fill="black" fill-opacity="0.2"/>
<path d="M20 2H23V20C23 20.5523 22.5523 21 22 21H21C20.4477 21 20 20.5523 20 20V2Z" fill="#4D7399"/>
<path d="M20 2H23H20ZM23.5 20C23.5 20.8284 22.8284 21.5 22 21.5H21C20.1716 21.5 19.5 20.8284 19.5 20H20.5C20.5 20.2761 20.7239 20.5 21 20.5H22C22.2761 20.5 22.5 20.2761 22.5 20H23.5ZM21 21.5C20.1716 21.5 19.5 20.8284 19.5 20V2H20.5V20C20.5 20.2761 20.7239 20.5 21 20.5V21.5ZM23.5 2V20C23.5 20.8284 22.8284 21.5 22 21.5V20.5C22.2761 20.5 22.5 20.2761 22.5 20V2H23.5Z" fill="#2E3D4D"/>
<path d="M16 2H20V20C20 20.5523 19.5523 21 19 21H17C16.4477 21 16 20.5523 16 20V2Z" fill="#FAF7F0"/>
<path d="M16 2H20H16ZM20.5 20C20.5 20.8284 19.8284 21.5 19 21.5H17C16.1716 21.5 15.5 20.8284 15.5 20H16.5C16.5 20.2761 16.7239 20.5 17 20.5H19C19.2761 20.5 19.5 20.2761 19.5 20H20.5ZM17 21.5C16.1716 21.5 15.5 20.8284 15.5 20V2H16.5V20C16.5 20.2761 16.7239 20.5 17 20.5V21.5ZM20.5 2V20C20.5 20.8284 19.8284 21.5 19 21.5V20.5C19.2761 20.5 19.5 20.2761 19.5 20V2H20.5Z" fill="#2E3D4D"/>
<path d="M12 2H16V20C16 20.5523 15.5523 21 15 21H13C12.4477 21 12 20.5523 12 20V2Z" fill="#E5A0C3"/>
<path d="M12 2H16H12ZM16.5 20C16.5 20.8284 15.8284 21.5 15 21.5H13C12.1716 21.5 11.5 20.8284 11.5 20H12.5C12.5 20.2761 12.7239 20.5 13 20.5H15C15.2761 20.5 15.5 20.2761 15.5 20H16.5ZM13 21.5C12.1716 21.5 11.5 20.8284 11.5 20V2H12.5V20C12.5 20.2761 12.7239 20.5 13 20.5V21.5ZM16.5 2V20C16.5 20.8284 15.8284 21.5 15 21.5V20.5C15.2761 20.5 15.5 20.2761 15.5 20V2H16.5Z" fill="#2E3D4D"/>
<path d="M8 2H12V20C12 20.5523 11.5523 21 11 21H9C8.44772 21 8 20.5523 8 20V2Z" fill="#3D9999"/>
<path d="M8 2H12H8ZM12.5 20C12.5 20.8284 11.8284 21.5 11 21.5H9C8.17157 21.5 7.5 20.8284 7.5 20H8.5C8.5 20.2761 8.72386 20.5 9 20.5H11C11.2761 20.5 11.5 20.2761 11.5 20H12.5ZM9 21.5C8.17157 21.5 7.5 20.8284 7.5 20V2H8.5V20C8.5 20.2761 8.72386 20.5 9 20.5V21.5ZM12.5 2V20C12.5 20.8284 11.8284 21.5 11 21.5V20.5C11.2761 20.5 11.5 20.2761 11.5 20V2H12.5Z" fill="#2E3D4D"/>
<path d="M3 2H8V21C8 21.5523 7.55228 22 7 22H4C3.44772 22 3 21.5523 3 21V2Z" fill="#CCEEFF"/>
<path d="M3 2H8H3ZM8.5 21C8.5 21.8284 7.82843 22.5 7 22.5H4C3.17157 22.5 2.5 21.8284 2.5 21H3.5C3.5 21.2761 3.72386 21.5 4 21.5H7C7.27614 21.5 7.5 21.2761 7.5 21H8.5ZM4 22.5C3.17157 22.5 2.5 21.8284 2.5 21V2H3.5V21C3.5 21.2761 3.72386 21.5 4 21.5V22.5ZM8.5 2V21C8.5 21.8284 7.82843 22.5 7 22.5V21.5C7.27614 21.5 7.5 21.2761 7.5 21V2H8.5Z" fill="#2E3D4D"/>
<rect x="3" y="2" width="20" height="3" fill="black" fill-opacity="0.2"/>
</svg>
