<svg width="40" height="40" viewBox="0 0 40 40" fill="none" xmlns="http://www.w3.org/2000/svg">
<path d="M36.9346 1.58105C38.3404 1.54424 39.5 2.67372 39.5 4.08008V35.9199C39.5 37.3263 38.3404 38.4558 36.9346 38.4189L4.93457 37.5771C3.58002 37.5415 2.50012 36.4331 2.5 35.0781V4.92188L2.5127 4.6709C2.63637 3.43254 3.66469 2.45627 4.93457 2.42285L36.9346 1.58105Z" fill="#707EC2" stroke="#2E3D4D"/>
<path d="M7.33333 2H10C10 2 8.66667 9.2 8.66667 20C8.66667 30.8 10 38 10 38H7.33333C7.33333 38 6 30.8 6 20C6 9.2 7.33333 2 7.33333 2Z" fill="black" fill-opacity="0.2"/>
<path d="M4.44922 0.5C5.9467 0.500102 7.10452 1.9009 6.85938 3.4082C6.27237 7.01735 5.5 13.0784 5.5 20C5.5 26.9216 6.27237 32.9827 6.85938 36.5918C7.10452 38.0991 5.9467 39.4999 4.44922 39.5C3.15429 39.5 2.0849 38.7335 1.8291 37.5439C1.25586 34.877 0.5 29.5487 0.5 20C0.5 10.4513 1.25586 5.12301 1.8291 2.45605C2.0849 1.26647 3.15429 0.5 4.44922 0.5Z" fill="#707EC2" stroke="#2E3D4D"/>
</svg>
