<svg width="60" height="65" viewBox="0 0 60 65" fill="none" xmlns="http://www.w3.org/2000/svg">
<circle cx="56.5" cy="18.5" r="3" fill="#7D8B99" stroke="#2E3D4D"/>
<circle cx="56.5" cy="46.5" r="3" fill="#7D8B99" stroke="#2E3D4D"/>
<circle cx="28.5" cy="61.5" r="3" fill="#7D8B99" stroke="#2E3D4D"/>
<circle cx="28.5" cy="3.5" r="3" fill="#7D8B99" stroke="#2E3D4D"/>
<circle cx="3.5" cy="32.5" r="3" fill="#7D8B99" stroke="#2E3D4D"/>
<path d="M9 21.6842C9 13.5243 15.5228 6.86122 23.6809 6.68764L43.7057 6.26158C50.8543 6.10948 56.9838 11.0601 57.5067 18.1911C57.7903 22.0583 58 26.8335 58 32.5C58 38.1665 57.7903 42.9417 57.5067 46.8089C56.9838 53.9399 50.8543 58.8905 43.7057 58.7384L23.6809 58.3124C15.5228 58.1388 9 51.4757 9 43.3158V21.6842Z" fill="#2E3D4D" stroke="#2E3D4D"/>
<path d="M18.3975 55.5986L41.8984 56.3955C43.3061 56.4435 44.3965 57.644 44.3086 59.0498L44.1826 61.0586C44.0982 62.4089 42.9547 63.4472 41.6025 63.4014L18.1016 62.6045C16.6939 62.5565 15.6035 61.356 15.6914 59.9502L15.8174 57.9414C15.9018 56.5911 17.0453 55.5528 18.3975 55.5986Z" fill="#7D8B99" stroke="#2E3D4D"/>
<path d="M41.6025 1.59863C42.9547 1.5528 44.0982 2.5911 44.1826 3.94141L44.3086 5.9502C44.3965 7.35595 43.3061 8.55652 41.8984 8.60449L18.3975 9.40137C17.0453 9.4472 15.9018 8.4089 15.8174 7.05859L15.6914 5.0498C15.6035 3.64405 16.6939 2.44348 18.1016 2.39551L41.6025 1.59863Z" fill="#7D8B99" stroke="#2E3D4D"/>
<path d="M6.48926 9.86621C7.31935 7.96411 9.55191 7.33504 11.5088 8.31348L17.8086 11.4639C18.5977 11.8584 18.9256 12.8839 18.5264 13.7275C17.0421 16.8628 14.5 23.5394 14.5 32.5C14.5 41.4606 17.0421 48.1372 18.5264 51.2725C18.9256 52.1161 18.5977 53.1416 17.8086 53.5361L11.5088 56.6865C9.55191 57.665 7.31935 57.0359 6.48926 55.1338C4.76744 51.1884 2.5 43.8405 2.5 32.5C2.5 21.1595 4.76744 13.8116 6.48926 9.86621Z" fill="#7D8B99" stroke="#2E3D4D"/>
</svg>
