<svg width="37" height="37" viewBox="0 0 37 37" fill="none" xmlns="http://www.w3.org/2000/svg">
<path fill-rule="evenodd" clip-rule="evenodd" d="M27.5858 27.5858C28.3668 26.8047 29.6332 26.8047 30.4142 27.5858L35.4142 32.5858C36.1953 33.3668 36.1953 34.6332 35.4142 35.4142C34.6332 36.1953 33.3668 36.1953 32.5858 35.4142L27.5858 30.4142C26.8047 29.6332 26.8047 28.3668 27.5858 27.5858Z" fill="#2E3D4D" stroke="#2E3D4D" stroke-linecap="round"/>
<path fill-rule="evenodd" clip-rule="evenodd" d="M27.5858 9.41421C26.8047 8.63317 26.8047 7.36684 27.5858 6.58579L32.5858 1.58579C33.3668 0.804738 34.6332 0.804738 35.4142 1.58579C36.1953 2.36683 36.1953 3.63317 35.4142 4.41421L30.4142 9.41421C29.6332 10.1953 28.3668 10.1953 27.5858 9.41421Z" fill="#2E3D4D" stroke="#2E3D4D" stroke-linecap="round"/>
<path fill-rule="evenodd" clip-rule="evenodd" d="M9.41421 27.5858C10.1953 28.3668 10.1953 29.6332 9.41421 30.4142L4.41421 35.4142C3.63317 36.1953 2.36683 36.1953 1.58579 35.4142C0.804737 34.6332 0.804738 33.3668 1.58579 32.5858L6.58579 27.5858C7.36684 26.8047 8.63317 26.8047 9.41421 27.5858Z" fill="#2E3D4D" stroke="#2E3D4D" stroke-linecap="round"/>
<path fill-rule="evenodd" clip-rule="evenodd" d="M9.41421 9.41421C8.63316 10.1953 7.36683 10.1953 6.58579 9.41421L1.58579 4.41421C0.804738 3.63316 0.804738 2.36683 1.58579 1.58579C2.36684 0.804736 3.63317 0.804737 4.41421 1.58579L9.41421 6.58579C10.1953 7.36683 10.1953 8.63317 9.41421 9.41421Z" fill="#2E3D4D" stroke="#2E3D4D" stroke-linecap="round"/>
<circle cx="18.5" cy="18.5" r="17" fill="#FFBB99" stroke="#2E3D4D"/>
</svg>
