<svg width="180" height="110" viewBox="0 0 180 110" fill="none" xmlns="http://www.w3.org/2000/svg">
<rect x="0.5" y="0.5" width="179" height="109" rx="54.5" fill="#D9BEA3" stroke="#2E3D4D"/>
<circle cx="162.5" cy="54.5" r="12" fill="white" stroke="#2E3D4D"/>
<path d="M168.864 60.864C167.176 62.5518 164.887 63.5 162.5 63.5C160.113 63.5 157.824 62.5518 156.136 60.864M156.136 48.136C157.824 46.4482 160.113 45.5 162.5 45.5C164.887 45.5 167.176 46.4482 168.864 48.136" stroke="black" stroke-opacity="0.2"/>
<circle cx="127.5" cy="92.5" r="12" fill="white" stroke="#2E3D4D"/>
<path d="M133.864 98.864C132.176 100.552 129.887 101.5 127.5 101.5C125.113 101.5 122.824 100.552 121.136 98.864M121.136 86.136C122.824 84.4482 125.113 83.5 127.5 83.5C129.887 83.5 132.176 84.4482 133.864 86.136" stroke="black" stroke-opacity="0.2"/>
<circle cx="52.5" cy="92.5" r="12" fill="white" stroke="#2E3D4D"/>
<path d="M58.864 98.864C57.1761 100.552 54.8869 101.5 52.5 101.5C50.113 101.5 47.8239 100.552 46.136 98.864M46.136 86.136C47.8239 84.4482 50.113 83.5 52.5 83.5C54.8869 83.5 57.1761 84.4482 58.864 86.136" stroke="black" stroke-opacity="0.2"/>
<circle cx="127.5" cy="17.5" r="12" fill="white" stroke="#2E3D4D"/>
<path d="M133.864 23.864C132.176 25.5518 129.887 26.5 127.5 26.5C125.113 26.5 122.824 25.5518 121.136 23.864M121.136 11.136C122.824 9.44821 125.113 8.5 127.5 8.5C129.887 8.5 132.176 9.44821 133.864 11.136" stroke="black" stroke-opacity="0.2"/>
<circle cx="52.5" cy="17.5" r="12" fill="white" stroke="#2E3D4D"/>
<path d="M58.864 23.864C57.1761 25.5518 54.8869 26.5 52.5 26.5C50.113 26.5 47.8239 25.5518 46.136 23.864M46.136 11.136C47.8239 9.44821 50.113 8.5 52.5 8.5C54.8869 8.5 57.1761 9.44821 58.864 11.136" stroke="black" stroke-opacity="0.2"/>
<circle cx="17.5" cy="54.5" r="12" fill="white" stroke="#2E3D4D"/>
<path d="M23.864 60.864C22.1761 62.5518 19.8869 63.5 17.5 63.5C15.1131 63.5 12.8239 62.5518 11.136 60.864M11.136 48.136C12.8239 46.4482 15.1131 45.5 17.5 45.5C19.887 45.5 22.1761 46.4482 23.864 48.136" stroke="black" stroke-opacity="0.2"/>
<rect x="70.5781" y="55.795" width="36" height="8" rx="1" transform="rotate(-15 70.5781 55.795)" stroke="#2E3D4D" stroke-width="2"/>
<circle cx="89" cy="54.9999" r="14.5" transform="rotate(-15 89 54.9999)" fill="white" stroke="#2E3D4D"/>
<circle cx="89" cy="54.9999" r="2" transform="rotate(-15 89 54.9999)" fill="black" fill-opacity="0.2"/>
</svg>
