<svg width="100" height="100" viewBox="0 0 100 100" fill="none" xmlns="http://www.w3.org/2000/svg">
<rect x="0.5" y="0.5" width="99" height="99" rx="9.5" fill="#D9BEA3" stroke="#2E3D4D"/>
<circle cx="82.5" cy="49.5" r="12" fill="white" stroke="#2E3D4D"/>
<path d="M88.864 55.864C87.1761 57.5518 84.8869 58.5 82.5 58.5C80.113 58.5 77.8239 57.5518 76.136 55.864M76.136 43.136C77.8239 41.4482 80.113 40.5 82.5 40.5C84.8869 40.5 87.1761 41.4482 88.864 43.136" stroke="black" stroke-opacity="0.2"/>
<circle cx="49.5" cy="82.5" r="12" fill="white" stroke="#2E3D4D"/>
<path d="M55.864 88.864C54.1761 90.5518 51.8869 91.5 49.5 91.5C47.113 91.5 44.8239 90.5518 43.136 88.864M43.136 76.136C44.8239 74.4482 47.113 73.5 49.5 73.5C51.8869 73.5 54.1761 74.4482 55.864 76.136" stroke="black" stroke-opacity="0.2"/>
<circle cx="49.5" cy="17.5" r="12" fill="white" stroke="#2E3D4D"/>
<path d="M55.864 23.864C54.1761 25.5518 51.8869 26.5 49.5 26.5C47.113 26.5 44.8239 25.5518 43.136 23.864M43.136 11.136C44.8239 9.44821 47.113 8.5 49.5 8.5C51.8869 8.5 54.1761 9.44821 55.864 11.136" stroke="black" stroke-opacity="0.2"/>
<circle cx="17.5" cy="49.5" r="12" fill="white" stroke="#2E3D4D"/>
<path d="M23.864 55.864C22.1761 57.5518 19.8869 58.5 17.5 58.5C15.1131 58.5 12.8239 57.5518 11.136 55.864M11.136 43.136C12.8239 41.4482 15.1131 40.5 17.5 40.5C19.887 40.5 22.1761 41.4482 23.864 43.136" stroke="black" stroke-opacity="0.2"/>
</svg>
