<svg width="165" height="100" viewBox="0 0 165 100" fill="none" xmlns="http://www.w3.org/2000/svg">
<rect x="0.5" y="0.5" width="164" height="99" rx="9.5" fill="#D9BEA3" stroke="#2E3D4D"/>
<circle cx="147.5" cy="49.5" r="12" fill="white" stroke="#2E3D4D"/>
<path d="M153.864 55.864C152.176 57.5518 149.887 58.5 147.5 58.5C145.113 58.5 142.824 57.5518 141.136 55.864M141.136 43.136C142.824 41.4482 145.113 40.5 147.5 40.5C149.887 40.5 152.176 41.4482 153.864 43.136" stroke="black" stroke-opacity="0.2"/>
<circle cx="112.5" cy="82.5" r="12" fill="white" stroke="#2E3D4D"/>
<path d="M118.864 88.864C117.176 90.5518 114.887 91.5 112.5 91.5C110.113 91.5 107.824 90.5518 106.136 88.864M106.136 76.136C107.824 74.4482 110.113 73.5 112.5 73.5C114.887 73.5 117.176 74.4482 118.864 76.136" stroke="black" stroke-opacity="0.2"/>
<circle cx="52.5" cy="82.5" r="12" fill="white" stroke="#2E3D4D"/>
<path d="M58.864 88.864C57.1761 90.5518 54.887 91.5 52.5 91.5C50.1131 91.5 47.8239 90.5518 46.136 88.864M46.136 76.136C47.8239 74.4482 50.1131 73.5 52.5 73.5C54.887 73.5 57.1761 74.4482 58.864 76.136" stroke="black" stroke-opacity="0.2"/>
<circle cx="112.5" cy="17.5" r="12" fill="white" stroke="#2E3D4D"/>
<path d="M118.864 23.864C117.176 25.5518 114.887 26.5 112.5 26.5C110.113 26.5 107.824 25.5518 106.136 23.864M106.136 11.136C107.824 9.44821 110.113 8.5 112.5 8.5C114.887 8.5 117.176 9.44821 118.864 11.136" stroke="black" stroke-opacity="0.2"/>
<circle cx="52.5" cy="17.5" r="12" fill="white" stroke="#2E3D4D"/>
<path d="M58.864 23.864C57.1761 25.5518 54.887 26.5 52.5 26.5C50.1131 26.5 47.8239 25.5518 46.136 23.864M46.136 11.136C47.8239 9.44821 50.1131 8.5 52.5 8.5C54.887 8.5 57.1761 9.44821 58.864 11.136" stroke="black" stroke-opacity="0.2"/>
<circle cx="17.5" cy="49.5" r="12" fill="white" stroke="#2E3D4D"/>
<path d="M23.864 55.864C22.1761 57.5518 19.887 58.5 17.5 58.5C15.1131 58.5 12.8239 57.5518 11.136 55.864M11.136 43.136C12.8239 41.4482 15.1131 40.5 17.5 40.5C19.887 40.5 22.1761 41.4482 23.864 43.136" stroke="black" stroke-opacity="0.2"/>
<rect x="63.5781" y="50.795" width="36" height="8" rx="1" transform="rotate(-15 63.5781 50.795)" stroke="#2E3D4D" stroke-width="2"/>
<circle cx="82" cy="49.9999" r="14.5" transform="rotate(-15 82 49.9999)" fill="white" stroke="#2E3D4D"/>
<circle cx="82" cy="49.9999" r="2" transform="rotate(-15 82 49.9999)" fill="black" fill-opacity="0.2"/>
</svg>
