<svg width="60" height="63" viewBox="0 0 60 63" fill="none" xmlns="http://www.w3.org/2000/svg">
<rect x="0.5" y="0.5" width="59" height="59" fill="#FFBB99" stroke="#2E3D4D"/>
<path d="M25 1H29L19 59H15L25 1Z" fill="black" fill-opacity="0.1"/>
<path d="M37 1H48L38 59H27L37 1Z" fill="black" fill-opacity="0.1"/>
<path d="M55 1H53L43 59H45L55 1Z" fill="black" fill-opacity="0.1"/>
<rect x="5" y="60" width="5" height="3" fill="#2E3D4D"/>
<path fill-rule="evenodd" clip-rule="evenodd" d="M30.4999 24.0836L31.9919 23.2407L31.008 21.4994L29.4999 22.3515L27.9919 21.4994L27.008 23.2407L28.4999 24.0836V25.9227L26.9019 26.8454L25.3092 25.9258L25.3252 24.2123L23.3252 24.1937L23.3091 25.9258L21.8172 26.8058L22.8332 28.5285L24.3092 27.6579L25.9019 28.5774L25.9019 30.4227L24.3092 31.3422L22.8332 30.4716L21.8171 32.1943L23.3091 33.0743L23.3252 34.8064L25.3251 34.7878L25.3092 33.0743L26.9019 32.1547L28.4999 33.0774V34.9165L27.008 35.7594L27.9919 37.5007L29.4999 36.6486L31.008 37.5007L31.9919 35.7594L30.4999 34.9165V33.0774L32.098 32.1548L33.6907 33.0743L33.6748 34.7878L35.6747 34.8065L35.6908 33.0744L37.1828 32.1944L36.1667 30.4717L34.6907 31.3423L33.098 30.4227L33.098 28.5774L34.6907 27.6578L36.1667 28.5284L37.1827 26.8057L35.6908 25.9257L35.6747 24.1937L33.6747 24.2123L33.6907 25.9258L32.098 26.8453L30.4999 25.9227V24.0836ZM29.4999 31C30.3284 31 30.9999 30.3284 30.9999 29.5C30.9999 28.6716 30.3284 28 29.4999 28C28.6715 28 27.9999 28.6716 27.9999 29.5C27.9999 30.3284 28.6715 31 29.4999 31Z" fill="#2E3D4D"/>
</svg>
