<svg width="85" height="63" viewBox="0 0 85 63" fill="none" xmlns="http://www.w3.org/2000/svg">
<rect x="0.5" y="0.5" width="84" height="59" fill="#FFBB99" stroke="#2E3D4D"/>
<path d="M50 1H54L39 59H35L50 1Z" fill="black" fill-opacity="0.1"/>
<path d="M62 1H73L58 59H47L62 1Z" fill="black" fill-opacity="0.1"/>
<path d="M80 1H78L63 59H65L80 1Z" fill="black" fill-opacity="0.1"/>
<path d="M25 60H20V63H25V60Z" fill="#2E3D4D"/>
<path d="M40 60H35V63H40V60Z" fill="#2E3D4D"/>
<path fill-rule="evenodd" clip-rule="evenodd" d="M43.4999 24.0836L44.9919 23.2407L44.008 21.4994L42.4999 22.3515L40.9919 21.4994L40.008 23.2407L41.4999 24.0836V25.9227L39.9019 26.8454L38.3092 25.9258L38.3252 24.2123L36.3252 24.1937L36.3091 25.9258L34.8172 26.8058L35.8332 28.5285L37.3092 27.6579L38.9019 28.5774L38.9019 30.4227L37.3092 31.3422L35.8332 30.4716L34.8171 32.1943L36.3091 33.0743L36.3252 34.8064L38.3251 34.7878L38.3092 33.0743L39.9019 32.1547L41.4999 33.0774V34.9165L40.008 35.7594L40.9919 37.5007L42.4999 36.6486L44.008 37.5007L44.9919 35.7594L43.4999 34.9165V33.0774L45.098 32.1548L46.6907 33.0743L46.6748 34.7878L48.6747 34.8065L48.6908 33.0744L50.1828 32.1944L49.1667 30.4717L47.6907 31.3423L46.098 30.4227L46.098 28.5774L47.6907 27.6578L49.1667 28.5284L50.1827 26.8057L48.6908 25.9257L48.6747 24.1937L46.6747 24.2123L46.6907 25.9258L45.098 26.8453L43.4999 25.9227V24.0836ZM42.4999 31C43.3284 31 43.9999 30.3284 43.9999 29.5C43.9999 28.6716 43.3284 28 42.4999 28C41.6715 28 40.9999 28.6716 40.9999 29.5C40.9999 30.3284 41.6715 31 42.4999 31Z" fill="#2E3D4D"/>
</svg>
