<svg width="50" height="60" viewBox="0 0 50 60" fill="none" xmlns="http://www.w3.org/2000/svg">
<rect x="0.5" y="0.5" width="49" height="59" fill="#FFBB99" stroke="#2E3D4D"/>
<rect x="5" y="20" width="40" height="35" rx="5" stroke="#2E3D4D"/>
<rect x="5" y="20" width="40" height="35" rx="5" fill="black" fill-opacity="0.2"/>
<circle cx="24.5" cy="37.5" r="2.5" fill="black" fill-opacity="0.2"/>
<mask id="path-5-inside-1_422_4096" fill="white">
<path fill-rule="evenodd" clip-rule="evenodd" d="M26.5 14.5322C27.9817 13.7959 29 12.2669 29 10.5C29 8.01472 26.9853 6 24.5 6C22.0147 6 20 8.01472 20 10.5C20 12.2669 21.0183 13.7959 22.5 14.5322V29C22.5 30.1046 23.3954 31 24.5 31C25.6046 31 26.5 30.1046 26.5 29V14.5322Z"/>
</mask>
<path fill-rule="evenodd" clip-rule="evenodd" d="M26.5 14.5322C27.9817 13.7959 29 12.2669 29 10.5C29 8.01472 26.9853 6 24.5 6C22.0147 6 20 8.01472 20 10.5C20 12.2669 21.0183 13.7959 22.5 14.5322V29C22.5 30.1046 23.3954 31 24.5 31C25.6046 31 26.5 30.1046 26.5 29V14.5322Z" fill="#2E3D4D"/>
<path d="M26.5 14.5322L26.055 13.6367L25.5 13.9125V14.5322H26.5ZM22.5 14.5322H23.5V13.9125L22.945 13.6367L22.5 14.5322ZM28 10.5C28 11.8728 27.2098 13.0628 26.055 13.6367L26.945 15.4278C28.7536 14.529 30 12.661 30 10.5H28ZM24.5 7C26.433 7 28 8.567 28 10.5H30C30 7.46243 27.5376 5 24.5 5V7ZM21 10.5C21 8.567 22.567 7 24.5 7V5C21.4624 5 19 7.46243 19 10.5H21ZM22.945 13.6367C21.7902 13.0628 21 11.8728 21 10.5H19C19 12.661 20.2464 14.529 22.055 15.4278L22.945 13.6367ZM23.5 29V14.5322H21.5V29H23.5ZM24.5 30C23.9477 30 23.5 29.5523 23.5 29H21.5C21.5 30.6569 22.8431 32 24.5 32V30ZM25.5 29C25.5 29.5523 25.0523 30 24.5 30V32C26.1569 32 27.5 30.6569 27.5 29H25.5ZM25.5 14.5322V29H27.5V14.5322H25.5Z" fill="#2E3D4D" mask="url(#path-5-inside-1_422_4096)"/>
</svg>
