<svg width="95" height="60" viewBox="0 0 95 60" fill="none" xmlns="http://www.w3.org/2000/svg">
<rect x="0.5" y="0.5" width="94" height="59" fill="#FFBB99" stroke="#2E3D4D"/>
<rect x="5" y="20" width="40" height="35" rx="5" stroke="#2E3D4D"/>
<rect x="5" y="20" width="40" height="35" rx="5" fill="black" fill-opacity="0.2"/>
<circle cx="24.5" cy="37.5" r="2.5" fill="black" fill-opacity="0.2"/>
<rect x="50" y="20" width="40" height="35" rx="5" stroke="#2E3D4D"/>
<rect x="50" y="20" width="40" height="35" rx="5" fill="black" fill-opacity="0.2"/>
<circle cx="69.5" cy="37.5" r="2.5" fill="black" fill-opacity="0.2"/>
<mask id="path-8-inside-1_422_4088" fill="white">
<path fill-rule="evenodd" clip-rule="evenodd" d="M49.5 14.5322C50.9817 13.7959 52 12.2669 52 10.5C52 8.01472 49.9853 6 47.5 6C45.0147 6 43 8.01472 43 10.5C43 12.2669 44.0183 13.7959 45.5 14.5322V29C45.5 30.1046 46.3954 31 47.5 31C48.6046 31 49.5 30.1046 49.5 29V14.5322Z"/>
</mask>
<path fill-rule="evenodd" clip-rule="evenodd" d="M49.5 14.5322C50.9817 13.7959 52 12.2669 52 10.5C52 8.01472 49.9853 6 47.5 6C45.0147 6 43 8.01472 43 10.5C43 12.2669 44.0183 13.7959 45.5 14.5322V29C45.5 30.1046 46.3954 31 47.5 31C48.6046 31 49.5 30.1046 49.5 29V14.5322Z" fill="#2E3D4D"/>
<path d="M49.5 14.5322L49.055 13.6367L48.5 13.9125V14.5322H49.5ZM45.5 14.5322H46.5V13.9125L45.945 13.6367L45.5 14.5322ZM51 10.5C51 11.8728 50.2098 13.0628 49.055 13.6367L49.945 15.4278C51.7536 14.529 53 12.661 53 10.5H51ZM47.5 7C49.433 7 51 8.567 51 10.5H53C53 7.46243 50.5376 5 47.5 5V7ZM44 10.5C44 8.567 45.567 7 47.5 7V5C44.4624 5 42 7.46243 42 10.5H44ZM45.945 13.6367C44.7902 13.0628 44 11.8728 44 10.5H42C42 12.661 43.2464 14.529 45.055 15.4278L45.945 13.6367ZM46.5 29V14.5322H44.5V29H46.5ZM47.5 30C46.9477 30 46.5 29.5523 46.5 29H44.5C44.5 30.6569 45.8431 32 47.5 32V30ZM48.5 29C48.5 29.5523 48.0523 30 47.5 30V32C49.1569 32 50.5 30.6569 50.5 29H48.5ZM48.5 14.5322V29H50.5V14.5322H48.5Z" fill="#2E3D4D" mask="url(#path-8-inside-1_422_4088)"/>
</svg>
