<svg width="110" height="30" viewBox="0 0 110 30" fill="none" xmlns="http://www.w3.org/2000/svg">
<path d="M12 0.5H71.6152C73.8272 0.500012 76.0322 0.748342 78.1885 1.24121L106.003 7.59961C108.049 8.06742 109.5 9.88746 109.5 11.9863V18.0137C109.5 20.1125 108.049 21.9326 106.003 22.4004L78.1885 28.7588C76.0322 29.2517 73.8272 29.5 71.6152 29.5H12C11.1716 29.5 10.5 28.8284 10.5 28V2C10.5 1.17157 11.1716 0.5 12 0.5Z" fill="#E5A0C3" stroke="#2E3D4D"/>
<rect x="8.5" y="5.5" width="2" height="3" fill="#2E3D4D" stroke="#2E3D4D"/>
<rect x="8.5" y="21.5" width="2" height="3" fill="#2E3D4D" stroke="#2E3D4D"/>
<rect x="0.5" y="0.5" width="8" height="29" rx="1.5" fill="#7D8B99" stroke="#2E3D4D"/>
</svg>
