<svg width="82" height="77" viewBox="0 0 82 77" fill="none" xmlns="http://www.w3.org/2000/svg">
<path d="M11 19C11 17.3431 12.3431 16 14 16H68C69.6569 16 71 17.3431 71 19V73C71 74.6569 69.6569 76 68 76H14C12.3431 76 11 74.6569 11 73V19Z" fill="#FFDD99"/>
<path d="M14 16.5H68V15.5H14V16.5ZM70.5 19V73H71.5V19H70.5ZM68 75.5H14V76.5H68V75.5ZM11.5 73V19H10.5V73H11.5ZM14 75.5C12.6193 75.5 11.5 74.3807 11.5 73H10.5C10.5 74.933 12.067 76.5 14 76.5V75.5ZM70.5 73C70.5 74.3807 69.3807 75.5 68 75.5V76.5C69.933 76.5 71.5 74.933 71.5 73H70.5ZM68 16.5C69.3807 16.5 70.5 17.6193 70.5 19H71.5C71.5 17.067 69.933 15.5 68 15.5V16.5ZM14 15.5C12.067 15.5 10.5 17.067 10.5 19H11.5C11.5 17.6193 12.6193 16.5 14 16.5V15.5Z" fill="#2E3D4D"/>
<path d="M21 26H61C63.7614 26 66 28.2386 66 31V71C66 72.7138 66.8623 74.2263 68.1767 75.1272C69.5433 76.0639 71 74.6569 71 73V16H11V72.59C11 74.235 12.4567 75.6319 13.8233 74.7019C15.1377 73.8075 16 72.3059 16 70.6044V31C16 28.2584 18.2386 26 21 26Z" fill="black" fill-opacity="0.2"/>
<path d="M11 4C11 2.34315 12.3431 1 14 1H68C69.6569 1 71 2.34315 71 4V13C71 14.6569 69.6569 16 68 16H14C12.3431 16 11 14.6569 11 13V4Z" fill="#FFDD99"/>
<path d="M14 1.5H68V0.5H14V1.5ZM70.5 4V13H71.5V4H70.5ZM68 15.5H14V16.5H68V15.5ZM11.5 13V4H10.5V13H11.5ZM14 15.5C12.6193 15.5 11.5 14.3807 11.5 13H10.5C10.5 14.933 12.067 16.5 14 16.5V15.5ZM70.5 13C70.5 14.3807 69.3807 15.5 68 15.5V16.5C69.933 16.5 71.5 14.933 71.5 13H70.5ZM68 1.5C69.3807 1.5 70.5 2.61929 70.5 4H71.5C71.5 2.067 69.933 0.5 68 0.5V1.5ZM14 0.5C12.067 0.5 10.5 2.067 10.5 4H11.5C11.5 2.61929 12.6193 1.5 14 1.5V0.5Z" fill="#2E3D4D"/>
<path d="M11 6V16H71V6C71 8.76142 68.7614 11 66 11H16C13.2386 11 11 8.76142 11 6Z" fill="black" fill-opacity="0.2"/>
<path d="M1 9C1 7.34315 2.34315 6 4 6H11V73C11 74.6569 9.65685 76 8 76H4C2.34315 76 1 74.6569 1 73V9Z" fill="#FFDD99"/>
<path d="M11 6H11.5V5.5H11V6ZM4 6.5H11V5.5H4V6.5ZM10.5 6V73H11.5V6H10.5ZM8 75.5H4V76.5H8V75.5ZM1.5 73V9H0.5V73H1.5ZM4 75.5C2.61929 75.5 1.5 74.3807 1.5 73H0.5C0.5 74.933 2.067 76.5 4 76.5V75.5ZM10.5 73C10.5 74.3807 9.38071 75.5 8 75.5V76.5C9.933 76.5 11.5 74.933 11.5 73H10.5ZM4 5.5C2.067 5.5 0.5 7.06701 0.5 9H1.5C1.5 7.61929 2.61929 6.5 4 6.5V5.5Z" fill="#2E3D4D"/>
<path d="M71 6H78C79.6569 6 81 7.34315 81 9V73C81 74.6569 79.6569 76 78 76H74C72.3431 76 71 74.6569 71 73V6Z" fill="#FFDD99"/>
<path d="M71 6V5.5H70.5V6H71ZM71 6.5H78V5.5H71V6.5ZM80.5 9V73H81.5V9H80.5ZM78 75.5H74V76.5H78V75.5ZM71.5 73V6H70.5V73H71.5ZM74 75.5C72.6193 75.5 71.5 74.3807 71.5 73H70.5C70.5 74.933 72.067 76.5 74 76.5V75.5ZM80.5 73C80.5 74.3807 79.3807 75.5 78 75.5V76.5C79.933 76.5 81.5 74.933 81.5 73H80.5ZM78 6.5C79.3807 6.5 80.5 7.61929 80.5 9H81.5C81.5 7.067 79.933 5.5 78 5.5V6.5Z" fill="#2E3D4D"/>
<path d="M21.0693 11.5H60.9307C64.5885 11.5 67.5763 13.9864 67.9287 17.1553C68.2002 19.5974 67.6966 22.0611 66.4727 24.2627L65.7334 25.5928C64.0709 28.5829 60.6514 30.4999 56.8789 30.5H25.1211C21.3486 30.4999 17.9291 28.5829 16.2666 25.5928L15.5273 24.2627C14.3034 22.0611 13.7998 19.5974 14.0713 17.1553C14.4237 13.9864 17.4115 11.5 21.0693 11.5Z" fill="#707EC2" stroke="#2E3D4D" stroke-linejoin="round"/>
<path d="M66.1704 25.8357C64.4107 29.0007 60.8136 31 56.8787 31H25.1212C21.1864 31 17.5893 29.0007 15.8296 25.8357C10.9171 15 25.9286 25 42.112 25C58.2953 25 71.7807 15.7449 66.1704 25.8357Z" fill="black" fill-opacity="0.2"/>
</svg>
