<svg width="90" height="90" viewBox="0 0 90 90" fill="none" xmlns="http://www.w3.org/2000/svg">
<path d="M89.5 0.5V29.5H89C56.1391 29.5 29.5 56.1391 29.5 89V89.5H0.5V0.5H89.5Z" fill="#B28F7D" stroke="#2E3D4D"/>
<path d="M36.364 13.0294L50.8597 27.5251C51.4454 28.1108 51.4454 29.0606 50.8597 29.6464L29.6465 50.8596C29.0607 51.4454 28.1109 51.4454 27.5251 50.8596L13.0294 36.3639L36.364 13.0294Z" fill="#FAF7F0" stroke="#2E3D4D" stroke-linejoin="round"/>
<rect x="29.2929" y="39.1924" width="14" height="7" transform="rotate(-45 29.2929 39.1924)" fill="black" fill-opacity="0.4"/>
<path d="M18.6863 35.6569L21.5147 32.8284L22.9289 34.2426L20.1005 37.0711L18.6863 35.6569Z" fill="black" fill-opacity="0.4"/>
<path d="M26.4645 27.8787L27.8787 26.4645L29.2929 27.8787L27.8787 29.2929L26.4645 27.8787Z" fill="black" fill-opacity="0.4"/>
<path d="M30.7071 23.636L32.1213 22.2218L33.5355 23.636L32.1213 25.0503L30.7071 23.636Z" fill="black" fill-opacity="0.4"/>
<path d="M22.2218 32.1213L23.636 30.7071L25.0503 32.1213L23.636 33.5355L22.2218 32.1213Z" fill="black" fill-opacity="0.4"/>
<path d="M28.5858 25.7574L30 24.3432L31.4142 25.7574L30 27.1716L28.5858 25.7574Z" fill="black" fill-opacity="0.4"/>
<path d="M32.8284 21.5147L35.6569 18.6863L37.0711 20.1005L34.2426 22.9289L32.8284 21.5147Z" fill="black" fill-opacity="0.4"/>
<path d="M23.636 34.9498L20.8076 37.7782L22.2218 39.1924L25.0503 36.364L23.636 34.9498Z" fill="black" fill-opacity="0.4"/>
<path d="M30 28.5858L28.5858 30L30 31.4142L31.4142 30L30 28.5858Z" fill="black" fill-opacity="0.4"/>
<path d="M34.2426 24.3432L32.8284 25.7574L34.2426 27.1716L35.6569 25.7574L34.2426 24.3432Z" fill="black" fill-opacity="0.4"/>
<path d="M25.7574 32.8284L24.3431 34.2426L25.7574 35.6569L27.1716 34.2426L25.7574 32.8284Z" fill="black" fill-opacity="0.4"/>
<path d="M32.1213 26.4645L30.7071 27.8787L32.1213 29.2929L33.5355 27.8787L32.1213 26.4645Z" fill="black" fill-opacity="0.4"/>
<path d="M37.7782 20.8076L34.9498 23.636L36.364 25.0503L39.1924 22.2218L37.7782 20.8076Z" fill="black" fill-opacity="0.4"/>
<path d="M22.9289 39.8995L25.0503 37.7782L26.4645 39.1924L24.3431 41.3137L22.9289 39.8995Z" fill="black" fill-opacity="0.4"/>
<path d="M25.7574 37.0711L37.0711 25.7574L38.4853 27.1716L27.1716 38.4853L25.7574 37.0711Z" fill="black" fill-opacity="0.4"/>
<path d="M37.7782 25.0503L39.8995 22.9289L41.3137 24.3432L39.1924 26.4645L37.7782 25.0503Z" fill="black" fill-opacity="0.4"/>
<path d="M24.3431 30L25.7574 28.5858L27.1716 30L25.7574 31.4142L24.3431 30Z" fill="black" fill-opacity="0.4"/>
<path d="M27.8787 30.7071L26.4645 32.1213L27.8787 33.5355L29.2929 32.1213L27.8787 30.7071Z" fill="black" fill-opacity="0.4"/>
<path d="M7.21307 32.2808L32.2808 7.21306C32.7884 6.70586 33.6493 6.88253 33.916 7.54866L35.777 12.2022L12.2022 35.777L7.54867 33.916C6.88254 33.6493 6.70587 32.7884 7.21307 32.2808Z" fill="#2E3D4D" stroke="#2E3D4D" stroke-linejoin="round"/>
</svg>
