<svg width="120" height="90" viewBox="0 0 120 90" fill="none" xmlns="http://www.w3.org/2000/svg">
<path d="M119.5 0.5V89.5H85C71.469 89.5 60.5 78.531 60.5 65V55C60.5 40.9167 49.0833 29.5 35 29.5H0.5V0.5H119.5Z" fill="#B28F7D" stroke="#2E3D4D"/>
<path d="M95.1802 56.1974L75.3787 61.5032C74.5785 61.7176 73.756 61.2427 73.5416 60.4425L65.7771 31.4648C65.5626 30.6646 66.0375 29.842 66.8377 29.6276L86.6392 24.3218L95.1802 56.1974Z" fill="#FAF7F0" stroke="#2E3D4D" stroke-linejoin="round"/>
<rect x="76.058" y="36.9922" width="14" height="7" transform="rotate(75 76.058 36.9922)" fill="black" fill-opacity="0.4"/>
<path d="M84.4232 29.5745L85.4584 33.4382L83.5266 33.9558L82.4913 30.0921L84.4232 29.5745Z" fill="black" fill-opacity="0.4"/>
<path d="M87.2702 40.1996L87.7878 42.1315L85.856 42.6491L85.3383 40.7173L87.2702 40.1996Z" fill="black" fill-opacity="0.4"/>
<path d="M88.8231 45.9952L89.3407 47.9271L87.4089 48.4447L86.8912 46.5128L88.8231 45.9952Z" fill="black" fill-opacity="0.4"/>
<path d="M85.7173 34.4041L86.2349 36.3359L84.303 36.8536L83.7854 34.9217L85.7173 34.4041Z" fill="black" fill-opacity="0.4"/>
<path d="M88.0466 43.0974L88.5643 45.0293L86.6324 45.5469L86.1148 43.6151L88.0466 43.0974Z" fill="black" fill-opacity="0.4"/>
<path d="M89.5995 48.893L90.6348 52.7567L88.703 53.2743L87.6677 49.4106L89.5995 48.893Z" fill="black" fill-opacity="0.4"/>
<path d="M82.5607 34.2146L81.5254 30.3509L79.5935 30.8686L80.6288 34.7323L82.5607 34.2146Z" fill="black" fill-opacity="0.4"/>
<path d="M84.89 42.908L84.3724 40.9761L82.4405 41.4937L82.9582 43.4256L84.89 42.908Z" fill="black" fill-opacity="0.4"/>
<path d="M86.4429 48.7035L85.9253 46.7717L83.9935 47.2893L84.5111 49.2211L86.4429 48.7035Z" fill="black" fill-opacity="0.4"/>
<path d="M83.3371 37.1124L82.8195 35.1805L80.8876 35.6982L81.4053 37.63L83.3371 37.1124Z" fill="black" fill-opacity="0.4"/>
<path d="M85.6665 45.8057L85.1488 43.8739L83.217 44.3915L83.7346 46.3234L85.6665 45.8057Z" fill="black" fill-opacity="0.4"/>
<path d="M87.737 53.5331L86.7018 49.6694L84.7699 50.1871L85.8052 54.0508L87.737 53.5331Z" fill="black" fill-opacity="0.4"/>
<path d="M78.6276 31.1274L79.4041 34.0252L77.4722 34.5428L76.6957 31.645L78.6276 31.1274Z" fill="black" fill-opacity="0.4"/>
<path d="M79.6629 34.9911L83.804 50.4459L81.8721 50.9635L77.731 35.5087L79.6629 34.9911Z" fill="black" fill-opacity="0.4"/>
<path d="M84.0628 51.4118L84.8393 54.3096L82.9074 54.8272L82.131 51.9295L84.0628 51.4118Z" fill="black" fill-opacity="0.4"/>
<path d="M86.4937 37.3019L87.0113 39.2337L85.0795 39.7514L84.5619 37.8195L86.4937 37.3019Z" fill="black" fill-opacity="0.4"/>
<path d="M84.1136 40.0102L83.5959 38.0783L81.6641 38.596L82.1817 40.5278L84.1136 40.0102Z" fill="black" fill-opacity="0.4"/>
<path d="M93.0835 21.3263L102.259 55.5695C102.444 56.2627 101.861 56.9199 101.151 56.8178L96.1901 56.1028L87.5612 23.8989L91.4996 20.7994C92.0637 20.3559 92.8975 20.6333 93.0835 21.3263Z" fill="#2E3D4D" stroke="#2E3D4D" stroke-linejoin="round"/>
</svg>
