<svg width="100" height="60" viewBox="0 0 100 60" fill="none" xmlns="http://www.w3.org/2000/svg">
<rect x="0.5" y="0.5" width="99" height="59" fill="#B28F7D" stroke="#2E3D4D"/>
<path d="M65.7836 21.0905L67.5703 41.5125C67.6425 42.3377 67.032 43.0653 66.2067 43.1375L36.3209 45.7522C35.4956 45.8244 34.768 45.2139 34.6958 44.3886L32.9091 23.9666L65.7836 21.0905Z" fill="#FAF7F0" stroke="#2E3D4D" stroke-linejoin="round"/>
<rect x="43.5496" y="36.5872" width="14" height="7" transform="rotate(-5 43.5496 36.5872)" fill="black" fill-opacity="0.4"/>
<path d="M37.6971 27.0611L41.6818 26.7125L41.8561 28.7049L37.8714 29.0535L37.6971 27.0611Z" fill="black" fill-opacity="0.4"/>
<path d="M48.6552 26.1024L50.6476 25.9281L50.8219 27.9205L48.8295 28.0948L48.6552 26.1024Z" fill="black" fill-opacity="0.4"/>
<path d="M54.6324 25.5794L56.6248 25.4051L56.7991 27.3975L54.8067 27.5718L54.6324 25.5794Z" fill="black" fill-opacity="0.4"/>
<path d="M42.678 26.6253L44.6704 26.451L44.8447 28.4434L42.8523 28.6177L42.678 26.6253Z" fill="black" fill-opacity="0.4"/>
<path d="M51.6438 25.8409L53.6362 25.6666L53.8105 27.659L51.8181 27.8333L51.6438 25.8409Z" fill="black" fill-opacity="0.4"/>
<path d="M57.6209 25.318L61.6057 24.9694L61.78 26.9617L57.7953 27.3104L57.6209 25.318Z" fill="black" fill-opacity="0.4"/>
<path d="M41.9433 29.7011L37.9585 30.0497L38.1328 32.0421L42.1176 31.6934L41.9433 29.7011Z" fill="black" fill-opacity="0.4"/>
<path d="M50.9091 28.9167L48.9167 29.091L49.091 31.0834L51.0834 30.909L50.9091 28.9167Z" fill="black" fill-opacity="0.4"/>
<path d="M56.8862 28.3937L54.8938 28.568L55.0681 30.5604L57.0605 30.3861L56.8862 28.3937Z" fill="black" fill-opacity="0.4"/>
<path d="M44.9319 29.4396L42.9395 29.6139L43.1138 31.6063L45.1062 31.432L44.9319 29.4396Z" fill="black" fill-opacity="0.4"/>
<path d="M53.8976 28.6552L51.9052 28.8295L52.0796 30.8219L54.0719 30.6476L53.8976 28.6552Z" fill="black" fill-opacity="0.4"/>
<path d="M61.8672 27.9579L57.8824 28.3066L58.0567 30.299L62.0415 29.9503L61.8672 27.9579Z" fill="black" fill-opacity="0.4"/>
<path d="M38.22 33.0383L41.2086 32.7768L41.3829 34.7692L38.3943 35.0307L38.22 33.0383Z" fill="black" fill-opacity="0.4"/>
<path d="M42.2048 32.6896L58.1439 31.2951L58.3182 33.2875L42.3791 34.682L42.2048 32.6896Z" fill="black" fill-opacity="0.4"/>
<path d="M59.1401 31.208L62.1287 30.9465L62.303 32.9389L59.3144 33.2004L59.1401 31.208Z" fill="black" fill-opacity="0.4"/>
<path d="M45.6666 26.3639L47.659 26.1895L47.8333 28.1819L45.8409 28.3562L45.6666 26.3639Z" fill="black" fill-opacity="0.4"/>
<path d="M47.9205 29.1781L45.9281 29.3524L46.1024 31.3448L48.0948 31.1705L47.9205 29.1781Z" fill="black" fill-opacity="0.4"/>
<path d="M31.0781 17.1L66.3944 14.0103C67.1092 13.948 67.6551 14.6367 67.4313 15.3184L65.8657 20.0794L32.6527 22.9852L30.2841 18.5684C29.9453 17.9359 30.3633 17.1628 31.0781 17.1Z" fill="#2E3D4D" stroke="#2E3D4D" stroke-linejoin="round"/>
</svg>
