<svg width="50" height="50" viewBox="0 0 50 50" fill="none" xmlns="http://www.w3.org/2000/svg">
<g clip-path="url(#clip0_3950_2050)">
<mask id="path-1-inside-1_3950_2050" fill="white">
<path d="M0 25C0 15.6538 0 10.9808 2.00962 7.5C3.32614 5.21971 5.21971 3.32614 7.5 2.00962C10.9808 0 15.6538 0 25 0C34.3462 0 39.0192 0 42.5 2.00962C44.7803 3.32614 46.6739 5.21971 47.9904 7.5C50 10.9808 50 15.6538 50 25C50 34.3462 50 39.0192 47.9904 42.5C46.6739 44.7803 44.7803 46.6739 42.5 47.9904C39.0192 50 34.3462 50 25 50C15.6538 50 10.9808 50 7.5 47.9904C5.21971 46.6739 3.32614 44.7803 2.00962 42.5C0 39.0192 0 34.3462 0 25Z"/>
</mask>
<path d="M0 25C0 15.6538 0 10.9808 2.00962 7.5C3.32614 5.21971 5.21971 3.32614 7.5 2.00962C10.9808 0 15.6538 0 25 0C34.3462 0 39.0192 0 42.5 2.00962C44.7803 3.32614 46.6739 5.21971 47.9904 7.5C50 10.9808 50 15.6538 50 25C50 34.3462 50 39.0192 47.9904 42.5C46.6739 44.7803 44.7803 46.6739 42.5 47.9904C39.0192 50 34.3462 50 25 50C15.6538 50 10.9808 50 7.5 47.9904C5.21971 46.6739 3.32614 44.7803 2.00962 42.5C0 39.0192 0 34.3462 0 25Z" fill="#FFDD99"/>
<path d="M7.5 47.9904L8 47.1244L7.5 47.9904ZM2.00962 42.5L1.14359 43L2.00962 42.5ZM47.9904 42.5L47.1244 42L47.9904 42.5ZM42.5 47.9904L42 47.1244L42.5 47.9904ZM42.5 2.00962L43 1.14359L42.5 2.00962ZM47.9904 7.5L47.1244 8L47.9904 7.5ZM2.00962 7.5L1.14359 7L2.00962 7.5ZM25 49C20.3085 49 16.8568 48.999 14.1407 48.7529C11.4385 48.508 9.56281 48.0266 8 47.1244L7 48.8564C8.91795 49.9637 11.1192 50.4872 13.9602 50.7447C16.7875 51.001 20.3453 51 25 51V49ZM-1 25C-1 29.6547 -1.00096 33.2125 -0.744716 36.0398C-0.487227 38.8808 0.0362659 41.0821 1.14359 43L2.87564 42C1.97335 40.4372 1.49204 38.5615 1.24712 35.8593C1.00096 33.1432 1 29.6915 1 25H-1ZM8 47.1244C5.87173 45.8956 4.1044 44.1283 2.87564 42L1.14359 43C2.54789 45.4323 4.56769 47.4521 7 48.8564L8 47.1244ZM49 25C49 29.6915 48.999 33.1432 48.7529 35.8593C48.508 38.5615 48.0266 40.4372 47.1244 42L48.8564 43C49.9637 41.0821 50.4872 38.8808 50.7447 36.0398C51.001 33.2125 51 29.6547 51 25H49ZM25 51C29.6547 51 33.2125 51.001 36.0398 50.7447C38.8808 50.4872 41.0821 49.9637 43 48.8564L42 47.1244C40.4372 48.0266 38.5615 48.508 35.8593 48.7529C33.1432 48.999 29.6915 49 25 49V51ZM47.1244 42C45.8956 44.1283 44.1283 45.8956 42 47.1244L43 48.8564C45.4323 47.4521 47.4521 45.4323 48.8564 43L47.1244 42ZM25 1C29.6915 1 33.1432 1.00096 35.8593 1.24712C38.5615 1.49204 40.4372 1.97335 42 2.87564L43 1.14359C41.0821 0.0362659 38.8808 -0.487227 36.0398 -0.744716C33.2125 -1.00096 29.6547 -1 25 -1V1ZM51 25C51 20.3453 51.001 16.7875 50.7447 13.9602C50.4872 11.1192 49.9637 8.91795 48.8564 7L47.1244 8C48.0266 9.56281 48.508 11.4385 48.7529 14.1407C48.999 16.8568 49 20.3085 49 25H51ZM42 2.87564C44.1283 4.1044 45.8956 5.87173 47.1244 8L48.8564 7C47.4521 4.56769 45.4323 2.54789 43 1.14359L42 2.87564ZM25 -1C20.3453 -1 16.7875 -1.00096 13.9602 -0.744716C11.1192 -0.487227 8.91795 0.0362659 7 1.14359L8 2.87564C9.56281 1.97335 11.4385 1.49204 14.1407 1.24712C16.8568 1.00096 20.3085 1 25 1V-1ZM1 25C1 20.3085 1.00096 16.8568 1.24712 14.1407C1.49204 11.4385 1.97335 9.56281 2.87564 8L1.14359 7C0.0362659 8.91795 -0.487227 11.1192 -0.744716 13.9602C-1.00096 16.7875 -1 20.3453 -1 25H1ZM7 1.14359C4.56769 2.54789 2.54789 4.56769 1.14359 7L2.87564 8C4.1044 5.87173 5.87173 4.1044 8 2.87564L7 1.14359Z" fill="#2E3D4D" mask="url(#path-1-inside-1_3950_2050)"/>
<path fill-rule="evenodd" clip-rule="evenodd" d="M2.00962 7.5C0 10.9808 0 15.6538 0 25C0 34.3462 0 39.0192 2.00962 42.5C3.32614 44.7803 5.21971 46.6739 7.5 47.9904C10.9808 50 15.6538 50 25 50C34.3462 50 39.0192 50 42.5 47.9904C44.7803 46.6739 46.6739 44.7803 47.9904 42.5C50 39.0192 50 34.3462 50 25C50 15.6538 50 10.9808 47.9904 7.5C46.6739 5.21971 44.7803 3.32614 42.5 2.00962C39.0192 0 34.3462 0 25 0C15.6538 0 10.9808 0 7.5 2.00962C5.21971 3.32614 3.32614 5.21971 2.00962 7.5ZM25 0C38.8071 0 50 11.1929 50 25C50 38.8071 38.8071 50 25 50C11.1929 50 0 38.8071 0 25C0 11.1929 11.1929 0 25 0Z" fill="black" fill-opacity="0.2"/>
<path d="M27 25H23M25 27L25 23" stroke="black" stroke-opacity="0.2" stroke-linecap="round"/>
</g>
<defs>
<clipPath id="clip0_3950_2050">
<rect width="50" height="50" fill="white"/>
</clipPath>
</defs>
</svg>
