<svg width="197" height="272" viewBox="0 0 197 272" fill="none" xmlns="http://www.w3.org/2000/svg">
<path d="M76 199C76 197.343 77.3431 196 79 196H133C134.657 196 136 197.343 136 199V253C136 254.657 134.657 256 133 256H79C77.3431 256 76 254.657 76 253V199Z" fill="#FFDD99"/>
<path d="M79 196.5H133V195.5H79V196.5ZM135.5 199V253H136.5V199H135.5ZM133 255.5H79V256.5H133V255.5ZM76.5 253V199H75.5V253H76.5ZM79 255.5C77.6193 255.5 76.5 254.381 76.5 253H75.5C75.5 254.933 77.067 256.5 79 256.5V255.5ZM135.5 253C135.5 254.381 134.381 255.5 133 255.5V256.5C134.933 256.5 136.5 254.933 136.5 253H135.5ZM133 196.5C134.381 196.5 135.5 197.619 135.5 199H136.5C136.5 197.067 134.933 195.5 133 195.5V196.5ZM79 195.5C77.067 195.5 75.5 197.067 75.5 199H76.5C76.5 197.619 77.6193 196.5 79 196.5V195.5Z" fill="#2E3D4D"/>
<path d="M136 199C136 197.343 137.343 196 139 196H193C194.657 196 196 197.343 196 199V253C196 254.657 194.657 256 193 256H139C137.343 256 136 254.657 136 253V199Z" fill="#FFDD99"/>
<path d="M139 196.5H193V195.5H139V196.5ZM195.5 199V253H196.5V199H195.5ZM193 255.5H139V256.5H193V255.5ZM136.5 253V199H135.5V253H136.5ZM139 255.5C137.619 255.5 136.5 254.381 136.5 253H135.5C135.5 254.933 137.067 256.5 139 256.5V255.5ZM195.5 253C195.5 254.381 194.381 255.5 193 255.5V256.5C194.933 256.5 196.5 254.933 196.5 253H195.5ZM193 196.5C194.381 196.5 195.5 197.619 195.5 199H196.5C196.5 197.067 194.933 195.5 193 195.5V196.5ZM139 195.5C137.067 195.5 135.5 197.067 135.5 199H136.5C136.5 197.619 137.619 196.5 139 196.5V195.5Z" fill="#2E3D4D"/>
<path d="M16 199C16 197.343 17.3431 196 19 196H73C74.6569 196 76 197.343 76 199V253C76 254.657 74.6569 256 73 256H19C17.3431 256 16 254.657 16 253V199Z" fill="#FFDD99"/>
<path d="M19 196.5H73V195.5H19V196.5ZM75.5 199V253H76.5V199H75.5ZM73 255.5H19V256.5H73V255.5ZM16.5 253V199H15.5V253H16.5ZM19 255.5C17.6193 255.5 16.5 254.381 16.5 253H15.5C15.5 254.933 17.067 256.5 19 256.5V255.5ZM75.5 253C75.5 254.381 74.3807 255.5 73 255.5V256.5C74.933 256.5 76.5 254.933 76.5 253H75.5ZM73 196.5C74.3807 196.5 75.5 197.619 75.5 199H76.5C76.5 197.067 74.933 195.5 73 195.5V196.5ZM19 195.5C17.067 195.5 15.5 197.067 15.5 199H16.5C16.5 197.619 17.6193 196.5 19 196.5V195.5Z" fill="#2E3D4D"/>
<path d="M16 139C16 137.343 17.3431 136 19 136H73C74.6569 136 76 137.343 76 139V193C76 194.657 74.6569 196 73 196H19C17.3431 196 16 194.657 16 193V139Z" fill="#FFDD99"/>
<path d="M19 136.5H73V135.5H19V136.5ZM75.5 139V193H76.5V139H75.5ZM73 195.5H19V196.5H73V195.5ZM16.5 193V139H15.5V193H16.5ZM19 195.5C17.6193 195.5 16.5 194.381 16.5 193H15.5C15.5 194.933 17.067 196.5 19 196.5V195.5ZM75.5 193C75.5 194.381 74.3807 195.5 73 195.5V196.5C74.933 196.5 76.5 194.933 76.5 193H75.5ZM73 136.5C74.3807 136.5 75.5 137.619 75.5 139H76.5C76.5 137.067 74.933 135.5 73 135.5V136.5ZM19 135.5C17.067 135.5 15.5 137.067 15.5 139H16.5C16.5 137.619 17.6193 136.5 19 136.5V135.5Z" fill="#2E3D4D"/>
<path d="M16 79C16 77.3431 17.3431 76 19 76H73C74.6569 76 76 77.3431 76 79V133C76 134.657 74.6569 136 73 136H19C17.3431 136 16 134.657 16 133V79Z" fill="#FFDD99"/>
<path d="M19 76.5H73V75.5H19V76.5ZM75.5 79V133H76.5V79H75.5ZM73 135.5H19V136.5H73V135.5ZM16.5 133V79H15.5V133H16.5ZM19 135.5C17.6193 135.5 16.5 134.381 16.5 133H15.5C15.5 134.933 17.067 136.5 19 136.5V135.5ZM75.5 133C75.5 134.381 74.3807 135.5 73 135.5V136.5C74.933 136.5 76.5 134.933 76.5 133H75.5ZM73 76.5C74.3807 76.5 75.5 77.6193 75.5 79H76.5C76.5 77.067 74.933 75.5 73 75.5V76.5ZM19 75.5C17.067 75.5 15.5 77.067 15.5 79H16.5C16.5 77.6193 17.6193 76.5 19 76.5V75.5Z" fill="#2E3D4D"/>
<path d="M16 19C16 17.3431 17.3431 16 19 16H73C74.6569 16 76 17.3431 76 19V73C76 74.6569 74.6569 76 73 76H19C17.3431 76 16 74.6569 16 73V19Z" fill="#FFDD99" stroke="#2E3D4D"/>
<path d="M76 19C76 17.3431 77.3431 16 79 16H133C134.657 16 136 17.3431 136 19V73C136 74.6569 134.657 76 133 76H79C77.3431 76 76 74.6569 76 73V19Z" fill="#FFDD99"/>
<path d="M79 16.5H133V15.5H79V16.5ZM135.5 19V73H136.5V19H135.5ZM133 75.5H79V76.5H133V75.5ZM76.5 73V19H75.5V73H76.5ZM79 75.5C77.6193 75.5 76.5 74.3807 76.5 73H75.5C75.5 74.933 77.067 76.5 79 76.5V75.5ZM135.5 73C135.5 74.3807 134.381 75.5 133 75.5V76.5C134.933 76.5 136.5 74.933 136.5 73H135.5ZM133 16.5C134.381 16.5 135.5 17.6193 135.5 19H136.5C136.5 17.067 134.933 15.5 133 15.5V16.5ZM79 15.5C77.067 15.5 75.5 17.067 75.5 19H76.5C76.5 17.6193 77.6193 16.5 79 16.5V15.5Z" fill="#2E3D4D"/>
<path d="M136 19C136 17.3431 137.343 16 139 16H193C194.657 16 196 17.3431 196 19V73C196 74.6569 194.657 76 193 76H139C137.343 76 136 74.6569 136 73V19Z" fill="#FFDD99"/>
<path d="M139 16.5H193V15.5H139V16.5ZM195.5 19V73H196.5V19H195.5ZM193 75.5H139V76.5H193V75.5ZM136.5 73V19H135.5V73H136.5ZM139 75.5C137.619 75.5 136.5 74.3807 136.5 73H135.5C135.5 74.933 137.067 76.5 139 76.5V75.5ZM195.5 73C195.5 74.3807 194.381 75.5 193 75.5V76.5C194.933 76.5 196.5 74.933 196.5 73H195.5ZM193 16.5C194.381 16.5 195.5 17.6193 195.5 19H196.5C196.5 17.067 194.933 15.5 193 15.5V16.5ZM139 15.5C137.067 15.5 135.5 17.067 135.5 19H136.5C136.5 17.6193 137.619 16.5 139 16.5V15.5Z" fill="#2E3D4D"/>
<path d="M136 256L196 256V241C196 243.761 193.761 246 191 246L141 246C138.239 246 136 243.761 136 241L136 256Z" fill="black" fill-opacity="0.2"/>
<path d="M76 256L136 256V241C136 243.761 133.761 246 131 246L81 246C78.2386 246 76 243.761 76 241L76 256Z" fill="black" fill-opacity="0.2"/>
<path d="M16 256L16 196L31 196C28.2386 196 26 198.239 26 201L26 241C26 243.761 28.2386 246 31 246L71 246C73.7614 246 76 243.761 76 241V256L16 256Z" fill="black" fill-opacity="0.2"/>
<path d="M16 136L16 196H31C28.2386 196 26 193.761 26 191L26 141C26 138.239 28.2386 136 31 136L16 136Z" fill="black" fill-opacity="0.2"/>
<path d="M16 76L16 136H31C28.2386 136 26 133.761 26 131L26 81C26 78.2386 28.2386 76 31 76L16 76Z" fill="black" fill-opacity="0.2"/>
<path d="M16 16H76V31C76 28.2386 73.7614 26 71 26H31C28.2386 26 26 28.2386 26 31L26 71C26 73.7614 28.2386 76 31 76H16L16 16Z" fill="black" fill-opacity="0.2"/>
<path d="M136 16H76V31C76 28.2386 78.2386 26 81 26H131C133.761 26 136 28.2386 136 31V16Z" fill="black" fill-opacity="0.2"/>
<path d="M196 16H136V31C136 28.2386 138.239 26 141 26H191C193.761 26 196 28.2386 196 31V16Z" fill="black" fill-opacity="0.2"/>
<path d="M6 256H13C14.6569 256 16 257.343 16 259V266H9C7.34315 266 6 264.657 6 263V256Z" fill="#FFDD99" stroke="#2E3D4D"/>
<path d="M6 9C6 7.34315 7.34315 6 9 6H16V13C16 14.6569 14.6569 16 13 16H6V9Z" fill="#FFDD99" stroke="#2E3D4D"/>
<path d="M136 259C136 257.343 137.343 256 139 256H193C194.657 256 196 257.343 196 259V268C196 269.657 194.657 271 193 271H139C137.343 271 136 269.657 136 268V259Z" fill="#FFDD99"/>
<path d="M139 256.5H193V255.5H139V256.5ZM195.5 259V268H196.5V259H195.5ZM193 270.5H139V271.5H193V270.5ZM136.5 268V259H135.5V268H136.5ZM139 270.5C137.619 270.5 136.5 269.381 136.5 268H135.5C135.5 269.933 137.067 271.5 139 271.5V270.5ZM195.5 268C195.5 269.381 194.381 270.5 193 270.5V271.5C194.933 271.5 196.5 269.933 196.5 268H195.5ZM193 256.5C194.381 256.5 195.5 257.619 195.5 259H196.5C196.5 257.067 194.933 255.5 193 255.5V256.5ZM139 255.5C137.067 255.5 135.5 257.067 135.5 259H136.5C136.5 257.619 137.619 256.5 139 256.5V255.5Z" fill="#2E3D4D"/>
<path d="M76 259C76 257.343 77.3431 256 79 256H133C134.657 256 136 257.343 136 259V268C136 269.657 134.657 271 133 271H79C77.3431 271 76 269.657 76 268V259Z" fill="#FFDD99"/>
<path d="M79 256.5H133V255.5H79V256.5ZM135.5 259V268H136.5V259H135.5ZM133 270.5H79V271.5H133V270.5ZM76.5 268V259H75.5V268H76.5ZM79 270.5C77.6193 270.5 76.5 269.381 76.5 268H75.5C75.5 269.933 77.067 271.5 79 271.5V270.5ZM135.5 268C135.5 269.381 134.381 270.5 133 270.5V271.5C134.933 271.5 136.5 269.933 136.5 268H135.5ZM133 256.5C134.381 256.5 135.5 257.619 135.5 259H136.5C136.5 257.067 134.933 255.5 133 255.5V256.5ZM79 255.5C77.067 255.5 75.5 257.067 75.5 259H76.5C76.5 257.619 77.6193 256.5 79 256.5V255.5Z" fill="#2E3D4D"/>
<path d="M16 259C16 257.343 17.3431 256 19 256H73C74.6569 256 76 257.343 76 259V268C76 269.657 74.6569 271 73 271H19C17.3431 271 16 269.657 16 268V259Z" fill="#FFDD99"/>
<path d="M19 256.5H73V255.5H19V256.5ZM75.5 259V268H76.5V259H75.5ZM73 270.5H19V271.5H73V270.5ZM16.5 268V259H15.5V268H16.5ZM19 270.5C17.6193 270.5 16.5 269.381 16.5 268H15.5C15.5 269.933 17.067 271.5 19 271.5V270.5ZM75.5 268C75.5 269.381 74.3807 270.5 73 270.5V271.5C74.933 271.5 76.5 269.933 76.5 268H75.5ZM73 256.5C74.3807 256.5 75.5 257.619 75.5 259H76.5C76.5 257.067 74.933 255.5 73 255.5V256.5ZM19 255.5C17.067 255.5 15.5 257.067 15.5 259H16.5C16.5 257.619 17.6193 256.5 19 256.5V255.5Z" fill="#2E3D4D"/>
<path d="M1 199C1 197.343 2.34315 196 4 196H13C14.6569 196 16 197.343 16 199V253C16 254.657 14.6569 256 13 256H4C2.34315 256 1 254.657 1 253V199Z" fill="#FFDD99"/>
<path d="M4 196.5H13V195.5H4V196.5ZM15.5 199V253H16.5V199H15.5ZM13 255.5H4V256.5H13V255.5ZM1.5 253V199H0.5V253H1.5ZM4 255.5C2.61929 255.5 1.5 254.381 1.5 253H0.5C0.5 254.933 2.067 256.5 4 256.5V255.5ZM15.5 253C15.5 254.381 14.3807 255.5 13 255.5V256.5C14.933 256.5 16.5 254.933 16.5 253H15.5ZM13 196.5C14.3807 196.5 15.5 197.619 15.5 199H16.5C16.5 197.067 14.933 195.5 13 195.5V196.5ZM4 195.5C2.067 195.5 0.5 197.067 0.5 199H1.5C1.5 197.619 2.61929 196.5 4 196.5V195.5Z" fill="#2E3D4D"/>
<path d="M1 139C1 137.343 2.34315 136 4 136H13C14.6569 136 16 137.343 16 139V193C16 194.657 14.6569 196 13 196H4C2.34315 196 1 194.657 1 193V139Z" fill="#FFDD99"/>
<path d="M4 136.5H13V135.5H4V136.5ZM15.5 139V193H16.5V139H15.5ZM13 195.5H4V196.5H13V195.5ZM1.5 193V139H0.5V193H1.5ZM4 195.5C2.61929 195.5 1.5 194.381 1.5 193H0.5C0.5 194.933 2.067 196.5 4 196.5V195.5ZM15.5 193C15.5 194.381 14.3807 195.5 13 195.5V196.5C14.933 196.5 16.5 194.933 16.5 193H15.5ZM13 136.5C14.3807 136.5 15.5 137.619 15.5 139H16.5C16.5 137.067 14.933 135.5 13 135.5V136.5ZM4 135.5C2.067 135.5 0.5 137.067 0.5 139H1.5C1.5 137.619 2.61929 136.5 4 136.5V135.5Z" fill="#2E3D4D"/>
<path d="M1 79C1 77.3431 2.34315 76 4 76H13C14.6569 76 16 77.3431 16 79V133C16 134.657 14.6569 136 13 136H4C2.34315 136 1 134.657 1 133V79Z" fill="#FFDD99"/>
<path d="M4 76.5H13V75.5H4V76.5ZM15.5 79V133H16.5V79H15.5ZM13 135.5H4V136.5H13V135.5ZM1.5 133V79H0.5V133H1.5ZM4 135.5C2.61929 135.5 1.5 134.381 1.5 133H0.5C0.5 134.933 2.067 136.5 4 136.5V135.5ZM15.5 133C15.5 134.381 14.3807 135.5 13 135.5V136.5C14.933 136.5 16.5 134.933 16.5 133H15.5ZM13 76.5C14.3807 76.5 15.5 77.6193 15.5 79H16.5C16.5 77.067 14.933 75.5 13 75.5V76.5ZM4 75.5C2.067 75.5 0.5 77.067 0.5 79H1.5C1.5 77.6193 2.61929 76.5 4 76.5V75.5Z" fill="#2E3D4D"/>
<path d="M1 19C1 17.3431 2.34315 16 4 16H13C14.6569 16 16 17.3431 16 19V73C16 74.6569 14.6569 76 13 76H4C2.34315 76 1 74.6569 1 73V19Z" fill="#FFDD99"/>
<path d="M4 16.5H13V15.5H4V16.5ZM15.5 19V73H16.5V19H15.5ZM13 75.5H4V76.5H13V75.5ZM1.5 73V19H0.5V73H1.5ZM4 75.5C2.61929 75.5 1.5 74.3807 1.5 73H0.5C0.5 74.933 2.067 76.5 4 76.5V75.5ZM15.5 73C15.5 74.3807 14.3807 75.5 13 75.5V76.5C14.933 76.5 16.5 74.933 16.5 73H15.5ZM13 16.5C14.3807 16.5 15.5 17.6193 15.5 19H16.5C16.5 17.067 14.933 15.5 13 15.5V16.5ZM4 15.5C2.067 15.5 0.5 17.067 0.5 19H1.5C1.5 17.6193 2.61929 16.5 4 16.5V15.5Z" fill="#2E3D4D"/>
<path d="M76 4C76 2.34315 77.3431 1 79 1H133C134.657 1 136 2.34315 136 4V13C136 14.6569 134.657 16 133 16H79C77.3431 16 76 14.6569 76 13V4Z" fill="#FFDD99"/>
<path d="M79 1.5H133V0.5H79V1.5ZM135.5 4V13H136.5V4H135.5ZM133 15.5H79V16.5H133V15.5ZM76.5 13V4H75.5V13H76.5ZM79 15.5C77.6193 15.5 76.5 14.3807 76.5 13H75.5C75.5 14.933 77.067 16.5 79 16.5V15.5ZM135.5 13C135.5 14.3807 134.381 15.5 133 15.5V16.5C134.933 16.5 136.5 14.933 136.5 13H135.5ZM133 1.5C134.381 1.5 135.5 2.61929 135.5 4H136.5C136.5 2.067 134.933 0.5 133 0.5V1.5ZM79 0.5C77.067 0.5 75.5 2.067 75.5 4H76.5C76.5 2.61929 77.6193 1.5 79 1.5V0.5Z" fill="#2E3D4D"/>
<path d="M16 4C16 2.34315 17.3431 1 19 1H73C74.6569 1 76 2.34315 76 4V13C76 14.6569 74.6569 16 73 16H19C17.3431 16 16 14.6569 16 13V4Z" fill="#FFDD99"/>
<path d="M19 1.5H73V0.5H19V1.5ZM75.5 4V13H76.5V4H75.5ZM73 15.5H19V16.5H73V15.5ZM16.5 13V4H15.5V13H16.5ZM19 15.5C17.6193 15.5 16.5 14.3807 16.5 13H15.5C15.5 14.933 17.067 16.5 19 16.5V15.5ZM75.5 13C75.5 14.3807 74.3807 15.5 73 15.5V16.5C74.933 16.5 76.5 14.933 76.5 13H75.5ZM73 1.5C74.3807 1.5 75.5 2.61929 75.5 4H76.5C76.5 2.067 74.933 0.5 73 0.5V1.5ZM19 0.5C17.067 0.5 15.5 2.067 15.5 4H16.5C16.5 2.61929 17.6193 1.5 19 1.5V0.5Z" fill="#2E3D4D"/>
<path d="M136 4C136 2.34315 137.343 1 139 1H193C194.657 1 196 2.34315 196 4V13C196 14.6569 194.657 16 193 16H139C137.343 16 136 14.6569 136 13V4Z" fill="#FFDD99"/>
<path d="M139 1.5H193V0.5H139V1.5ZM195.5 4V13H196.5V4H195.5ZM193 15.5H139V16.5H193V15.5ZM136.5 13V4H135.5V13H136.5ZM139 15.5C137.619 15.5 136.5 14.3807 136.5 13H135.5C135.5 14.933 137.067 16.5 139 16.5V15.5ZM195.5 13C195.5 14.3807 194.381 15.5 193 15.5V16.5C194.933 16.5 196.5 14.933 196.5 13H195.5ZM193 1.5C194.381 1.5 195.5 2.61929 195.5 4H196.5C196.5 2.067 194.933 0.5 193 0.5V1.5ZM139 0.5C137.067 0.5 135.5 2.067 135.5 4H136.5C136.5 2.61929 137.619 1.5 139 1.5V0.5Z" fill="#2E3D4D"/>
<path d="M196 266V256L136 256L136 266C136 263.239 138.239 261 141 261L191 261C193.761 261 196 263.239 196 266Z" fill="black" fill-opacity="0.2"/>
<path d="M136 266V256L76 256L76 266C76 263.239 78.2386 261 81 261L131 261C133.761 261 136 263.239 136 266Z" fill="black" fill-opacity="0.2"/>
<path d="M76 266V256L16 256L16 266C16 263.239 18.2386 261 21 261L71 261C73.7614 261 76 263.239 76 266Z" fill="black" fill-opacity="0.2"/>
<path d="M6 256H16L16 196L6 196C8.76142 196 11 198.239 11 201L11 251C11 253.761 8.76143 256 6 256Z" fill="black" fill-opacity="0.2"/>
<path d="M6 196H16L16 136L6 136C8.76142 136 11 138.239 11 141L11 191C11 193.761 8.76143 196 6 196Z" fill="black" fill-opacity="0.2"/>
<path d="M6 136H16L16 76L6 76C8.76142 76 11 78.2386 11 81L11 131C11 133.761 8.76143 136 6 136Z" fill="black" fill-opacity="0.2"/>
<path d="M6 76H16L16 16L6 16C8.76142 16 11 18.2386 11 21L11 71C11 73.7614 8.76143 76 6 76Z" fill="black" fill-opacity="0.2"/>
<path d="M16 6V16H76V6C76 8.76142 73.7614 11 71 11H21C18.2386 11 16 8.76142 16 6Z" fill="black" fill-opacity="0.2"/>
<path d="M76 6V16H136V6C136 8.76142 133.761 11 131 11H81C78.2386 11 76 8.76142 76 6Z" fill="black" fill-opacity="0.2"/>
<path d="M136 6V16H196V6C196 8.76142 193.761 11 191 11H141C138.239 11 136 8.76142 136 6Z" fill="black" fill-opacity="0.2"/>
<path d="M109.119 260.5L72.8809 260.5C69.6157 260.5 66.8894 258.053 66.5654 254.851C66.3175 252.398 66.777 249.925 67.8916 247.72L68.5645 246.39C70.0782 243.395 73.1741 241.5 76.5645 241.5L105.436 241.5C108.826 241.5 111.922 243.395 113.436 246.39L114.108 247.72C115.223 249.925 115.683 252.398 115.435 254.851C115.111 258.053 112.384 260.5 109.119 260.5Z" fill="#707EC2" stroke="#2E3D4D" stroke-linejoin="round"/>
<path d="M68.1178 246.164C69.7175 242.999 72.9876 241 76.5648 241L105.435 241C109.012 241 112.282 242.999 113.882 246.164C118.348 257 104.701 247 89.9891 247C75.277 247 63.0175 256.255 68.1178 246.164Z" fill="black" fill-opacity="0.2"/>
<path d="M13.1153 254.879L9.95697 218.778C9.67258 215.525 11.8722 212.596 15.0345 211.994C17.4562 211.534 19.9597 211.776 22.2538 212.694L23.6374 213.248C26.7525 214.495 28.9101 217.414 29.2057 220.792L31.722 249.553C32.0174 252.931 30.3994 256.18 27.5482 257.949L26.2818 258.735C24.182 260.038 21.7587 260.711 19.2937 260.678C16.075 260.634 13.4001 258.131 13.1153 254.879Z" fill="#3D9999" stroke="#2E3D4D" stroke-linejoin="round"/>
<path d="M23.823 212.784C27.1154 214.102 29.3921 217.185 29.7039 220.749L32.2201 249.509C32.5319 253.073 30.8252 256.505 27.8116 258.374C17.4064 263.767 26.1789 249.301 24.8967 234.645C23.6145 219.989 13.3261 208.582 23.823 212.784Z" fill="black" fill-opacity="0.2"/>
<path d="M11.5 176.119L11.5 139.881C11.5002 136.616 13.9468 133.889 17.1494 133.565C19.6021 133.317 22.075 133.777 24.2803 134.892L25.6103 135.564C28.6049 137.078 30.4999 140.174 30.5 143.564L30.5 172.436C30.4999 175.826 28.6049 178.922 25.6104 180.436L24.2803 181.108C22.075 182.223 19.6021 182.683 17.1494 182.435C13.9468 182.111 11.5002 179.384 11.5 176.119Z" fill="#FFBB99" stroke="#2E3D4D" stroke-linejoin="round"/>
<path d="M25.8357 135.118C29.0007 136.718 31 139.988 31 143.565L31 172.435C31 176.012 29.0007 179.282 25.8357 180.882C15 185.348 25 171.701 25 156.989C25 142.277 15.7449 130.018 25.8357 135.118Z" fill="black" fill-opacity="0.2"/>
<path d="M11.5 101.119L11.5 64.8809C11.5002 61.6157 13.9468 58.8894 17.1494 58.5654C19.6021 58.3175 22.075 58.777 24.2803 59.8916L25.6103 60.5645C28.6049 62.0782 30.4999 65.1741 30.5 68.5645L30.5 97.4355C30.4999 100.826 28.6049 103.922 25.6104 105.436L24.2803 106.108C22.075 107.223 19.6021 107.683 17.1494 107.435C13.9468 107.111 11.5002 104.384 11.5 101.119Z" fill="#FAF7F0" stroke="#2E3D4D" stroke-linejoin="round"/>
<path d="M25.8357 60.1179C29.0007 61.7176 31 64.9877 31 68.5648L31 97.4353C31 101.012 29.0007 104.282 25.8357 105.882C15 110.348 25 96.7013 25 81.9892C25 67.2771 15.7449 55.0176 25.8357 60.1179Z" fill="black" fill-opacity="0.2"/>
<path d="M22.1218 13.1157L58.2222 9.9573C61.475 9.67292 64.4041 11.8726 65.006 15.0348C65.4668 17.4566 65.2245 19.96 64.3064 22.2541L63.752 23.6378C62.505 26.7529 59.586 28.9104 56.2086 29.206L27.4474 31.7223C24.0699 32.0177 20.8206 30.3998 19.0517 27.5485L18.2654 26.2822C16.9629 24.1824 16.2896 21.759 16.3228 19.294C16.3664 16.0753 18.8691 13.4004 22.1218 13.1157Z" fill="#7ACC7A" stroke="#2E3D4D" stroke-linejoin="round"/>
<path d="M64.2166 23.8234C62.8988 27.1158 59.8154 29.3925 56.2519 29.7043L27.4913 32.2205C23.9278 32.5323 20.4959 30.8256 18.6264 27.812C13.2331 17.4068 27.6995 26.1793 42.3557 24.8971C57.0118 23.6149 68.418 13.3265 64.2166 23.8234Z" fill="black" fill-opacity="0.2"/>
<path d="M102.881 11.5L139.119 11.5C142.384 11.5002 145.111 13.9468 145.435 17.1494C145.683 19.6021 145.223 22.075 144.108 24.2803L143.436 25.6104C141.922 28.6049 138.826 30.4999 135.436 30.5L106.564 30.5C103.174 30.4999 100.078 28.6049 98.5645 25.6104L97.8916 24.2803C96.777 22.075 96.3175 19.6021 96.5654 17.1494C96.8894 13.9468 99.6157 11.5002 102.881 11.5Z" fill="#E5675C" stroke="#2E3D4D" stroke-linejoin="round"/>
<path d="M143.882 25.8357C142.282 29.0007 139.012 31 135.435 31L106.565 31C102.988 31 99.7176 29.0007 98.1178 25.8357C93.6519 15 107.299 25 122.011 25C136.723 25 148.982 15.7449 143.882 25.8357Z" fill="black" fill-opacity="0.2"/>
</svg>
