<svg width="262" height="132" viewBox="0 0 262 132" fill="none" xmlns="http://www.w3.org/2000/svg">
<path fill-rule="evenodd" clip-rule="evenodd" d="M16.0386 127.992C15.9961 129.648 17.3431 131 19 131H73C74.6569 131 75.9915 129.655 76.0804 128C77.6381 99.0196 101.631 76 131 76C160.369 76 184.362 99.0196 185.92 128C186.009 129.655 187.343 131 189 131H243C244.657 131 246.004 129.648 245.961 127.992C244.366 65.8694 193.507 16 131 16C68.4931 16 17.6338 65.8694 16.0386 127.992Z" fill="#FFDD99"/>
<path d="M245.961 127.992L245.462 128.005L245.961 127.992ZM185.92 128L185.42 128.027L185.92 128ZM76.0804 128L75.5811 127.973L76.0804 128ZM16.0386 127.992L15.5388 127.979L16.0386 127.992ZM19 131.5H73V130.5H19V131.5ZM131 75.5C101.364 75.5 77.153 98.7289 75.5811 127.973L76.5797 128.027C78.1232 99.3103 101.898 76.5 131 76.5V75.5ZM186.419 127.973C184.847 98.7289 160.636 75.5 131 75.5V76.5C160.102 76.5 183.877 99.3103 185.42 128.027L186.419 127.973ZM189 131.5H243V130.5H189V131.5ZM246.461 127.979C244.859 65.5862 193.779 15.5 131 15.5V16.5C193.235 16.5 243.873 66.1526 245.462 128.005L246.461 127.979ZM131 15.5C68.2213 15.5 17.1409 65.5862 15.5388 127.979L16.5384 128.005C18.1267 66.1526 68.7649 16.5 131 16.5V15.5ZM243 131.5C244.931 131.5 246.511 129.923 246.461 127.979L245.462 128.005C245.497 129.373 244.382 130.5 243 130.5V131.5ZM185.42 128.027C185.523 129.929 187.06 131.5 189 131.5V130.5C187.626 130.5 186.494 129.38 186.419 127.973L185.42 128.027ZM73 131.5C74.9397 131.5 76.4774 129.929 76.5797 128.027L75.5811 127.973C75.5055 129.38 74.374 130.5 73 130.5V131.5ZM19 130.5C17.6177 130.5 16.5033 129.373 16.5384 128.005L15.5388 127.979C15.4888 129.923 17.0686 131.5 19 131.5V130.5Z" fill="#2E3D4D"/>
<path fill-rule="evenodd" clip-rule="evenodd" d="M16.0265 128.507C15.9973 129.879 17.1345 131 18.507 131C19.8783 131 21 129.871 21 128.5C21 69.1294 70.2487 21 131 21C191.751 21 241 69.1294 241 128.5C241 129.871 242.122 131 243.493 131C244.866 131 246.003 129.879 245.974 128.507C244.647 66.1452 193.68 16 131 16C68.3205 16 17.353 66.1452 16.0265 128.507Z" fill="black" fill-opacity="0.1"/>
<path fill-rule="evenodd" clip-rule="evenodd" d="M1.03415 127.991C0.996522 129.647 2.34315 131 4 131H13.0001C14.6569 131 15.9961 129.648 16.0386 127.992C17.634 65.8695 68.4932 16.0002 131 16.0002C193.507 16.0002 244.366 65.8695 245.961 127.992C246.004 129.648 247.343 131 249 131H258C259.657 131 261.003 129.647 260.966 127.991C259.367 57.5836 201.791 1 131 1C60.2088 1 2.63345 57.5836 1.03415 127.991Z" fill="#FFDD99"/>
<path d="M260.966 127.991L261.466 127.979L260.966 127.991ZM245.961 127.992L245.462 128.005L245.961 127.992ZM16.0386 127.992L15.5388 127.979L16.0386 127.992ZM1.03415 127.991L0.534277 127.979L1.03415 127.991ZM4 131.5H13.0001V130.5H4V131.5ZM131 15.5002C68.2214 15.5002 17.1411 65.5863 15.5388 127.979L16.5385 128.005C18.1269 66.1527 68.7651 16.5002 131 16.5002V15.5002ZM246.461 127.979C244.859 65.5863 193.779 15.5002 131 15.5002V16.5002C193.235 16.5002 243.873 66.1527 245.462 128.005L246.461 127.979ZM249 131.5H258V130.5H249V131.5ZM261.466 127.979C259.86 57.3012 202.064 0.5 131 0.5V1.5C201.519 1.5 258.873 57.866 260.466 128.002L261.466 127.979ZM131 0.5C59.9365 0.5 2.13973 57.3012 0.534277 127.979L1.53402 128.002C3.12716 57.866 60.4812 1.5 131 1.5V0.5ZM258 131.5C259.932 131.5 261.51 129.922 261.466 127.979L260.466 128.002C260.497 129.373 259.382 130.5 258 130.5V131.5ZM245.462 128.005C245.511 129.922 247.062 131.5 249 131.5V130.5C247.624 130.5 246.497 129.374 246.461 127.979L245.462 128.005ZM13.0001 131.5C14.9381 131.5 16.4892 129.922 16.5385 128.005L15.5388 127.979C15.503 129.374 14.3757 130.5 13.0001 130.5V131.5ZM4 130.5C2.61837 130.5 1.50289 129.373 1.53402 128.002L0.534277 127.979C0.490158 129.922 2.06792 131.5 4 131.5V130.5Z" fill="#2E3D4D"/>
<g clip-path="url(#clip0_5322_1121)">
<mask id="mask0_5322_1121" style="mask-type:alpha" maskUnits="userSpaceOnUse" x="16" y="16" width="230" height="230">
<path fill-rule="evenodd" clip-rule="evenodd" d="M131 246C194.513 246 246 194.513 246 131C246 67.4873 194.513 16 131 16C67.4873 16 16 67.4873 16 131C16 194.513 67.4873 246 131 246ZM131 186C161.376 186 186 161.376 186 131C186 100.624 161.376 76 131 76C100.624 76 76 100.624 76 131C76 161.376 100.624 186 131 186Z" fill="#D9D9D9"/>
</mask>
<g mask="url(#mask0_5322_1121)">
<path d="M212.317 49.6828L131.106 130.956L246 131L131.106 131.044L212.317 212.317L131.044 131.106L131 246L130.956 131.106L49.6827 212.317L130.894 131.044L16 131L130.894 130.956L49.6827 49.6828L130.956 130.894L131 16L131.044 130.894L212.317 49.6828Z" stroke="#2E3D4D"/>
</g>
</g>
<path d="M21.4896 86.0823L39.6088 54.699C41.2415 51.8714 44.7235 50.7336 47.659 52.0544C49.9071 53.066 51.8189 54.7004 53.1714 56.7683L53.9869 58.016C55.8234 60.8243 55.9165 64.4529 54.2215 67.3891L39.7859 92.3922C38.0906 95.3282 34.9016 97.0619 31.5514 96.8756L30.0631 96.7932C27.5959 96.6558 25.2246 95.8174 23.2245 94.3763C20.6129 92.4944 19.8572 88.9101 21.4896 86.0823Z" fill="#3D9999" stroke="#2E3D4D" stroke-linejoin="round"/>
<path d="M54.4054 57.7419C56.3465 60.7098 56.4429 64.5415 54.6543 67.6394L40.2191 92.6419C38.4306 95.7398 35.0641 97.5721 31.5232 97.375C19.9063 95.8248 35.3899 89.0062 42.746 76.2652C50.1021 63.5241 48.2166 48.2796 54.4054 57.7419Z" fill="black" fill-opacity="0.2"/>
<path d="M84.8017 18.9747L120.248 11.4404C123.442 10.7617 126.617 12.588 127.6 15.6533C128.353 18.0009 128.417 20.5152 127.785 22.904L127.404 24.3449C126.546 27.5888 123.912 30.086 120.595 30.791L92.3551 36.7937C89.0388 37.4984 85.6166 36.2886 83.5133 33.6742L82.5786 32.513C81.0299 30.5877 80.0663 28.2644 79.7988 25.8137C79.4499 22.6137 81.6079 19.6538 84.8017 18.9747Z" fill="#FFBB99" stroke="#2E3D4D" stroke-linejoin="round"/>
<path d="M127.888 24.4725C126.981 27.901 124.198 30.5365 120.699 31.2802L92.4594 37.2827C88.9604 38.0264 85.3461 36.7507 83.1233 33.9874C76.5021 24.3171 91.9299 31.2612 106.32 28.2024C120.711 25.1436 130.778 13.5418 127.888 24.4725Z" fill="black" fill-opacity="0.2"/>
<path d="M141.752 11.4404L177.198 18.9748C180.392 19.6539 182.55 22.6138 182.201 25.8138C181.934 28.2645 180.97 30.5877 179.421 32.5131L178.487 33.6742C176.383 36.2887 172.961 37.4985 169.645 36.7937L141.405 30.7911C138.089 30.0861 135.454 27.5889 134.596 24.345L134.215 22.9041C133.583 20.5153 133.647 18.0009 134.4 15.6533C135.383 12.5881 138.558 10.7618 141.752 11.4404Z" fill="#FAF7F0" stroke="#2E3D4D" stroke-linejoin="round"/>
<path d="M178.877 33.9876C176.654 36.7508 173.04 38.0265 169.541 37.2828L141.301 31.2803C137.802 30.5366 135.019 27.9011 134.112 24.4726C131.997 12.9452 143.267 25.564 157.657 28.6228C172.048 31.6817 185.964 25.1777 178.877 33.9876Z" fill="black" fill-opacity="0.2"/>
<path d="M222.667 55.0586L240.787 86.4419C242.419 89.2697 241.663 92.854 239.052 94.7359C237.052 96.177 234.68 97.0154 232.213 97.1528L230.725 97.2352C227.375 97.4215 224.186 95.6878 222.49 92.7518L208.055 67.7487C206.36 64.8125 206.453 61.1839 208.289 58.3757L209.105 57.1279C210.457 55.06 212.369 53.4256 214.617 52.414C217.553 51.0933 221.035 52.231 222.667 55.0586Z" fill="#7ACC7A" stroke="#2E3D4D" stroke-linejoin="round"/>
<path d="M230.753 97.7346C227.212 97.9317 223.846 96.0994 222.057 93.0015L207.622 67.999C205.833 64.9011 205.93 61.0695 207.871 58.1015C215.022 48.8161 213.185 65.6346 220.541 78.3757C227.897 91.1168 242.042 97.1062 230.753 97.7346Z" fill="black" fill-opacity="0.2"/>
<defs>
<clipPath id="clip0_5322_1121">
<rect width="230" height="114" fill="white" transform="translate(16 16)"/>
</clipPath>
</defs>
</svg>
