<svg width="207" height="147" viewBox="0 0 207 147" fill="none" xmlns="http://www.w3.org/2000/svg">
<path d="M16 79C16 77.3431 17.3431 76 19 76H73C74.6569 76 76 77.3431 76 79V133C76 134.657 74.6569 136 73 136H19C17.3431 136 16 134.657 16 133V79Z" fill="#FFDD99"/>
<path d="M19 76.5H73V75.5H19V76.5ZM75.5 79V133H76.5V79H75.5ZM73 135.5H19V136.5H73V135.5ZM16.5 133V79H15.5V133H16.5ZM19 135.5C17.6193 135.5 16.5 134.381 16.5 133H15.5C15.5 134.933 17.067 136.5 19 136.5V135.5ZM75.5 133C75.5 134.381 74.3807 135.5 73 135.5V136.5C74.933 136.5 76.5 134.933 76.5 133H75.5ZM73 76.5C74.3807 76.5 75.5 77.6193 75.5 79H76.5C76.5 77.067 74.933 75.5 73 75.5V76.5ZM19 75.5C17.067 75.5 15.5 77.067 15.5 79H16.5C16.5 77.6193 17.6193 76.5 19 76.5V75.5Z" fill="#2E3D4D"/>
<path d="M16 19C16 17.3431 17.3431 16 19 16H73C74.6568 16 76 17.3431 76 19V73C76 74.6569 74.6568 76 73 76H19C17.3431 76 16 74.6569 16 73V19Z" fill="#FFDD99" stroke="#2E3D4D"/>
<path d="M76 19C76 17.3431 77.3431 16 79 16H133C134.657 16 136 17.3431 136 19V73C136 74.6569 134.657 76 133 76H79C77.3431 76 76 74.6569 76 73V19Z" fill="#FFDD99"/>
<path d="M79 16.5H133V15.5H79V16.5ZM135.5 19V73H136.5V19H135.5ZM133 75.5H79V76.5H133V75.5ZM76.5 73V19H75.5V73H76.5ZM79 75.5C77.6193 75.5 76.5 74.3807 76.5 73H75.5C75.5 74.933 77.067 76.5 79 76.5V75.5ZM135.5 73C135.5 74.3807 134.381 75.5 133 75.5V76.5C134.933 76.5 136.5 74.933 136.5 73H135.5ZM133 16.5C134.381 16.5 135.5 17.6193 135.5 19H136.5C136.5 17.067 134.933 15.5 133 15.5V16.5ZM79 15.5C77.067 15.5 75.5 17.067 75.5 19H76.5C76.5 17.6193 77.6193 16.5 79 16.5V15.5Z" fill="#2E3D4D"/>
<path d="M136 19C136 17.3431 137.343 16 139 16H193C194.657 16 196 17.3431 196 19V73C196 74.6569 194.657 76 193 76H139C137.343 76 136 74.6569 136 73V19Z" fill="#FFDD99"/>
<path d="M139 16.5H193V15.5H139V16.5ZM195.5 19V73H196.5V19H195.5ZM193 75.5H139V76.5H193V75.5ZM136.5 73V19H135.5V73H136.5ZM139 75.5C137.619 75.5 136.5 74.3807 136.5 73H135.5C135.5 74.933 137.067 76.5 139 76.5V75.5ZM195.5 73C195.5 74.3807 194.381 75.5 193 75.5V76.5C194.933 76.5 196.5 74.933 196.5 73H195.5ZM193 16.5C194.381 16.5 195.5 17.6193 195.5 19H196.5C196.5 17.067 194.933 15.5 193 15.5V16.5ZM139 15.5C137.067 15.5 135.5 17.067 135.5 19H136.5C136.5 17.6193 137.619 16.5 139 16.5V15.5Z" fill="#2E3D4D"/>
<path d="M16.2863 135.714H73.2863C74.9431 135.714 76.3501 134.257 75.4134 132.89C74.5125 131.576 73.0001 130.714 71.2863 130.714H31.2863C28.5248 130.714 26.2863 128.475 26.2863 125.714L26.2863 80.7136C26.2863 77.9522 28.5248 75.7136 31.2863 75.7136L16.2863 75.7136L16.2863 135.714Z" fill="black" fill-opacity="0.2"/>
<path d="M16 16H76V31C76 28.2386 73.7614 26 71 26H31C28.2386 26 26 28.2386 26 31L26 71C26 73.7614 28.2386 76 31 76H16L16 16Z" fill="black" fill-opacity="0.2"/>
<path d="M136 16H76V31C76 28.2386 78.2386 26 81 26H131C133.761 26 136 28.2386 136 31V16Z" fill="black" fill-opacity="0.2"/>
<path d="M196 16V73C196 74.6569 194.543 76.0639 193.177 75.1272C191.862 74.2263 191 72.7138 191 71V31C191 28.2386 188.761 26 186 26H141C138.239 26 136 28.2386 136 31V16H196Z" fill="black" fill-opacity="0.2"/>
<path d="M6 136H73C74.6569 136 76 137.343 76 139V143C76 144.657 74.6569 146 73 146H9C7.34315 146 6 144.657 6 143V136Z" fill="#FFDD99" stroke="#2E3D4D"/>
<path d="M196 6H203C204.657 6 206 7.34315 206 9V73C206 74.6569 204.657 76 203 76H199C197.343 76 196 74.6569 196 73V6Z" fill="#FFDD99" stroke="#2E3D4D"/>
<path d="M6 9C6 7.34315 7.34315 6 9 6H16V13C16 14.6569 14.6569 16 13 16H6V9Z" fill="#FFDD99" stroke="#2E3D4D"/>
<path d="M1 79C1 77.3431 2.34315 76 4 76H13C14.6569 76 16 77.3431 16 79V133C16 134.657 14.6569 136 13 136H4C2.34315 136 1 134.657 1 133V79Z" fill="#FFDD99"/>
<path d="M4 76.5H13V75.5H4V76.5ZM15.5 79V133H16.5V79H15.5ZM13 135.5H4V136.5H13V135.5ZM1.5 133V79H0.5V133H1.5ZM4 135.5C2.61929 135.5 1.5 134.381 1.5 133H0.5C0.5 134.933 2.067 136.5 4 136.5V135.5ZM15.5 133C15.5 134.381 14.3807 135.5 13 135.5V136.5C14.933 136.5 16.5 134.933 16.5 133H15.5ZM13 76.5C14.3807 76.5 15.5 77.6193 15.5 79H16.5C16.5 77.067 14.933 75.5 13 75.5V76.5ZM4 75.5C2.067 75.5 0.5 77.067 0.5 79H1.5C1.5 77.6193 2.61929 76.5 4 76.5V75.5Z" fill="#2E3D4D"/>
<path d="M1 19C1 17.3431 2.34315 16 4 16H13C14.6569 16 16 17.3431 16 19V73C16 74.6569 14.6569 76 13 76H4C2.34315 76 1 74.6569 1 73V19Z" fill="#FFDD99" stroke="#2E3D4D"/>
<path d="M16 4C16 2.34315 17.3431 1 19 1H73C74.6569 1 76 2.34315 76 4V13C76 14.6569 74.6569 16 73 16H19C17.3431 16 16 14.6569 16 13V4Z" fill="#FFDD99" stroke="#2E3D4D"/>
<path d="M76 4C76 2.34315 77.3431 1 79 1H133C134.657 1 136 2.34315 136 4V13C136 14.6569 134.657 16 133 16H79C77.3431 16 76 14.6569 76 13V4Z" fill="#FFDD99"/>
<path d="M79 1.5H133V0.5H79V1.5ZM135.5 4V13H136.5V4H135.5ZM133 15.5H79V16.5H133V15.5ZM76.5 13V4H75.5V13H76.5ZM79 15.5C77.6193 15.5 76.5 14.3807 76.5 13H75.5C75.5 14.933 77.067 16.5 79 16.5V15.5ZM135.5 13C135.5 14.3807 134.381 15.5 133 15.5V16.5C134.933 16.5 136.5 14.933 136.5 13H135.5ZM133 1.5C134.381 1.5 135.5 2.61929 135.5 4H136.5C136.5 2.067 134.933 0.5 133 0.5V1.5ZM79 0.5C77.067 0.5 75.5 2.067 75.5 4H76.5C76.5 2.61929 77.6193 1.5 79 1.5V0.5Z" fill="#2E3D4D"/>
<path d="M136 4C136 2.34315 137.343 1 139 1H193C194.657 1 196 2.34315 196 4V13C196 14.6569 194.657 16 193 16H139C137.343 16 136 14.6569 136 13V4Z" fill="#FFDD99"/>
<path d="M139 1.5H193V0.5H139V1.5ZM195.5 4V13H196.5V4H195.5ZM193 15.5H139V16.5H193V15.5ZM136.5 13V4H135.5V13H136.5ZM139 15.5C137.619 15.5 136.5 14.3807 136.5 13H135.5C135.5 14.933 137.067 16.5 139 16.5V15.5ZM195.5 13C195.5 14.3807 194.381 15.5 193 15.5V16.5C194.933 16.5 196.5 14.933 196.5 13H195.5ZM193 1.5C194.381 1.5 195.5 2.61929 195.5 4H196.5C196.5 2.067 194.933 0.5 193 0.5V1.5ZM139 0.5C137.067 0.5 135.5 2.067 135.5 4H136.5C136.5 2.61929 137.619 1.5 139 1.5V0.5Z" fill="#2E3D4D"/>
<path d="M6 136H16L16 76L6 76C8.76142 76 11 78.2386 11 81L11 131C11 133.761 8.76143 136 6 136Z" fill="black" fill-opacity="0.2"/>
<path d="M6 76H16L16 16L6 16C8.76142 16 11 18.2386 11 21L11 71C11 73.7614 8.76143 76 6 76Z" fill="black" fill-opacity="0.2"/>
<path d="M76 6V16H136V6C136 8.76142 133.761 11 131 11H81C78.2386 11 76 8.76142 76 6Z" fill="black" fill-opacity="0.2"/>
<path d="M16 6V16H76V6C76 8.76142 73.7614 11 71 11H21C18.2386 11 16 8.76142 16 6Z" fill="black" fill-opacity="0.2"/>
<path d="M136 6V16H196V6C196 8.76142 193.761 11 191 11H141C138.239 11 136 8.76142 136 6Z" fill="black" fill-opacity="0.2"/>
<path d="M153.778 9.95693L189.878 13.1153C193.131 13.4001 195.634 16.075 195.677 19.2937C195.71 21.7587 195.037 24.182 193.735 26.2818L192.948 27.5482C191.179 30.3994 187.93 32.0173 184.553 31.722L155.791 29.2057C152.414 28.9101 149.495 26.7525 148.248 23.6374L147.694 22.2537C146.776 19.9597 146.533 17.4562 146.994 15.0344C147.596 11.8722 150.525 9.67255 153.778 9.95693Z" fill="#707EC2" stroke="#2E3D4D" stroke-linejoin="round"/>
<path d="M193.374 27.8116C191.504 30.8251 188.072 32.5318 184.509 32.22L155.748 29.7038C152.185 29.3921 149.101 27.1154 147.783 23.8229C144.279 12.6393 157.002 23.7906 171.658 25.0729C186.315 26.3551 199.334 18.2037 193.374 27.8116Z" fill="black" fill-opacity="0.2"/>
<path d="M87.8808 11.5H124.119C127.384 11.5002 130.111 13.9468 130.435 17.1494C130.682 19.6021 130.223 22.075 129.108 24.2803L128.436 25.6104C126.922 28.6049 123.826 30.4999 120.436 30.5H91.5644C88.1741 30.4999 85.0782 28.6049 83.5644 25.6104L82.8916 24.2803C81.777 22.075 81.3175 19.6021 81.5654 17.1494C81.8894 13.9468 84.6157 11.5002 87.8808 11.5Z" fill="#FFBB99" stroke="#2E3D4D" stroke-linejoin="round"/>
<path d="M128.882 25.8357C127.282 29.0007 124.012 31 120.435 31H91.5648C87.9876 31 84.7175 29.0007 83.1178 25.8357C78.6519 15 92.2988 25 107.011 25C121.723 25 133.982 15.7449 128.882 25.8357Z" fill="black" fill-opacity="0.2"/>
<path d="M18.1153 129.878L14.9569 93.7775C14.6726 90.5247 16.8722 87.5956 20.0344 86.9937C22.4562 86.5329 24.9597 86.7752 27.2537 87.6933L28.6374 88.2477C31.7525 89.4947 33.9101 92.4137 34.2057 95.7911L36.722 124.552C37.0173 127.93 35.3994 131.179 32.5482 132.948L31.2818 133.734C29.182 135.037 26.7587 135.71 24.2937 135.677C21.075 135.633 18.4001 133.131 18.1153 129.878Z" fill="#FAF7F0" stroke="#2E3D4D" stroke-linejoin="round"/>
<path d="M28.823 87.7832C32.1154 89.101 34.3921 92.1844 34.7038 95.7479L37.2201 124.508C37.5318 128.072 35.8252 131.504 32.8116 133.373C22.4064 138.767 31.1789 124.3 29.8967 109.644C28.6144 94.988 18.3261 83.5818 28.823 87.7832Z" fill="black" fill-opacity="0.2"/>
<path d="M22.1218 13.1156L58.2222 9.95718C61.475 9.67279 64.4041 11.8725 65.006 15.0347C65.4668 17.4565 65.2245 19.9599 64.3064 22.254L63.752 23.6376C62.505 26.7527 59.586 28.9103 56.2086 29.2059L27.4474 31.7222C24.0699 32.0176 20.8206 30.3997 19.0517 27.5484L18.2654 26.282C16.9629 24.1823 16.2896 21.7589 16.3228 19.2939C16.3664 16.0752 18.8691 13.4003 22.1218 13.1156Z" fill="#7ACC7A" stroke="#2E3D4D" stroke-linejoin="round"/>
<path d="M64.2166 23.8232C62.8988 27.1156 59.8154 29.3923 56.2519 29.704L27.4913 32.2203C23.9278 32.532 20.4959 30.8254 18.6264 27.8118C13.2331 17.4066 27.6995 26.1791 42.3557 24.8969C57.0118 23.6146 68.418 13.3263 64.2166 23.8232Z" fill="black" fill-opacity="0.2"/>
</svg>
