<svg width="202" height="77" viewBox="0 0 202 77" fill="none" xmlns="http://www.w3.org/2000/svg">
<path d="M131 19C131 17.3431 132.343 16 134 16H188C189.657 16 191 17.3431 191 19V73C191 74.6569 189.657 76 188 76H134C132.343 76 131 74.6569 131 73V19Z" fill="#FFDD99"/>
<path d="M134 16.5H188V15.5H134V16.5ZM190.5 19V73H191.5V19H190.5ZM188 75.5H134V76.5H188V75.5ZM131.5 73V19H130.5V73H131.5ZM134 75.5C132.619 75.5 131.5 74.3807 131.5 73H130.5C130.5 74.933 132.067 76.5 134 76.5V75.5ZM190.5 73C190.5 74.3807 189.381 75.5 188 75.5V76.5C189.933 76.5 191.5 74.933 191.5 73H190.5ZM188 16.5C189.381 16.5 190.5 17.6193 190.5 19H191.5C191.5 17.067 189.933 15.5 188 15.5V16.5ZM134 15.5C132.067 15.5 130.5 17.067 130.5 19H131.5C131.5 17.6193 132.619 16.5 134 16.5V15.5Z" fill="#2E3D4D"/>
<path d="M191 16V72.5901C191 74.235 189.543 75.6319 188.177 74.7019C186.862 73.8075 186 72.306 186 70.6044V30.8921C186 28.1506 183.761 25.9281 181 25.9281H136C133.239 25.9281 131 28.1506 131 30.8921V16H191Z" fill="black" fill-opacity="0.2"/>
<path d="M178 36H174M176 38L176 34" stroke="black" stroke-opacity="0.2" stroke-linecap="round"/>
<path d="M148 36H144M146 38L146 34" stroke="black" stroke-opacity="0.2" stroke-linecap="round"/>
<path d="M178 61H174M176 63L176 59" stroke="black" stroke-opacity="0.2" stroke-linecap="round"/>
<path d="M148 61H144M146 63L146 59" stroke="black" stroke-opacity="0.2" stroke-linecap="round"/>
<path d="M71 19C71 17.3431 72.3431 16 74 16H128C129.657 16 131 17.3431 131 19V73C131 74.6569 129.657 76 128 76H74C72.3431 76 71 74.6569 71 73V19Z" fill="#FFDD99"/>
<path d="M74 16.5H128V15.5H74V16.5ZM130.5 19V73H131.5V19H130.5ZM128 75.5H74V76.5H128V75.5ZM71.5 73V19H70.5V73H71.5ZM74 75.5C72.6193 75.5 71.5 74.3807 71.5 73H70.5C70.5 74.933 72.067 76.5 74 76.5V75.5ZM130.5 73C130.5 74.3807 129.381 75.5 128 75.5V76.5C129.933 76.5 131.5 74.933 131.5 73H130.5ZM128 16.5C129.381 16.5 130.5 17.6193 130.5 19H131.5C131.5 17.067 129.933 15.5 128 15.5V16.5ZM74 15.5C72.067 15.5 70.5 17.067 70.5 19H71.5C71.5 17.6193 72.6193 16.5 74 16.5V15.5Z" fill="#2E3D4D"/>
<path d="M131 16H71V31C71 28.2386 73.2386 26 76 26H126C128.761 26 131 28.2386 131 31V16Z" fill="black" fill-opacity="0.2"/>
<path d="M118 36H114M116 38L116 34" stroke="black" stroke-opacity="0.2" stroke-linecap="round"/>
<path d="M88 36H84M86 38L86 34" stroke="black" stroke-opacity="0.2" stroke-linecap="round"/>
<path d="M118 61H114M116 63L116 59" stroke="black" stroke-opacity="0.2" stroke-linecap="round"/>
<path d="M88 61H84M86 63L86 59" stroke="black" stroke-opacity="0.2" stroke-linecap="round"/>
<path d="M11 19C11 17.3431 12.3431 16 14 16H68C69.6569 16 71 17.3431 71 19V73C71 74.6569 69.6569 76 68 76H14C12.3431 76 11 74.6569 11 73V19Z" fill="#FFDD99"/>
<path d="M14 16.5H68V15.5H14V16.5ZM70.5 19V73H71.5V19H70.5ZM68 75.5H14V76.5H68V75.5ZM11.5 73V19H10.5V73H11.5ZM14 75.5C12.6193 75.5 11.5 74.3807 11.5 73H10.5C10.5 74.933 12.067 76.5 14 76.5V75.5ZM70.5 73C70.5 74.3807 69.3807 75.5 68 75.5V76.5C69.933 76.5 71.5 74.933 71.5 73H70.5ZM68 16.5C69.3807 16.5 70.5 17.6193 70.5 19H71.5C71.5 17.067 69.933 15.5 68 15.5V16.5ZM14 15.5C12.067 15.5 10.5 17.067 10.5 19H11.5C11.5 17.6193 12.6193 16.5 14 16.5V15.5Z" fill="#2E3D4D"/>
<path d="M11 16V73C11 74.6569 12.4567 76.0639 13.8233 75.1272C15.1377 74.2263 16 72.7138 16 71V31C16 28.2386 18.2386 26 21 26H66C68.7614 26 71 28.2386 71 31V16H11Z" fill="black" fill-opacity="0.2"/>
<path d="M58 36H54M56 38L56 34" stroke="black" stroke-opacity="0.2" stroke-linecap="round"/>
<path d="M28 36H24M26 38L26 34" stroke="black" stroke-opacity="0.2" stroke-linecap="round"/>
<path d="M58 61H54M56 63L56 59" stroke="black" stroke-opacity="0.2" stroke-linecap="round"/>
<path d="M28 61H24M26 63L26 59" stroke="black" stroke-opacity="0.2" stroke-linecap="round"/>
<path d="M131 4C131 2.34315 132.343 1 134 1H188C189.657 1 191 2.34315 191 4V13C191 14.6569 189.657 16 188 16H134C132.343 16 131 14.6569 131 13V4Z" fill="#FFDD99"/>
<path d="M134 1.5H188V0.5H134V1.5ZM190.5 4V13H191.5V4H190.5ZM188 15.5H134V16.5H188V15.5ZM131.5 13V4H130.5V13H131.5ZM134 15.5C132.619 15.5 131.5 14.3807 131.5 13H130.5C130.5 14.933 132.067 16.5 134 16.5V15.5ZM190.5 13C190.5 14.3807 189.381 15.5 188 15.5V16.5C189.933 16.5 191.5 14.933 191.5 13H190.5ZM188 1.5C189.381 1.5 190.5 2.61929 190.5 4H191.5C191.5 2.067 189.933 0.5 188 0.5V1.5ZM134 0.5C132.067 0.5 130.5 2.067 130.5 4H131.5C131.5 2.61929 132.619 1.5 134 1.5V0.5Z" fill="#2E3D4D"/>
<path d="M71 4C71 2.34315 72.3431 1 74 1H128C129.657 1 131 2.34315 131 4V13C131 14.6569 129.657 16 128 16H74C72.3431 16 71 14.6569 71 13V4Z" fill="#FFDD99"/>
<path d="M74 1.5H128V0.5H74V1.5ZM130.5 4V13H131.5V4H130.5ZM128 15.5H74V16.5H128V15.5ZM71.5 13V4H70.5V13H71.5ZM74 15.5C72.6193 15.5 71.5 14.3807 71.5 13H70.5C70.5 14.933 72.067 16.5 74 16.5V15.5ZM130.5 13C130.5 14.3807 129.381 15.5 128 15.5V16.5C129.933 16.5 131.5 14.933 131.5 13H130.5ZM128 1.5C129.381 1.5 130.5 2.61929 130.5 4H131.5C131.5 2.067 129.933 0.5 128 0.5V1.5ZM74 0.5C72.067 0.5 70.5 2.067 70.5 4H71.5C71.5 2.61929 72.6193 1.5 74 1.5V0.5Z" fill="#2E3D4D"/>
<path d="M11 4C11 2.34315 12.3431 1 14 1H68C69.6569 1 71 2.34315 71 4V13C71 14.6569 69.6569 16 68 16H14C12.3431 16 11 14.6569 11 13V4Z" fill="#FFDD99"/>
<path d="M14 1.5H68V0.5H14V1.5ZM70.5 4V13H71.5V4H70.5ZM68 15.5H14V16.5H68V15.5ZM11.5 13V4H10.5V13H11.5ZM14 15.5C12.6193 15.5 11.5 14.3807 11.5 13H10.5C10.5 14.933 12.067 16.5 14 16.5V15.5ZM70.5 13C70.5 14.3807 69.3807 15.5 68 15.5V16.5C69.933 16.5 71.5 14.933 71.5 13H70.5ZM68 1.5C69.3807 1.5 70.5 2.61929 70.5 4H71.5C71.5 2.067 69.933 0.5 68 0.5V1.5ZM14 0.5C12.067 0.5 10.5 2.067 10.5 4H11.5C11.5 2.61929 12.6193 1.5 14 1.5V0.5Z" fill="#2E3D4D"/>
<path d="M131 6V16H191V6C191 8.76142 188.761 11 186 11H136C133.239 11 131 8.76142 131 6Z" fill="black" fill-opacity="0.2"/>
<path d="M71 6V16H131V6C131 8.76142 128.761 11 126 11H76C73.2386 11 71 8.76142 71 6Z" fill="black" fill-opacity="0.2"/>
<path d="M11 6V16H71V6C71 8.76142 68.7614 11 66 11H16C13.2386 11 11 8.76142 11 6Z" fill="black" fill-opacity="0.2"/>
<path d="M1 9C1 7.34315 2.34315 6 4 6H11V73C11 74.6569 9.65685 76 8 76H4C2.34315 76 1 74.6569 1 73V9Z" fill="#FFDD99"/>
<path d="M11 6H11.5V5.5H11V6ZM4 6.5H11V5.5H4V6.5ZM10.5 6V73H11.5V6H10.5ZM8 75.5H4V76.5H8V75.5ZM1.5 73V9H0.5V73H1.5ZM4 75.5C2.61929 75.5 1.5 74.3807 1.5 73H0.5C0.5 74.933 2.067 76.5 4 76.5V75.5ZM10.5 73C10.5 74.3807 9.38071 75.5 8 75.5V76.5C9.933 76.5 11.5 74.933 11.5 73H10.5ZM4 5.5C2.067 5.5 0.5 7.06701 0.5 9H1.5C1.5 7.61929 2.61929 6.5 4 6.5V5.5Z" fill="#2E3D4D"/>
<path d="M191 6H198C199.657 6 201 7.34315 201 9V73C201 74.6569 199.657 76 198 76H194C192.343 76 191 74.6569 191 73V6Z" fill="#FFDD99"/>
<path d="M191 6V5.5H190.5V6H191ZM191 6.5H198V5.5H191V6.5ZM200.5 9V73H201.5V9H200.5ZM198 75.5H194V76.5H198V75.5ZM191.5 73V6H190.5V73H191.5ZM194 75.5C192.619 75.5 191.5 74.3807 191.5 73H190.5C190.5 74.933 192.067 76.5 194 76.5V75.5ZM200.5 73C200.5 74.3807 199.381 75.5 198 75.5V76.5C199.933 76.5 201.5 74.933 201.5 73H200.5ZM198 6.5C199.381 6.5 200.5 7.61929 200.5 9H201.5C201.5 7.067 199.933 5.5 198 5.5V6.5Z" fill="#2E3D4D"/>
<path d="M148.778 9.95693L184.878 13.1153C188.131 13.4001 190.634 16.075 190.677 19.2937C190.71 21.7587 190.037 24.182 188.735 26.2818L187.948 27.5482C186.179 30.3994 182.93 32.0173 179.553 31.722L150.791 29.2057C147.414 28.9101 144.495 26.7525 143.248 23.6374L142.694 22.2537C141.776 19.9597 141.533 17.4562 141.994 15.0344C142.596 11.8722 145.525 9.67255 148.778 9.95693Z" fill="#707EC2" stroke="#2E3D4D" stroke-linejoin="round"/>
<path d="M188.374 27.8116C186.504 30.8251 183.072 32.5318 179.509 32.22L150.748 29.7038C147.185 29.3921 144.101 27.1154 142.783 23.8229C139.279 12.6393 152.002 23.7906 166.658 25.0729C181.315 26.3551 194.334 18.2037 188.374 27.8116Z" fill="black" fill-opacity="0.2"/>
<path d="M82.8808 11.5H119.119C122.384 11.5002 125.111 13.9468 125.435 17.1494C125.682 19.6021 125.223 22.075 124.108 24.2803L123.436 25.6104C121.922 28.6049 118.826 30.4999 115.436 30.5H86.5644C83.1741 30.4999 80.0782 28.6049 78.5644 25.6104L77.8916 24.2803C76.777 22.075 76.3175 19.6021 76.5654 17.1494C76.8894 13.9468 79.6157 11.5002 82.8808 11.5Z" fill="#FFBB99" stroke="#2E3D4D" stroke-linejoin="round"/>
<path d="M123.882 25.8357C122.282 29.0007 119.012 31 115.435 31H86.5648C82.9876 31 79.7175 29.0007 78.1178 25.8357C73.6519 15 87.2988 25 102.011 25C116.723 25 128.982 15.7449 123.882 25.8357Z" fill="black" fill-opacity="0.2"/>
<path d="M17.1218 13.1154L53.2222 9.95706C56.475 9.67267 59.4041 11.8723 60.006 15.0345C60.4668 17.4563 60.2245 19.9598 59.3064 22.2539L58.752 23.6375C57.505 26.7526 54.586 28.9102 51.2086 29.2058L22.4474 31.7221C19.0699 32.0175 15.8206 30.3995 14.0517 27.5483L13.2654 26.2819C11.9629 24.1821 11.2896 21.7588 11.3228 19.2938C11.3664 16.0751 13.8691 13.4002 17.1218 13.1154Z" fill="#7ACC7A" stroke="#2E3D4D" stroke-linejoin="round"/>
<path d="M59.2166 23.823C57.8988 27.1155 54.8154 29.3921 51.2519 29.7039L22.4913 32.2201C18.9278 32.5319 15.4959 30.8252 13.6264 27.8117C8.23307 17.4065 22.6995 26.179 37.3557 24.8967C52.0118 23.6145 63.418 13.3261 59.2166 23.823Z" fill="black" fill-opacity="0.2"/>
</svg>
