<svg width="207" height="267" viewBox="0 0 207 267" fill="none" xmlns="http://www.w3.org/2000/svg">
<path d="M16 199C16 197.343 17.3431 196 19 196H133C134.657 196 136 197.343 136 199V263C136 264.657 134.657 266 133 266H19C17.3431 266 16 264.657 16 263V199Z" fill="#FFDD99"/>
<path d="M19 196.5H133V195.5H19V196.5ZM135.5 199V263H136.5V199H135.5ZM133 265.5H19V266.5H133V265.5ZM16.5 263V199H15.5V263H16.5ZM19 265.5C17.6193 265.5 16.5 264.381 16.5 263H15.5C15.5 264.933 17.067 266.5 19 266.5V265.5ZM135.5 263C135.5 264.381 134.381 265.5 133 265.5V266.5C134.933 266.5 136.5 264.933 136.5 263H135.5ZM133 196.5C134.381 196.5 135.5 197.619 135.5 199H136.5C136.5 197.067 134.933 195.5 133 195.5V196.5ZM19 195.5C17.067 195.5 15.5 197.067 15.5 199H16.5C16.5 197.619 17.6193 196.5 19 196.5V195.5Z" fill="#2E3D4D"/>
<path d="M16 139C16 137.343 17.3431 136 19 136H73C74.6569 136 76 137.343 76 139V193C76 194.657 74.6569 196 73 196H19C17.3431 196 16 194.657 16 193V139Z" fill="#FFDD99"/>
<path d="M19 136.5H73V135.5H19V136.5ZM75.5 139V193H76.5V139H75.5ZM73 195.5H19V196.5H73V195.5ZM16.5 193V139H15.5V193H16.5ZM19 195.5C17.6193 195.5 16.5 194.381 16.5 193H15.5C15.5 194.933 17.067 196.5 19 196.5V195.5ZM75.5 193C75.5 194.381 74.3807 195.5 73 195.5V196.5C74.933 196.5 76.5 194.933 76.5 193H75.5ZM73 136.5C74.3807 136.5 75.5 137.619 75.5 139H76.5C76.5 137.067 74.933 135.5 73 135.5V136.5ZM19 135.5C17.067 135.5 15.5 137.067 15.5 139H16.5C16.5 137.619 17.6193 136.5 19 136.5V135.5Z" fill="#2E3D4D"/>
<path d="M16 79C16 77.3431 17.3431 76 19 76H73C74.6569 76 76 77.3431 76 79V133C76 134.657 74.6569 136 73 136H19C17.3431 136 16 134.657 16 133V79Z" fill="#FFDD99"/>
<path d="M19 76.5H73V75.5H19V76.5ZM75.5 79V133H76.5V79H75.5ZM73 135.5H19V136.5H73V135.5ZM16.5 133V79H15.5V133H16.5ZM19 135.5C17.6193 135.5 16.5 134.381 16.5 133H15.5C15.5 134.933 17.067 136.5 19 136.5V135.5ZM75.5 133C75.5 134.381 74.3807 135.5 73 135.5V136.5C74.933 136.5 76.5 134.933 76.5 133H75.5ZM73 76.5C74.3807 76.5 75.5 77.6193 75.5 79H76.5C76.5 77.067 74.933 75.5 73 75.5V76.5ZM19 75.5C17.067 75.5 15.5 77.067 15.5 79H16.5C16.5 77.6193 17.6193 76.5 19 76.5V75.5Z" fill="#2E3D4D"/>
<path d="M16 19C16 17.3431 17.3431 16 19 16H73C74.6569 16 76 17.3431 76 19V73C76 74.6569 74.6569 76 73 76H19C17.3431 76 16 74.6569 16 73V19Z" fill="#FFDD99" stroke="#2E3D4D"/>
<path d="M76 19C76 17.3431 77.3431 16 79 16H133C134.657 16 136 17.3431 136 19V73C136 74.6569 134.657 76 133 76H79C77.3431 76 76 74.6569 76 73V19Z" fill="#FFDD99"/>
<path d="M79 16.5H133V15.5H79V16.5ZM135.5 19V73H136.5V19H135.5ZM133 75.5H79V76.5H133V75.5ZM76.5 73V19H75.5V73H76.5ZM79 75.5C77.6193 75.5 76.5 74.3807 76.5 73H75.5C75.5 74.933 77.067 76.5 79 76.5V75.5ZM135.5 73C135.5 74.3807 134.381 75.5 133 75.5V76.5C134.933 76.5 136.5 74.933 136.5 73H135.5ZM133 16.5C134.381 16.5 135.5 17.6193 135.5 19H136.5C136.5 17.067 134.933 15.5 133 15.5V16.5ZM79 15.5C77.067 15.5 75.5 17.067 75.5 19H76.5C76.5 17.6193 77.6193 16.5 79 16.5V15.5Z" fill="#2E3D4D"/>
<path d="M136 19C136 17.3431 137.343 16 139 16H193C194.657 16 196 17.3431 196 19V73C196 74.6569 194.657 76 193 76H139C137.343 76 136 74.6569 136 73V19Z" fill="#FFDD99"/>
<path d="M139 16.5H193V15.5H139V16.5ZM195.5 19V73H196.5V19H195.5ZM193 75.5H139V76.5H193V75.5ZM136.5 73V19H135.5V73H136.5ZM139 75.5C137.619 75.5 136.5 74.3807 136.5 73H135.5C135.5 74.933 137.067 76.5 139 76.5V75.5ZM195.5 73C195.5 74.3807 194.381 75.5 193 75.5V76.5C194.933 76.5 196.5 74.933 196.5 73H195.5ZM193 16.5C194.381 16.5 195.5 17.6193 195.5 19H196.5C196.5 17.067 194.933 15.5 193 15.5V16.5ZM139 15.5C137.067 15.5 135.5 17.067 135.5 19H136.5C136.5 17.6193 137.619 16.5 139 16.5V15.5Z" fill="#2E3D4D"/>
<path d="M16 256H73C74.6569 256 76.0639 254.543 75.1272 253.177C74.2263 251.862 72.7138 251 71 251H31C28.2386 251 26 248.761 26 246L26 201C26 198.239 28.2386 196 31 196L16 196L16 256Z" fill="black" fill-opacity="0.2"/>
<path d="M16 136L16 196H31C28.2386 196 26 193.761 26 191L26 141C26 138.239 28.2386 136 31 136L16 136Z" fill="black" fill-opacity="0.2"/>
<path d="M16 76L16 136H31C28.2386 136 26 133.761 26 131L26 81C26 78.2386 28.2386 76 31 76L16 76Z" fill="black" fill-opacity="0.2"/>
<path d="M16 16H76V31C76 28.2386 73.7614 26 71 26H31C28.2386 26 26 28.2386 26 31L26 71C26 73.7614 28.2386 76 31 76H16L16 16Z" fill="black" fill-opacity="0.2"/>
<path d="M136 16H76V31C76 28.2386 78.2386 26 81 26H131C133.761 26 136 28.2386 136 31V16Z" fill="black" fill-opacity="0.2"/>
<path d="M196 16V73C196 74.6569 194.543 76.0639 193.177 75.1272C191.862 74.2263 191 72.7138 191 71V31C191 28.2386 188.761 26 186 26H141C138.239 26 136 28.2386 136 31V16H196Z" fill="black" fill-opacity="0.2"/>
<path d="M196 6L203 6C204.657 6 206 7.34315 206 9L206 73C206 74.6569 204.657 76 203 76H199C197.343 76 196 74.6569 196 73L196 6Z" fill="#FFDD99" stroke="#2E3D4D"/>
<path d="M9 266C7.34315 266 6 264.657 6 263V256L73 256C74.6569 256 76 257.343 76 259V263C76 264.657 74.6569 266 73 266L9 266Z" fill="#FFDD99" stroke="#2E3D4D"/>
<path d="M6 9C6 7.34315 7.34315 6 9 6H16V13C16 14.6569 14.6569 16 13 16H6V9Z" fill="#FFDD99" stroke="#2E3D4D"/>
<path d="M1 139C1 137.343 2.34315 136 4 136H13C14.6569 136 16 137.343 16 139V193C16 194.657 14.6569 196 13 196H4C2.34315 196 1 194.657 1 193V139Z" fill="#FFDD99"/>
<path d="M4 136.5H13V135.5H4V136.5ZM15.5 139V193H16.5V139H15.5ZM13 195.5H4V196.5H13V195.5ZM1.5 193V139H0.5V193H1.5ZM4 195.5C2.61929 195.5 1.5 194.381 1.5 193H0.5C0.5 194.933 2.067 196.5 4 196.5V195.5ZM15.5 193C15.5 194.381 14.3807 195.5 13 195.5V196.5C14.933 196.5 16.5 194.933 16.5 193H15.5ZM13 136.5C14.3807 136.5 15.5 137.619 15.5 139H16.5C16.5 137.067 14.933 135.5 13 135.5V136.5ZM4 135.5C2.067 135.5 0.5 137.067 0.5 139H1.5C1.5 137.619 2.61929 136.5 4 136.5V135.5Z" fill="#2E3D4D"/>
<path d="M1 79C1 77.3431 2.34315 76 4 76H13C14.6569 76 16 77.3431 16 79V133C16 134.657 14.6569 136 13 136H4C2.34315 136 1 134.657 1 133V79Z" fill="#FFDD99"/>
<path d="M4 76.5H13V75.5H4V76.5ZM15.5 79V133H16.5V79H15.5ZM13 135.5H4V136.5H13V135.5ZM1.5 133V79H0.5V133H1.5ZM4 135.5C2.61929 135.5 1.5 134.381 1.5 133H0.5C0.5 134.933 2.067 136.5 4 136.5V135.5ZM15.5 133C15.5 134.381 14.3807 135.5 13 135.5V136.5C14.933 136.5 16.5 134.933 16.5 133H15.5ZM13 76.5C14.3807 76.5 15.5 77.6193 15.5 79H16.5C16.5 77.067 14.933 75.5 13 75.5V76.5ZM4 75.5C2.067 75.5 0.5 77.067 0.5 79H1.5C1.5 77.6193 2.61929 76.5 4 76.5V75.5Z" fill="#2E3D4D"/>
<path d="M4 256C2.34315 256 1 254.657 1 253L1 199C1 197.343 2.34315 196 4 196L13 196C14.6569 196 16 197.343 16 199L16 253C16 254.657 14.6569 256 13 256H4Z" fill="#FFDD99" stroke="#2E3D4D"/>
<path d="M1 19C1 17.3431 2.34315 16 4 16H13C14.6569 16 16 17.3431 16 19V73C16 74.6569 14.6569 76 13 76H4C2.34315 76 1 74.6569 1 73V19Z" fill="#FFDD99" stroke="#2E3D4D"/>
<path d="M16 4C16 2.34315 17.3431 1 19 1H73C74.6569 1 76 2.34315 76 4V13C76 14.6569 74.6569 16 73 16H19C17.3431 16 16 14.6569 16 13V4Z" fill="#FFDD99" stroke="#2E3D4D"/>
<path d="M76 4C76 2.34315 77.3431 1 79 1H133C134.657 1 136 2.34315 136 4V13C136 14.6569 134.657 16 133 16H79C77.3431 16 76 14.6569 76 13V4Z" fill="#FFDD99"/>
<path d="M79 1.5H133V0.5H79V1.5ZM135.5 4V13H136.5V4H135.5ZM133 15.5H79V16.5H133V15.5ZM76.5 13V4H75.5V13H76.5ZM79 15.5C77.6193 15.5 76.5 14.3807 76.5 13H75.5C75.5 14.933 77.067 16.5 79 16.5V15.5ZM135.5 13C135.5 14.3807 134.381 15.5 133 15.5V16.5C134.933 16.5 136.5 14.933 136.5 13H135.5ZM133 1.5C134.381 1.5 135.5 2.61929 135.5 4H136.5C136.5 2.067 134.933 0.5 133 0.5V1.5ZM79 0.5C77.067 0.5 75.5 2.067 75.5 4H76.5C76.5 2.61929 77.6193 1.5 79 1.5V0.5Z" fill="#2E3D4D"/>
<path d="M136 4C136 2.34315 137.343 1 139 1H193C194.657 1 196 2.34315 196 4V13C196 14.6569 194.657 16 193 16H139C137.343 16 136 14.6569 136 13V4Z" fill="#FFDD99"/>
<path d="M139 1.5H193V0.5H139V1.5ZM195.5 4V13H196.5V4H195.5ZM193 15.5H139V16.5H193V15.5ZM136.5 13V4H135.5V13H136.5ZM139 15.5C137.619 15.5 136.5 14.3807 136.5 13H135.5C135.5 14.933 137.067 16.5 139 16.5V15.5ZM195.5 13C195.5 14.3807 194.381 15.5 193 15.5V16.5C194.933 16.5 196.5 14.933 196.5 13H195.5ZM193 1.5C194.381 1.5 195.5 2.61929 195.5 4H196.5C196.5 2.067 194.933 0.5 193 0.5V1.5ZM139 0.5C137.067 0.5 135.5 2.067 135.5 4H136.5C136.5 2.61929 137.619 1.5 139 1.5V0.5Z" fill="#2E3D4D"/>
<path d="M6 256H16L16 196L6 196C8.76142 196 11 198.239 11 201L11 251C11 253.761 8.76143 256 6 256Z" fill="black" fill-opacity="0.2"/>
<path d="M6 196H16L16 136L6 136C8.76142 136 11 138.239 11 141L11 191C11 193.761 8.76143 196 6 196Z" fill="black" fill-opacity="0.2"/>
<path d="M6 136H16L16 76L6 76C8.76142 76 11 78.2386 11 81L11 131C11 133.761 8.76143 136 6 136Z" fill="black" fill-opacity="0.2"/>
<path d="M6 76H16L16 16L6 16C8.76142 16 11 18.2386 11 21L11 71C11 73.7614 8.76143 76 6 76Z" fill="black" fill-opacity="0.2"/>
<path d="M76 6V16H136V6C136 8.76142 133.761 11 131 11H81C78.2386 11 76 8.76142 76 6Z" fill="black" fill-opacity="0.2"/>
<path d="M16 6V16H76V6C76 8.76142 73.7614 11 71 11H21C18.2386 11 16 8.76142 16 6Z" fill="black" fill-opacity="0.2"/>
<path d="M136 6V16H196V6C196 8.76142 193.761 11 191 11H141C138.239 11 136 8.76142 136 6Z" fill="black" fill-opacity="0.2"/>
<path d="M13.1153 249.878L9.95694 213.777C9.67256 210.525 11.8722 207.596 15.0344 206.994C17.4562 206.533 19.9597 206.775 22.2537 207.693L23.6374 208.248C26.7525 209.495 28.9101 212.414 29.2057 215.791L31.722 244.552C32.0173 247.93 30.3994 251.179 27.5482 252.948L26.2818 253.734C24.182 255.037 21.7587 255.71 19.2937 255.677C16.075 255.633 13.4001 253.131 13.1153 249.878Z" fill="#707EC2" stroke="#2E3D4D" stroke-linejoin="round"/>
<path d="M23.823 207.783C27.1154 209.101 29.3921 212.184 29.7038 215.748L32.2201 244.508C32.5318 248.072 30.8252 251.504 27.8116 253.373C17.4064 258.767 26.1789 244.3 24.8967 229.644C23.6144 214.988 13.3261 203.582 23.823 207.783Z" fill="black" fill-opacity="0.2"/>
<path d="M11.5 174.119L11.5 137.881C11.5002 134.616 13.9468 131.889 17.1494 131.565C19.6021 131.317 22.0749 131.777 24.2803 132.892L25.6103 133.564C28.6049 135.078 30.4999 138.174 30.5 141.564L30.5 170.436C30.4999 173.826 28.6049 176.922 25.6103 178.436L24.2803 179.108C22.0749 180.223 19.6021 180.683 17.1494 180.435C13.9468 180.111 11.5002 177.384 11.5 174.119Z" fill="#FAF7F0" stroke="#2E3D4D" stroke-linejoin="round"/>
<path d="M25.8357 133.118C29.0007 134.718 31 137.988 31 141.565L31 170.435C31 174.012 29.0007 177.282 25.8357 178.882C15 183.348 25 169.701 25 154.989C25 140.277 15.7449 128.018 25.8357 133.118Z" fill="black" fill-opacity="0.2"/>
<path d="M11.5 99.1191L11.5 62.8809C11.5002 59.6157 13.9468 56.8894 17.1494 56.5654C19.6021 56.3175 22.0749 56.777 24.2803 57.8916L25.6103 58.5645C28.6049 60.0782 30.4999 63.1741 30.5 66.5645L30.5 95.4355C30.4999 98.8259 28.6049 101.922 25.6103 103.436L24.2803 104.108C22.0749 105.223 19.6021 105.683 17.1494 105.435C13.9468 105.111 11.5002 102.384 11.5 99.1191Z" fill="#E5675C" stroke="#2E3D4D" stroke-linejoin="round"/>
<path d="M25.8357 58.1179C29.0007 59.7176 31 62.9877 31 66.5648L31 95.4353C31 99.0124 29.0007 102.282 25.8357 103.882C15 108.348 25 94.7013 25 79.9892C25 65.2771 15.7449 53.0176 25.8357 58.1179Z" fill="black" fill-opacity="0.2"/>
<path d="M22.1218 13.1157L58.2222 9.9573C61.475 9.67292 64.4041 11.8726 65.006 15.0348C65.4668 17.4566 65.2245 19.96 64.3064 22.2541L63.752 23.6378C62.505 26.7529 59.586 28.9104 56.2086 29.206L27.4474 31.7223C24.0699 32.0177 20.8206 30.3998 19.0517 27.5485L18.2654 26.2822C16.9629 24.1824 16.2896 21.759 16.3228 19.294C16.3664 16.0753 18.8691 13.4004 22.1218 13.1157Z" fill="#7ACC7A" stroke="#2E3D4D" stroke-linejoin="round"/>
<path d="M64.2166 23.8234C62.8988 27.1158 59.8154 29.3925 56.2519 29.7043L27.4913 32.2205C23.9278 32.5323 20.4959 30.8256 18.6264 27.812C13.2331 17.4068 27.6995 26.1793 42.3557 24.8971C57.0118 23.6149 68.418 13.3265 64.2166 23.8234Z" fill="black" fill-opacity="0.2"/>
<path d="M87.8808 11.5H124.119C127.384 11.5002 130.111 13.9468 130.435 17.1494C130.682 19.6021 130.223 22.075 129.108 24.2803L128.436 25.6104C126.922 28.6049 123.826 30.4999 120.436 30.5H91.5644C88.1741 30.4999 85.0782 28.6049 83.5644 25.6104L82.8916 24.2803C81.777 22.075 81.3175 19.6021 81.5654 17.1494C81.8894 13.9468 84.6157 11.5002 87.8808 11.5Z" fill="#FFBB99" stroke="#2E3D4D" stroke-linejoin="round"/>
<path d="M128.882 25.8357C127.282 29.0007 124.012 31 120.435 31H91.5648C87.9876 31 84.7175 29.0007 83.1178 25.8357C78.6519 15 92.2988 25 107.011 25C121.723 25 133.982 15.7449 128.882 25.8357Z" fill="black" fill-opacity="0.2"/>
<path d="M153.778 9.95693L189.878 13.1153C193.131 13.4001 195.634 16.075 195.677 19.2937C195.71 21.7587 195.037 24.182 193.735 26.2818L192.948 27.5482C191.179 30.3994 187.93 32.0173 184.553 31.722L155.791 29.2057C152.414 28.9101 149.495 26.7525 148.248 23.6374L147.694 22.2537C146.776 19.9597 146.533 17.4562 146.994 15.0344C147.596 11.8722 150.525 9.67255 153.778 9.95693Z" fill="#707EC2" stroke="#2E3D4D" stroke-linejoin="round"/>
<path d="M193.374 27.8116C191.504 30.8251 188.072 32.5318 184.509 32.22L155.748 29.7038C152.185 29.3921 149.101 27.1154 147.783 23.8229C144.279 12.6393 157.002 23.7906 171.658 25.0729C186.315 26.3551 199.334 18.2037 193.374 27.8116Z" fill="black" fill-opacity="0.2"/>
</svg>
