<svg width="142" height="77" viewBox="0 0 142 77" fill="none" xmlns="http://www.w3.org/2000/svg">
<rect x="1.5" y="1.5" width="139" height="74" stroke="black"/>
<path d="M71 19C71 17.3431 72.3431 16 74 16H128C129.657 16 131 17.3431 131 19V73C131 74.6569 129.657 76 128 76H74C72.3431 76 71 74.6569 71 73V19Z" fill="#FFDD99"/>
<path d="M74 16.5H128V15.5H74V16.5ZM130.5 19V73H131.5V19H130.5ZM128 75.5H74V76.5H128V75.5ZM71.5 73V19H70.5V73H71.5ZM74 75.5C72.6193 75.5 71.5 74.3807 71.5 73H70.5C70.5 74.933 72.067 76.5 74 76.5V75.5ZM130.5 73C130.5 74.3807 129.381 75.5 128 75.5V76.5C129.933 76.5 131.5 74.933 131.5 73H130.5ZM128 16.5C129.381 16.5 130.5 17.6193 130.5 19H131.5C131.5 17.067 129.933 15.5 128 15.5V16.5ZM74 15.5C72.067 15.5 70.5 17.067 70.5 19H71.5C71.5 17.6193 72.6193 16.5 74 16.5V15.5Z" fill="#2E3D4D"/>
<path d="M11 19C11 17.3431 12.3431 16 14 16H68C69.6569 16 71 17.3431 71 19V73C71 74.6569 69.6569 76 68 76H14C12.3431 76 11 74.6569 11 73V19Z" fill="#FFDD99"/>
<path d="M14 16.5H68V15.5H14V16.5ZM70.5 19V73H71.5V19H70.5ZM68 75.5H14V76.5H68V75.5ZM11.5 73V19H10.5V73H11.5ZM14 75.5C12.6193 75.5 11.5 74.3807 11.5 73H10.5C10.5 74.933 12.067 76.5 14 76.5V75.5ZM70.5 73C70.5 74.3807 69.3807 75.5 68 75.5V76.5C69.933 76.5 71.5 74.933 71.5 73H70.5ZM68 16.5C69.3807 16.5 70.5 17.6193 70.5 19H71.5C71.5 17.067 69.933 15.5 68 15.5V16.5ZM14 15.5C12.067 15.5 10.5 17.067 10.5 19H11.5C11.5 17.6193 12.6193 16.5 14 16.5V15.5Z" fill="#2E3D4D"/>
<path d="M131 16V73C131 74.6569 129.543 76.0639 128.177 75.1272C126.862 74.2263 126 72.7138 126 71V31C126 28.2386 123.761 26 121 26H76C73.2386 26 71 28.2386 71 31V16H131Z" fill="black" fill-opacity="0.2"/>
<path d="M11 16V73C11 74.6569 12.4567 76.0639 13.8233 75.1272C15.1377 74.2263 16 72.7138 16 71V31C16 28.2386 18.2386 26 21 26H66C68.7614 26 71 28.2386 71 31V16H11Z" fill="black" fill-opacity="0.2"/>
<path d="M71 4C71 2.34315 72.3431 1 74 1H128C129.657 1 131 2.34315 131 4V13C131 14.6569 129.657 16 128 16H74C72.3431 16 71 14.6569 71 13V4Z" fill="#FFDD99"/>
<path d="M74 1.5H128V0.5H74V1.5ZM130.5 4V13H131.5V4H130.5ZM128 15.5H74V16.5H128V15.5ZM71.5 13V4H70.5V13H71.5ZM74 15.5C72.6193 15.5 71.5 14.3807 71.5 13H70.5C70.5 14.933 72.067 16.5 74 16.5V15.5ZM130.5 13C130.5 14.3807 129.381 15.5 128 15.5V16.5C129.933 16.5 131.5 14.933 131.5 13H130.5ZM128 1.5C129.381 1.5 130.5 2.61929 130.5 4H131.5C131.5 2.067 129.933 0.5 128 0.5V1.5ZM74 0.5C72.067 0.5 70.5 2.067 70.5 4H71.5C71.5 2.61929 72.6193 1.5 74 1.5V0.5Z" fill="#2E3D4D"/>
<path d="M11 4C11 2.34315 12.3431 1 14 1H68C69.6569 1 71 2.34315 71 4V13C71 14.6569 69.6569 16 68 16H14C12.3431 16 11 14.6569 11 13V4Z" fill="#FFDD99"/>
<path d="M14 1.5H68V0.5H14V1.5ZM70.5 4V13H71.5V4H70.5ZM68 15.5H14V16.5H68V15.5ZM11.5 13V4H10.5V13H11.5ZM14 15.5C12.6193 15.5 11.5 14.3807 11.5 13H10.5C10.5 14.933 12.067 16.5 14 16.5V15.5ZM70.5 13C70.5 14.3807 69.3807 15.5 68 15.5V16.5C69.933 16.5 71.5 14.933 71.5 13H70.5ZM68 1.5C69.3807 1.5 70.5 2.61929 70.5 4H71.5C71.5 2.067 69.933 0.5 68 0.5V1.5ZM14 0.5C12.067 0.5 10.5 2.067 10.5 4H11.5C11.5 2.61929 12.6193 1.5 14 1.5V0.5Z" fill="#2E3D4D"/>
<path d="M11 6V16H71V6C71 8.76142 68.7614 11 66 11H16C13.2386 11 11 8.76142 11 6Z" fill="black" fill-opacity="0.2"/>
<path d="M71 6V16H131V6C131 8.76142 128.761 11 126 11H76C73.2386 11 71 8.76142 71 6Z" fill="black" fill-opacity="0.2"/>
<path d="M1 9C1 7.34315 2.34315 6 4 6H11V73C11 74.6569 9.65685 76 8 76H4C2.34315 76 1 74.6569 1 73V9Z" fill="#FFDD99"/>
<path d="M11 6H11.5V5.5H11V6ZM4 6.5H11V5.5H4V6.5ZM10.5 6V73H11.5V6H10.5ZM8 75.5H4V76.5H8V75.5ZM1.5 73V9H0.5V73H1.5ZM4 75.5C2.61929 75.5 1.5 74.3807 1.5 73H0.5C0.5 74.933 2.067 76.5 4 76.5V75.5ZM10.5 73C10.5 74.3807 9.38071 75.5 8 75.5V76.5C9.933 76.5 11.5 74.933 11.5 73H10.5ZM4 5.5C2.067 5.5 0.5 7.06701 0.5 9H1.5C1.5 7.61929 2.61929 6.5 4 6.5V5.5Z" fill="#2E3D4D"/>
<path d="M131 6H138C139.657 6 141 7.34315 141 9V73C141 74.6569 139.657 76 138 76H134C132.343 76 131 74.6569 131 73V6Z" fill="#FFDD99"/>
<path d="M131 6V5.5H130.5V6H131ZM131 6.5H138V5.5H131V6.5ZM140.5 9V73H141.5V9H140.5ZM138 75.5H134V76.5H138V75.5ZM131.5 73V6H130.5V73H131.5ZM134 75.5C132.619 75.5 131.5 74.3807 131.5 73H130.5C130.5 74.933 132.067 76.5 134 76.5V75.5ZM140.5 73C140.5 74.3807 139.381 75.5 138 75.5V76.5C139.933 76.5 141.5 74.933 141.5 73H140.5ZM138 6.5C139.381 6.5 140.5 7.61929 140.5 9H141.5C141.5 7.067 139.933 5.5 138 5.5V6.5Z" fill="#2E3D4D"/>
<path d="M83.7069 7.15781L123.417 10.632C127.06 10.9508 129.82 13.6881 129.895 16.8756C129.953 19.3321 129.236 21.7426 127.825 23.8291L126.973 25.0897C125.056 27.9236 121.482 29.5353 117.724 29.2065L86.0873 26.4386C82.3292 26.1098 79.0898 23.9021 77.6942 20.7784L77.0737 19.3889C76.0463 17.0891 75.7594 14.5908 76.2426 12.1816C76.8699 9.05554 80.063 6.83902 83.7069 7.15781Z" fill="#707EC2" stroke="#2E3D4D" stroke-linejoin="round"/>
<path d="M127.387 25.3698C125.358 28.3694 121.6 30.0476 117.681 29.7046L86.0439 26.9368C82.1241 26.5939 78.7149 24.2887 77.2377 20.9823C73.2883 9.75973 87.3712 21.03 103.493 22.4405C119.615 23.8509 133.855 15.8064 127.387 25.3698Z" fill="black" fill-opacity="0.2"/>
<path d="M18.5841 10.8384L58.2938 7.36424C61.9377 7.04546 65.1308 9.26197 65.7581 12.3881C66.2413 14.7972 65.9544 17.2955 64.927 19.5954L64.3065 20.9848C62.9109 24.1085 59.6715 26.3162 55.9134 26.6451L24.2764 29.413C20.5183 29.7417 16.9447 28.13 15.0279 25.2961L14.1755 24.0355C12.7644 21.949 12.048 19.5385 12.1056 17.0821C12.1804 13.8945 14.9402 11.1572 18.5841 10.8384Z" fill="#7ACC7A" stroke="#2E3D4D" stroke-linejoin="round"/>
<path d="M64.763 21.1887C63.2858 24.4951 59.8767 26.8003 55.9568 27.1432L24.3201 29.9111C20.4003 30.254 16.6426 28.5758 14.6138 25.5762C8.77559 15.2099 24.6015 23.8635 40.7233 22.453C56.845 21.0426 69.4725 10.6474 64.763 21.1887Z" fill="black" fill-opacity="0.2"/>
</svg>
