<svg width="232" height="232" viewBox="0 0 232 232" fill="none" xmlns="http://www.w3.org/2000/svg">
<path d="M21 154C21 152.343 22.3431 151 24 151H83C84.6569 151 86 152.343 86 154V213C86 214.657 84.6569 216 83 216H24C22.3431 216 21 214.657 21 213V154Z" fill="#FFDD99"/>
<path d="M24 151.5H83V150.5H24V151.5ZM85.5 154V213H86.5V154H85.5ZM83 215.5H24V216.5H83V215.5ZM21.5 213V154H20.5V213H21.5ZM24 215.5C22.6193 215.5 21.5 214.381 21.5 213H20.5C20.5 214.933 22.067 216.5 24 216.5V215.5ZM85.5 213C85.5 214.381 84.3807 215.5 83 215.5V216.5C84.933 216.5 86.5 214.933 86.5 213H85.5ZM83 151.5C84.3807 151.5 85.5 152.619 85.5 154H86.5C86.5 152.067 84.933 150.5 83 150.5V151.5ZM24 150.5C22.067 150.5 20.5 152.067 20.5 154H21.5C21.5 152.619 22.6193 151.5 24 151.5V150.5Z" fill="#2E3D4D"/>
<path d="M21 89C21 87.3431 22.3431 86 24 86H83C84.6569 86 86 87.3431 86 89V148C86 149.657 84.6569 151 83 151H24C22.3431 151 21 149.657 21 148V89Z" fill="#FFDD99"/>
<path d="M24 86.5H83V85.5H24V86.5ZM85.5 89V148H86.5V89H85.5ZM83 150.5H24V151.5H83V150.5ZM21.5 148V89H20.5V148H21.5ZM24 150.5C22.6193 150.5 21.5 149.381 21.5 148H20.5C20.5 149.933 22.067 151.5 24 151.5V150.5ZM85.5 148C85.5 149.381 84.3807 150.5 83 150.5V151.5C84.933 151.5 86.5 149.933 86.5 148H85.5ZM83 86.5C84.3807 86.5 85.5 87.6193 85.5 89H86.5C86.5 87.067 84.933 85.5 83 85.5V86.5ZM24 85.5C22.067 85.5 20.5 87.067 20.5 89H21.5C21.5 87.6193 22.6193 86.5 24 86.5V85.5Z" fill="#2E3D4D"/>
<path d="M21 24C21 22.3431 22.3431 21 24 21H83C84.6569 21 86 22.3431 86 24V83C86 84.6569 84.6569 86 83 86H24C22.3431 86 21 84.6569 21 83V24Z" fill="#FFDD99" stroke="#2E3D4D"/>
<path d="M86 24C86 22.3431 87.3431 21 89 21H148C149.657 21 151 22.3431 151 24V83C151 84.6569 149.657 86 148 86H89C87.3431 86 86 84.6569 86 83V24Z" fill="#FFDD99"/>
<path d="M89 21.5H148V20.5H89V21.5ZM150.5 24V83H151.5V24H150.5ZM148 85.5H89V86.5H148V85.5ZM86.5 83V24H85.5V83H86.5ZM89 85.5C87.6193 85.5 86.5 84.3807 86.5 83H85.5C85.5 84.933 87.067 86.5 89 86.5V85.5ZM150.5 83C150.5 84.3807 149.381 85.5 148 85.5V86.5C149.933 86.5 151.5 84.933 151.5 83H150.5ZM148 21.5C149.381 21.5 150.5 22.6193 150.5 24H151.5C151.5 22.067 149.933 20.5 148 20.5V21.5ZM89 20.5C87.067 20.5 85.5 22.067 85.5 24H86.5C86.5 22.6193 87.6193 21.5 89 21.5V20.5Z" fill="#2E3D4D"/>
<path d="M151 24C151 22.3431 152.343 21 154 21H213C214.657 21 216 22.3431 216 24V83C216 84.6569 214.657 86 213 86H154C152.343 86 151 84.6569 151 83V24Z" fill="#FFDD99"/>
<path d="M154 21.5H213V20.5H154V21.5ZM215.5 24V83H216.5V24H215.5ZM213 85.5H154V86.5H213V85.5ZM151.5 83V24H150.5V83H151.5ZM154 85.5C152.619 85.5 151.5 84.3807 151.5 83H150.5C150.5 84.933 152.067 86.5 154 86.5V85.5ZM215.5 83C215.5 84.3807 214.381 85.5 213 85.5V86.5C214.933 86.5 216.5 84.933 216.5 83H215.5ZM213 21.5C214.381 21.5 215.5 22.6193 215.5 24H216.5C216.5 22.067 214.933 20.5 213 20.5V21.5ZM154 20.5C152.067 20.5 150.5 22.067 150.5 24H151.5C151.5 22.6193 152.619 21.5 154 21.5V20.5Z" fill="#2E3D4D"/>
<path d="M21.2863 215.714H83.2863C84.9431 215.714 86.3501 214.257 85.4134 212.89C84.5125 211.576 83.0001 210.714 81.2863 210.714H36.2863C33.5248 210.714 31.2863 208.475 31.2863 205.714L31.2863 155.714C31.2863 152.952 33.5248 150.714 36.2863 150.714L21.2863 150.714L21.2863 215.714Z" fill="black" fill-opacity="0.2"/>
<path d="M21 86L21 151H36C33.2386 151 31 148.761 31 146L31 91C31 88.2386 33.2386 86 36 86L21 86Z" fill="black" fill-opacity="0.2"/>
<path d="M21 21H86V36C86 33.2386 83.7614 31 81 31H36C33.2386 31 31 33.2386 31 36L31 81C31 83.7614 33.2386 86 36 86H21L21 21Z" fill="black" fill-opacity="0.2"/>
<path d="M151 21H86V36C86 33.2386 88.2386 31 91 31H146C148.761 31 151 33.2386 151 36V21Z" fill="black" fill-opacity="0.2"/>
<path d="M216 21V83C216 84.6569 214.543 86.0639 213.177 85.1272C211.862 84.2263 211 82.7138 211 81V36C211 33.2386 208.761 31 206 31H156C153.239 31 151 33.2386 151 36V21H216Z" fill="black" fill-opacity="0.2"/>
<path d="M6 216H83C84.6569 216 86 217.343 86 219V228C86 229.657 84.6569 231 83 231H9C7.34315 231 6 229.657 6 228V216Z" fill="#FFDD99" stroke="#2E3D4D"/>
<path d="M216 6H228C229.657 6 231 7.34315 231 9V83C231 84.6569 229.657 86 228 86H219C217.343 86 216 84.6569 216 83V6Z" fill="#FFDD99" stroke="#2E3D4D"/>
<path d="M1 154C1 152.343 2.34315 151 4 151H18C19.6569 151 21 152.343 21 154V213C21 214.657 19.6569 216 18 216H4C2.34315 216 1 214.657 1 213V154Z" fill="#FFDD99"/>
<path d="M4 151.5H18V150.5H4V151.5ZM20.5 154V213H21.5V154H20.5ZM18 215.5H4V216.5H18V215.5ZM1.5 213V154H0.5V213H1.5ZM4 215.5C2.61929 215.5 1.5 214.381 1.5 213H0.5C0.5 214.933 2.067 216.5 4 216.5V215.5ZM20.5 213C20.5 214.381 19.3807 215.5 18 215.5V216.5C19.933 216.5 21.5 214.933 21.5 213H20.5ZM18 151.5C19.3807 151.5 20.5 152.619 20.5 154H21.5C21.5 152.067 19.933 150.5 18 150.5V151.5ZM4 150.5C2.067 150.5 0.5 152.067 0.5 154H1.5C1.5 152.619 2.61929 151.5 4 151.5V150.5Z" fill="#2E3D4D"/>
<path d="M1 89C1 87.3431 2.34315 86 4 86H18C19.6569 86 21 87.3431 21 89V148C21 149.657 19.6569 151 18 151H4C2.34315 151 1 149.657 1 148V89Z" fill="#FFDD99"/>
<path d="M4 86.5H18V85.5H4V86.5ZM20.5 89V148H21.5V89H20.5ZM18 150.5H4V151.5H18V150.5ZM1.5 148V89H0.5V148H1.5ZM4 150.5C2.61929 150.5 1.5 149.381 1.5 148H0.5C0.5 149.933 2.067 151.5 4 151.5V150.5ZM20.5 148C20.5 149.381 19.3807 150.5 18 150.5V151.5C19.933 151.5 21.5 149.933 21.5 148H20.5ZM18 86.5C19.3807 86.5 20.5 87.6193 20.5 89H21.5C21.5 87.067 19.933 85.5 18 85.5V86.5ZM4 85.5C2.067 85.5 0.5 87.067 0.5 89H1.5C1.5 87.6193 2.61929 86.5 4 86.5V85.5Z" fill="#2E3D4D"/>
<path d="M1 22.5C1 21.6716 1.67157 21 2.5 21H18C19.6569 21 21 22.3431 21 24V83C21 84.6569 19.6569 86 18 86H4C2.34315 86 1 84.6569 1 83V22.5Z" fill="#FFDD99" stroke="#2E3D4D"/>
<path d="M6 9C6 7.34315 7.34315 6 9 6H21V18C21 19.6569 19.6569 21 18 21H6V9Z" fill="#FFDD99" stroke="#2E3D4D"/>
<path d="M21 4C21 2.34315 22.3431 1 24 1H83C84.6569 1 86 2.34315 86 4V18C86 19.6569 84.6569 21 83 21H24C22.3431 21 21 19.6569 21 18V4Z" fill="#FFDD99" stroke="#2E3D4D"/>
<path d="M86 4C86 2.34315 87.3431 1 89 1H148C149.657 1 151 2.34315 151 4V18C151 19.6569 149.657 21 148 21H89C87.3431 21 86 19.6569 86 18V4Z" fill="#FFDD99"/>
<path d="M89 1.5H148V0.5H89V1.5ZM150.5 4V18H151.5V4H150.5ZM148 20.5H89V21.5H148V20.5ZM86.5 18V4H85.5V18H86.5ZM89 20.5C87.6193 20.5 86.5 19.3807 86.5 18H85.5C85.5 19.933 87.067 21.5 89 21.5V20.5ZM150.5 18C150.5 19.3807 149.381 20.5 148 20.5V21.5C149.933 21.5 151.5 19.933 151.5 18H150.5ZM148 1.5C149.381 1.5 150.5 2.61929 150.5 4H151.5C151.5 2.067 149.933 0.5 148 0.5V1.5ZM89 0.5C87.067 0.5 85.5 2.067 85.5 4H86.5C86.5 2.61929 87.6193 1.5 89 1.5V0.5Z" fill="#2E3D4D"/>
<path d="M151 4C151 2.34315 152.343 1 154 1H213C214.657 1 216 2.34315 216 4V18C216 19.6569 214.657 21 213 21H154C152.343 21 151 19.6569 151 18V4Z" fill="#FFDD99"/>
<path d="M154 1.5H213V0.5H154V1.5ZM215.5 4V18H216.5V4H215.5ZM213 20.5H154V21.5H213V20.5ZM151.5 18V4H150.5V18H151.5ZM154 20.5C152.619 20.5 151.5 19.3807 151.5 18H150.5C150.5 19.933 152.067 21.5 154 21.5V20.5ZM215.5 18C215.5 19.3807 214.381 20.5 213 20.5V21.5C214.933 21.5 216.5 19.933 216.5 18H215.5ZM213 1.5C214.381 1.5 215.5 2.61929 215.5 4H216.5C216.5 2.067 214.933 0.5 213 0.5V1.5ZM154 0.5C152.067 0.5 150.5 2.067 150.5 4H151.5C151.5 2.61929 152.619 1.5 154 1.5V0.5Z" fill="#2E3D4D"/>
<path d="M11 216H21L21 151L11 151C13.7614 151 16 153.239 16 156L16 211C16 213.761 13.7614 216 11 216Z" fill="black" fill-opacity="0.2"/>
<path d="M11 151H21L21 86L11 86C13.7614 86 16 88.2386 16 91L16 146C16 148.761 13.7614 151 11 151Z" fill="black" fill-opacity="0.2"/>
<path d="M11 86H21L21 21L11 21C13.7614 21 16 23.2386 16 26L16 81C16 83.7614 13.7614 86 11 86Z" fill="black" fill-opacity="0.2"/>
<path d="M21 11V21H86V11C86 13.7614 83.7614 16 81 16H26C23.2386 16 21 13.7614 21 11Z" fill="black" fill-opacity="0.2"/>
<path d="M86 11V21H151V11C151 13.7614 148.761 16 146 16H91C88.2386 16 86 13.7614 86 11Z" fill="black" fill-opacity="0.2"/>
<path d="M151 11V21H216V11C216 13.7614 213.761 16 211 16H156C153.239 16 151 13.7614 151 11Z" fill="black" fill-opacity="0.2"/>
<path d="M169.464 15.0169L209.173 18.4911C212.817 18.8099 215.577 21.5472 215.652 24.7348C215.709 27.1912 214.993 29.6017 213.582 31.6882L212.729 32.9488C210.813 35.7827 207.239 37.3944 203.481 37.0656L171.844 34.2978C168.086 33.9689 164.846 31.7612 163.451 28.6375L162.83 27.2481C161.803 24.9482 161.516 22.4499 161.999 20.0408C162.627 16.9147 165.82 14.6982 169.464 15.0169Z" fill="#707EC2" stroke="#2E3D4D" stroke-linejoin="round"/>
<path d="M213.144 33.2289C211.115 36.2285 207.357 37.9067 203.437 37.5638L171.801 34.7959C167.881 34.453 164.472 32.1478 162.994 28.8414C159.045 17.6189 173.128 28.8891 189.25 30.2996C205.371 31.7101 219.612 23.6655 213.144 33.2289Z" fill="black" fill-opacity="0.2"/>
<path d="M98.5693 16.5H138.431C142.088 16.5 145.076 18.9864 145.429 22.1553C145.7 24.5974 145.197 27.0611 143.973 29.2627L143.233 30.5928C141.571 33.5829 138.151 35.4999 134.379 35.5H102.621C98.8486 35.4999 95.4291 33.5829 93.7666 30.5928L93.0273 29.2627C91.8034 27.0611 91.2998 24.5974 91.5713 22.1553C91.9237 18.9864 94.9115 16.5 98.5693 16.5Z" fill="#FFBB99" stroke="#2E3D4D" stroke-linejoin="round"/>
<path d="M143.67 30.8357C141.911 34.0007 138.314 36 134.379 36H102.621C98.6864 36 95.0893 34.0007 93.3296 30.8357C88.4171 20 103.429 30 119.612 30C135.795 30 149.281 20.7449 143.67 30.8357Z" fill="black" fill-opacity="0.2"/>
<path d="M16.5 123.431L16.5 83.5693C16.5 79.9115 18.9864 76.9237 22.1553 76.5713C24.5974 76.2998 27.0611 76.8034 29.2627 78.0273L30.5928 78.7666C33.5829 80.4291 35.4999 83.8486 35.5 87.6211V119.379C35.4999 123.151 33.5829 126.571 30.5928 128.233L29.2627 128.973C27.0611 130.197 24.5974 130.7 22.1553 130.429C18.9864 130.076 16.5 127.088 16.5 123.431Z" fill="#FAF7F0" stroke="#2E3D4D" stroke-linejoin="round"/>
<path d="M30.8357 78.3296C34.0007 80.0893 36 83.6864 36 87.6213V119.379C36 123.314 34.0007 126.911 30.8357 128.67C20 133.583 30 118.571 30 102.388C30 86.2047 20.7449 72.7193 30.8357 78.3296Z" fill="black" fill-opacity="0.2"/>
<path d="M23.0553 209.192L19.5812 169.482C19.2624 165.838 21.4789 162.645 24.605 162.018C27.0142 161.535 29.5124 161.822 31.8123 162.849L33.2017 163.47C36.3254 164.865 38.5331 168.105 38.862 171.863L41.6299 203.5C41.9586 207.258 40.3469 210.831 37.513 212.748L36.2525 213.601C34.166 215.012 31.7555 215.728 29.299 215.671C26.1115 215.596 23.3741 212.836 23.0553 209.192Z" fill="#3D9999" stroke="#2E3D4D" stroke-linejoin="round"/>
<path d="M33.4056 163.013C36.712 164.49 39.0172 167.899 39.3601 171.819L42.128 203.456C42.4709 207.376 40.7927 211.133 37.7931 213.162C27.4268 219 36.0804 203.174 34.67 187.053C33.2595 170.931 22.8643 158.304 33.4056 163.013Z" fill="black" fill-opacity="0.2"/>
<path d="M27.8077 18.0555L67.5173 14.5814C71.1612 14.2626 74.3544 16.4791 74.9816 19.6052C75.4649 22.0144 75.178 24.5127 74.1506 26.8125L73.5301 28.202C72.1345 31.3257 68.8951 33.5334 65.1369 33.8622L33.5 36.6301C29.7419 36.9589 26.1683 35.3472 24.2515 32.5133L23.3991 31.2527C21.988 29.1662 21.2716 26.7557 21.3292 24.2992C21.404 21.1117 24.1638 18.3744 27.8077 18.0555Z" fill="#7ACC7A" stroke="#2E3D4D" stroke-linejoin="round"/>
<path d="M73.9865 28.4059C72.5094 31.7123 69.1002 34.0175 65.1804 34.3604L33.5437 37.1283C29.6238 37.4712 25.8662 35.793 23.8373 32.7934C17.9991 22.4271 33.8251 31.0807 49.9468 29.6703C66.0686 28.2598 78.696 17.8646 73.9865 28.4059Z" fill="black" fill-opacity="0.2"/>
</svg>
