<svg width="340" height="165" viewBox="0 0 340 165" fill="none" xmlns="http://www.w3.org/2000/svg">
<rect width="250" height="90" transform="translate(90 75)" fill="#D9BEA3"/>
<mask id="path-1-inside-1_5319_2338" fill="white">
<path d="M90 75H115V165H90V75Z"/>
</mask>
<path d="M90 75H115V165H90V75Z" fill="#D9BEA3"/>
<path d="M115 75H116V74H115V75ZM115 165V166H116V165H115ZM90 76H115V74H90V76ZM114 75V165H116V75H114ZM115 164H90V166H115V164Z" fill="#2E3D4D" mask="url(#path-1-inside-1_5319_2338)"/>
<mask id="path-3-inside-2_5319_2338" fill="white">
<path d="M115 75H140V165H115V75Z"/>
</mask>
<path d="M115 75H140V165H115V75Z" fill="#D9BEA3"/>
<path d="M140 75H141V74H140V75ZM140 165V166H141V165H140ZM115 76H140V74H115V76ZM139 75V165H141V75H139ZM140 164H115V166H140V164Z" fill="#2E3D4D" mask="url(#path-3-inside-2_5319_2338)"/>
<mask id="path-5-inside-3_5319_2338" fill="white">
<path d="M140 75H165V165H140V75Z"/>
</mask>
<path d="M140 75H165V165H140V75Z" fill="#D9BEA3"/>
<path d="M165 75H166V74H165V75ZM165 165V166H166V165H165ZM140 76H165V74H140V76ZM164 75V165H166V75H164ZM165 164H140V166H165V164Z" fill="#2E3D4D" mask="url(#path-5-inside-3_5319_2338)"/>
<mask id="path-7-inside-4_5319_2338" fill="white">
<path d="M165 75H190V165H165V75Z"/>
</mask>
<path d="M165 75H190V165H165V75Z" fill="#D9BEA3"/>
<path d="M190 75H191V74H190V75ZM190 165V166H191V165H190ZM165 76H190V74H165V76ZM189 75V165H191V75H189ZM190 164H165V166H190V164Z" fill="#2E3D4D" mask="url(#path-7-inside-4_5319_2338)"/>
<mask id="path-9-inside-5_5319_2338" fill="white">
<path d="M190 75H215V165H190V75Z"/>
</mask>
<path d="M190 75H215V165H190V75Z" fill="#D9BEA3"/>
<path d="M215 75H216V74H215V75ZM215 165V166H216V165H215ZM190 76H215V74H190V76ZM214 75V165H216V75H214ZM215 164H190V166H215V164Z" fill="#2E3D4D" mask="url(#path-9-inside-5_5319_2338)"/>
<mask id="path-11-inside-6_5319_2338" fill="white">
<path d="M215 75H240V165H215V75Z"/>
</mask>
<path d="M215 75H240V165H215V75Z" fill="#D9BEA3"/>
<path d="M240 75H241V74H240V75ZM240 165V166H241V165H240ZM215 76H240V74H215V76ZM239 75V165H241V75H239ZM240 164H215V166H240V164Z" fill="#2E3D4D" mask="url(#path-11-inside-6_5319_2338)"/>
<mask id="path-13-inside-7_5319_2338" fill="white">
<path d="M240 75H265V165H240V75Z"/>
</mask>
<path d="M240 75H265V165H240V75Z" fill="#D9BEA3"/>
<path d="M265 75H266V74H265V75ZM265 165V166H266V165H265ZM240 76H265V74H240V76ZM264 75V165H266V75H264ZM265 164H240V166H265V164Z" fill="#2E3D4D" mask="url(#path-13-inside-7_5319_2338)"/>
<mask id="path-15-inside-8_5319_2338" fill="white">
<path d="M265 75H290V165H265V75Z"/>
</mask>
<path d="M265 75H290V165H265V75Z" fill="#D9BEA3"/>
<path d="M290 75H291V74H290V75ZM290 165V166H291V165H290ZM265 76H290V74H265V76ZM289 75V165H291V75H289ZM290 164H265V166H290V164Z" fill="#2E3D4D" mask="url(#path-15-inside-8_5319_2338)"/>
<mask id="path-17-inside-9_5319_2338" fill="white">
<path d="M290 75H315V165H290V75Z"/>
</mask>
<path d="M290 75H315V165H290V75Z" fill="#D9BEA3"/>
<path d="M315 75H316V74H315V75ZM315 165V166H316V165H315ZM290 76H315V74H290V76ZM314 75V165H316V75H314ZM315 164H290V166H315V164Z" fill="#2E3D4D" mask="url(#path-17-inside-9_5319_2338)"/>
<mask id="path-19-inside-10_5319_2338" fill="white">
<path d="M315 75H340V165H315V75Z"/>
</mask>
<path d="M315 75H340V165H315V75Z" fill="#D9BEA3"/>
<path d="M340 75H341V74H340V75ZM340 165V166H341V165H340ZM315 76H340V74H315V76ZM339 75V165H341V75H339ZM340 164H315V166H340V164Z" fill="#2E3D4D" mask="url(#path-19-inside-10_5319_2338)"/>
<rect width="90" height="90" transform="translate(0 75)" fill="#D9BEA3"/>
<mask id="path-21-inside-11_5319_2338" fill="white">
<path d="M0 75H90V165H0V75Z"/>
</mask>
<path d="M0 75H90V165H0V75Z" fill="#D9BEA3"/>
<path d="M0 75V74H-1V75H0ZM90 75H91V74H90V75ZM90 165V166H91V165H90ZM0 165H-1V166H0V165ZM0 76H90V74H0V76ZM89 75V165H91V75H89ZM90 164H0V166H90V164ZM1 165V75H-1V165H1Z" fill="#2E3D4D" mask="url(#path-21-inside-11_5319_2338)"/>
<rect width="90" height="75" fill="#D9BEA3"/>
<mask id="path-23-inside-12_5319_2338" fill="white">
<path d="M0 0H90V25H0V0Z"/>
</mask>
<path d="M0 0H90V25H0V0Z" fill="#D9BEA3"/>
<path d="M0 0V-1H-1V0H0ZM90 0H91V-1H90V0ZM0 1H90V-1H0V1ZM89 0V25H91V0H89ZM1 25V0H-1V25H1Z" fill="#2E3D4D" mask="url(#path-23-inside-12_5319_2338)"/>
<mask id="path-25-inside-13_5319_2338" fill="white">
<path d="M0 25H90V50H0V25Z"/>
</mask>
<path d="M0 25H90V50H0V25Z" fill="#D9BEA3"/>
<path d="M0 25V24H-1V25H0ZM90 25H91V24H90V25ZM0 26H90V24H0V26ZM89 25V50H91V25H89ZM1 50V25H-1V50H1Z" fill="#2E3D4D" mask="url(#path-25-inside-13_5319_2338)"/>
<mask id="path-27-inside-14_5319_2338" fill="white">
<path d="M0 50H90V75H0V50Z"/>
</mask>
<path d="M0 50H90V75H0V50Z" fill="#D9BEA3"/>
<path d="M0 50V49H-1V50H0ZM90 50H91V49H90V50ZM0 51H90V49H0V51ZM89 50V75H91V50H89ZM1 75V50H-1V75H1Z" fill="#2E3D4D" mask="url(#path-27-inside-14_5319_2338)"/>
<path d="M340 120L335 122.887V117.113L340 120ZM45 100L44.5 100L45 100ZM45 37.1531H45.5H45ZM335.5 120.5H64.9999V119.5H335.5V120.5ZM44.5 100C44.4999 79.0511 44.4999 58.1021 44.5 37.1531H45.5C45.4999 58.1021 45.4999 79.0511 45.5 100L44.5 100ZM44.5 37.1531L44.5 1H45.5L45.5 37.1531H44.5ZM64.9999 120.5C53.6781 120.5 44.5 111.322 44.5 100L45.5 100C45.5 110.77 54.2304 119.5 64.9999 119.5V120.5Z" fill="#CC5C52"/>
<path d="M336 75H340V165H336V75Z" fill="black" fill-opacity="0.1"/>
<path d="M311 75H315V165H311V75Z" fill="black" fill-opacity="0.1"/>
<path d="M286 75H290V165H286V75Z" fill="black" fill-opacity="0.1"/>
<path d="M261 75H265V165H261V75Z" fill="black" fill-opacity="0.1"/>
<path d="M236 75H240V165H236V75Z" fill="black" fill-opacity="0.1"/>
<path d="M211 75H215V165H211V75Z" fill="black" fill-opacity="0.1"/>
<path d="M186 75H190V165H186V75Z" fill="black" fill-opacity="0.1"/>
<path d="M161 75H165V165H161V75Z" fill="black" fill-opacity="0.1"/>
<path d="M136 75H140V165H136V75Z" fill="black" fill-opacity="0.1"/>
<path d="M111 75H115V165H111V75Z" fill="black" fill-opacity="0.1"/>
<path d="M86 75H90V165H86V75Z" fill="black" fill-opacity="0.1"/>
<path d="M0 50H90V53H0V50Z" fill="black" fill-opacity="0.1"/>
<path d="M0 25H90V28H0V25Z" fill="black" fill-opacity="0.1"/>
<path d="M0 0H90V3H0V0Z" fill="black" fill-opacity="0.1"/>
<g clip-path="url(#clip0_5319_2338)">
<mask id="path-44-inside-15_5319_2338" fill="white">
<path d="M95 70H340V75H95V70Z"/>
</mask>
<path d="M95 70H340V75H95V70Z" fill="#805A53"/>
<path d="M340 70H341V69H340V70ZM340 75V76H341V75H340ZM95 71H340V69H95V71ZM339 70V75H341V70H339ZM340 74H95V76H340V74Z" fill="#2E3D4D" mask="url(#path-44-inside-15_5319_2338)"/>
<rect x="90.5" y="0.5" width="4" height="74" fill="#805A53" stroke="#2E3D4D"/>
</g>
<defs>
<clipPath id="clip0_5319_2338">
<rect width="250" height="75" fill="white" transform="translate(90)"/>
</clipPath>
</defs>
</svg>
