<svg width="160" height="320" viewBox="0 0 160 320" fill="none" xmlns="http://www.w3.org/2000/svg">
<g clip-path="url(#clip0_404_1991)">
<mask id="path-1-inside-1_404_1991" fill="white">
<path fill-rule="evenodd" clip-rule="evenodd" d="M0 160C0 71.6344 71.6344 0 160 0V90C121.34 90 90 121.34 90 160C90 198.66 121.34 230 160 230V320C71.6344 320 0 248.366 0 160Z"/>
</mask>
<path fill-rule="evenodd" clip-rule="evenodd" d="M0 160C0 71.6344 71.6344 0 160 0V90C121.34 90 90 121.34 90 160C90 198.66 121.34 230 160 230V320C71.6344 320 0 248.366 0 160Z" fill="#D9BEA3"/>
<path d="M160 0H161V-1H160V0ZM160 90V91H161V90H160ZM160 230H161V229H160V230ZM160 320V321H161V320H160ZM160 -1C71.0821 -1 -1 71.0821 -1 160H1C1 72.1867 72.1867 1 160 1V-1ZM161 90V0H159V90H161ZM160 89C120.788 89 89 120.788 89 160H91C91 121.892 121.892 91 160 91V89ZM89 160C89 199.212 120.788 231 160 231V229C121.892 229 91 198.108 91 160H89ZM161 320V230H159V320H161ZM-1 160C-1 248.918 71.0821 321 160 321V319C72.1867 319 1 247.813 1 160H-1Z" fill="#2E3D4D" mask="url(#path-1-inside-1_404_1991)"/>
<mask id="path-3-outside-2_404_1991" maskUnits="userSpaceOnUse" x="89" y="89" width="71" height="142" fill="black">
<rect fill="white" x="89" y="89" width="71" height="142"/>
<path fill-rule="evenodd" clip-rule="evenodd" d="M90 160C90 121.34 120.892 90 159 90V94.0074C123.01 94.542 94 123.883 94 160C94 196.117 123.01 225.458 159 225.993V230C120.892 230 90 198.66 90 160Z"/>
</mask>
<path fill-rule="evenodd" clip-rule="evenodd" d="M90 160C90 121.34 120.892 90 159 90V94.0074C123.01 94.542 94 123.883 94 160C94 196.117 123.01 225.458 159 225.993V230C120.892 230 90 198.66 90 160Z" fill="#805A53"/>
<path d="M159 90H160V89H159V90ZM159 94.0074L159.015 95.0073L160 94.9927V94.0074H159ZM159 225.993H160V225.007L159.015 224.993L159 225.993ZM159 230V231H160V230H159ZM159 89C120.327 89 89 120.801 89 160H91C91 121.879 121.458 91 159 91V89ZM160 94.0074V90H158V94.0074H160ZM158.985 93.0075C122.45 93.5502 93 123.336 93 160H95C95 124.43 123.571 95.5338 159.015 95.0073L158.985 93.0075ZM93 160C93 196.664 122.45 226.45 158.985 226.992L159.015 224.993C123.571 224.466 95 195.57 95 160H93ZM160 230V225.993H158V230H160ZM89 160C89 199.199 120.327 231 159 231V229C121.458 229 91 198.121 91 160H89Z" fill="#2E3D4D" mask="url(#path-3-outside-2_404_1991)"/>
<g clip-path="url(#clip1_404_1991)">
<mask id="mask0_404_1991" style="mask-type:alpha" maskUnits="userSpaceOnUse" x="1" y="1" width="159" height="318">
<mask id="path-5-inside-3_404_1991" fill="white">
<path fill-rule="evenodd" clip-rule="evenodd" d="M1 160C1 72.1867 72.1867 1 160 1V89C120.788 89 89 120.788 89 160C89 199.212 120.788 231 160 231V319C72.1867 319 1 247.813 1 160Z"/>
</mask>
<path fill-rule="evenodd" clip-rule="evenodd" d="M1 160C1 72.1867 72.1867 1 160 1V89C120.788 89 89 120.788 89 160C89 199.212 120.788 231 160 231V319C72.1867 319 1 247.813 1 160Z" fill="#FAFCFC"/>
<path d="M160 1H161V0H160V1ZM160 89V90H161V89H160ZM160 231H161V230H160V231ZM160 319V320H161V319H160ZM160 0C71.6344 0 0 71.6344 0 160H2C2 72.7389 72.739 2 160 2V0ZM161 89V1H159V89H161ZM160 88C120.235 88 88 120.235 88 160H90C90 121.34 121.34 90 160 90V88ZM88 160C88 199.765 120.235 232 160 232V230C121.34 230 90 198.66 90 160H88ZM161 319V231H159V319H161ZM0 160C0 248.366 71.6344 320 160 320V318C72.739 318 2 247.261 2 160H0Z" fill="#293333" mask="url(#path-5-inside-3_404_1991)"/>
</mask>
<g mask="url(#mask0_404_1991)">
<path d="M160 0L160.018 159.841L195.603 4.01154L160.053 159.849L229.421 15.845L160.085 159.865L259.758 34.907L160.113 159.887L285.093 60.2416L160.135 159.915L304.155 90.5786L160.151 159.947L315.988 124.397L160.159 159.982L320 160L160.159 160.018L315.988 195.603L160.151 160.053L304.155 229.421L160.135 160.085L285.093 259.758L160.113 160.113L259.758 285.093L160.085 160.135L229.421 304.155L160.053 160.151L195.603 315.988L160.018 160.159L160 320L159.982 160.159L124.397 315.988L159.947 160.151L90.5786 304.155L159.915 160.135L60.2416 285.093L159.887 160.113L34.907 259.758L159.865 160.085L15.845 229.421L159.849 160.053L4.01154 195.603L159.841 160.018L0 160L159.841 159.982L4.01154 124.397L159.849 159.947L15.845 90.5786L159.865 159.915L34.907 60.2416L159.887 159.887L60.2416 34.907L159.915 159.865L90.5786 15.845L159.947 159.849L124.397 4.01154L159.982 159.841L160 0Z" stroke="#2E3D4D"/>
</g>
</g>
<path d="M160 45L154.946 42.2096L155.056 47.9821L160 45ZM45.5 160C45.5 98.261 94.3641 47.9347 155.528 45.5857L155.489 44.5865C93.7909 46.956 44.5 97.7216 44.5 160H45.5ZM160 274.5C96.7634 274.5 45.5 223.237 45.5 160H44.5C44.5 223.789 96.2111 275.5 160 275.5V274.5Z" fill="#CC5C52"/>
<path fill-rule="evenodd" clip-rule="evenodd" d="M160 225V205C129.624 205 105 180.376 105 150C105 119.624 129.624 95 160 95C124.101 95 95 124.101 95 160C95 195.899 124.101 225 160 225Z" fill="black" fill-opacity="0.1"/>
</g>
<defs>
<clipPath id="clip0_404_1991">
<rect width="160" height="320" fill="white"/>
</clipPath>
<clipPath id="clip1_404_1991">
<rect width="159" height="320" fill="white"/>
</clipPath>
</defs>
</svg>
