<svg width="100" height="100" viewBox="0 0 100 100" fill="none" xmlns="http://www.w3.org/2000/svg">
<mask id="path-1-inside-1_3950_2136" fill="white">
<path d="M0 10C0 4.47716 4.47715 0 10 0H90C95.5228 0 100 4.47715 100 10V90C100 95.5228 95.5229 100 90 100H10C4.47716 100 0 95.5229 0 90V10Z"/>
</mask>
<path d="M0 10C0 4.47716 4.47715 0 10 0H90C95.5228 0 100 4.47715 100 10V90C100 95.5228 95.5229 100 90 100H10C4.47716 100 0 95.5229 0 90V10Z" fill="#D9BEA3"/>
<path d="M10 1H90V-1H10V1ZM99 10V90H101V10H99ZM90 99H10V101H90V99ZM1 90V10H-1V90H1ZM10 99C5.02944 99 1 94.9706 1 90H-1C-1 96.0751 3.92487 101 10 101V99ZM99 90C99 94.9706 94.9706 99 90 99V101C96.0751 101 101 96.0751 101 90H99ZM90 1C94.9706 1 99 5.02944 99 10H101C101 3.92487 96.0751 -1 90 -1V1ZM10 -1C3.92487 -1 -1 3.92487 -1 10H1C1 5.02944 5.02944 1 10 1V-1Z" fill="#2E3D4D" mask="url(#path-1-inside-1_3950_2136)"/>
<path d="M43.9967 53.485L49.3025 73.2865C49.5169 74.0867 49.042 74.9092 48.2418 75.1236L19.2641 82.8882C18.4639 83.1026 17.6414 82.6277 17.427 81.8275L12.1212 62.026L43.9967 53.485Z" fill="#FAF7F0" stroke="#2E3D4D" stroke-linejoin="round"/>
<rect x="24.7915" y="72.6073" width="14" height="7" transform="rotate(-15 24.7915 72.6073)" fill="black" fill-opacity="0.4"/>
<path d="M17.3735 64.2422L21.2372 63.2069L21.7549 65.1388L17.8912 66.174L17.3735 64.2422Z" fill="black" fill-opacity="0.4"/>
<path d="M27.9987 61.3952L29.9306 60.8775L30.4482 62.8094L28.5164 63.327L27.9987 61.3952Z" fill="black" fill-opacity="0.4"/>
<path d="M33.7943 59.8423L35.7261 59.3246L36.2438 61.2565L34.3119 61.7741L33.7943 59.8423Z" fill="black" fill-opacity="0.4"/>
<path d="M22.2032 62.9481L24.135 62.4305L24.6527 64.3623L22.7208 64.8799L22.2032 62.9481Z" fill="black" fill-opacity="0.4"/>
<path d="M30.8965 60.6187L32.8283 60.1011L33.346 62.0329L31.4141 62.5506L30.8965 60.6187Z" fill="black" fill-opacity="0.4"/>
<path d="M36.6921 59.0658L40.5558 58.0305L41.0734 59.9624L37.2097 60.9977L36.6921 59.0658Z" fill="black" fill-opacity="0.4"/>
<path d="M22.0137 66.1047L18.15 67.14L18.6676 69.0718L22.5313 68.0365L22.0137 66.1047Z" fill="black" fill-opacity="0.4"/>
<path d="M30.707 63.7753L28.7752 64.293L29.2928 66.2248L31.2247 65.7072L30.707 63.7753Z" fill="black" fill-opacity="0.4"/>
<path d="M36.5026 62.2224L34.5707 62.74L35.0884 64.6719L37.0202 64.1543L36.5026 62.2224Z" fill="black" fill-opacity="0.4"/>
<path d="M24.9115 65.3282L22.9796 65.8459L23.4973 67.7777L25.4291 67.2601L24.9115 65.3282Z" fill="black" fill-opacity="0.4"/>
<path d="M33.6048 62.9989L31.673 63.5165L32.1906 65.4483L34.1224 64.9307L33.6048 62.9989Z" fill="black" fill-opacity="0.4"/>
<path d="M41.3322 60.9283L37.4685 61.9636L37.9861 63.8954L41.8498 62.8602L41.3322 60.9283Z" fill="black" fill-opacity="0.4"/>
<path d="M18.9264 70.0377L21.8242 69.2613L22.3419 71.1931L19.4441 71.9696L18.9264 70.0377Z" fill="black" fill-opacity="0.4"/>
<path d="M22.7902 69.0025L38.245 64.8614L38.7626 66.7932L23.3078 70.9343L22.7902 69.0025Z" fill="black" fill-opacity="0.4"/>
<path d="M39.2109 64.6025L42.1087 63.8261L42.6263 65.7579L39.7285 66.5344L39.2109 64.6025Z" fill="black" fill-opacity="0.4"/>
<path d="M25.1009 62.1716L27.0328 61.654L27.5504 63.5858L25.6186 64.1035L25.1009 62.1716Z" fill="black" fill-opacity="0.4"/>
<path d="M27.8093 64.5518L25.8774 65.0694L26.395 67.0013L28.3269 66.4836L27.8093 64.5518Z" fill="black" fill-opacity="0.4"/>
<path d="M9.12564 55.5818L43.3688 46.4064C44.062 46.2209 44.7192 46.8043 44.6172 47.5146L43.9021 52.4751L11.6982 61.1041L8.59869 57.1657C8.15518 56.6016 8.4326 55.7678 9.12564 55.5818Z" fill="#2E3D4D" stroke="#2E3D4D" stroke-linejoin="round"/>
<circle cx="74.5" cy="59.5" r="7" fill="#B28F7D" stroke="#2E3D4D"/>
<circle cx="74.5" cy="59.5" r="3.5" fill="#2E3D4D"/>
<path fill-rule="evenodd" clip-rule="evenodd" d="M74.7227 60.084C74.9525 59.9309 75.2629 59.9929 75.4161 60.2227L77.4161 63.2227C77.5693 63.4525 77.5072 63.7629 77.2774 63.9161C77.0476 64.0693 76.7372 64.0072 76.584 63.7774L74.584 60.7774C74.4309 60.5476 74.4929 60.2372 74.7227 60.084Z" fill="#2E3D4D"/>
<circle cx="62.5" cy="35.5" r="7" transform="rotate(-90 62.5 35.5)" fill="#B28F7D" stroke="#2E3D4D"/>
<circle cx="62.5" cy="35.5" r="3.5" transform="rotate(-90 62.5 35.5)" fill="#2E3D4D"/>
<path fill-rule="evenodd" clip-rule="evenodd" d="M63.084 35.2773C62.9309 35.0475 62.9929 34.7371 63.2227 34.5839L66.2227 32.5839C66.4525 32.4307 66.7629 32.4928 66.9161 32.7226C67.0693 32.9524 67.0072 33.2628 66.7774 33.416L63.7774 35.416C63.5476 35.5691 63.2372 35.5071 63.084 35.2773Z" fill="#2E3D4D"/>
</svg>
