<svg width="180" height="65" viewBox="0 0 180 65" fill="none" xmlns="http://www.w3.org/2000/svg">
<mask id="path-1-inside-1_404_2450" fill="white">
<path d="M0 0H180V62H0V0Z"/>
</mask>
<path d="M0 0H180V62H0V0Z" fill="#2E3D4D"/>
<path d="M0 0V-1H-1V0H0ZM180 0H181V-1H180V0ZM180 62V63H181V62H180ZM0 62H-1V63H0V62ZM0 1H180V-1H0V1ZM179 0V62H181V0H179ZM180 61H0V63H180V61ZM1 62V0H-1V62H1Z" fill="#2E3D4D" mask="url(#path-1-inside-1_404_2450)"/>
<path fill-rule="evenodd" clip-rule="evenodd" d="M180 65H120V62H180V65Z" fill="#B28F7D"/>
<path fill-rule="evenodd" clip-rule="evenodd" d="M120 62H60V59H120V62Z" fill="#B28F7D"/>
<path fill-rule="evenodd" clip-rule="evenodd" d="M60 65H0V62H60V65Z" fill="#B28F7D"/>
<path d="M0 30H180" stroke="black" stroke-opacity="0.2"/>
<path d="M174 6V54" stroke="#3D9999" stroke-width="3" stroke-linecap="round" stroke-linejoin="round"/>
<path d="M163.162 6.01465L164.838 53.9854" stroke="#FFBB99" stroke-width="3" stroke-linecap="round" stroke-linejoin="round"/>
<path d="M156.57 6.05847L153.431 53.9415" stroke="#7ACC7A" stroke-width="3" stroke-linecap="round" stroke-linejoin="round"/>
<path d="M144.785 6.01465L143.215 53.9854" stroke="#E5A0C3" stroke-width="3" stroke-linecap="round" stroke-linejoin="round"/>
<path d="M40.0665 6.03406L41.9336 53.9659" stroke="#CCEEFF" stroke-width="3" stroke-linecap="round" stroke-linejoin="round"/>
<path d="M33.3927 6.00366L32.6073 53.9964" stroke="#FFDD99" stroke-width="3" stroke-linecap="round" stroke-linejoin="round"/>
<path d="M24.2561 6.0329L21.744 53.9671" stroke="#3D9999" stroke-width="3" stroke-linecap="round" stroke-linejoin="round"/>
<path d="M12.7192 6.03467L15.2808 53.9654" stroke="#7ACC7A" stroke-width="3" stroke-linecap="round" stroke-linejoin="round"/>
<path d="M6 6V54" stroke="#E5A0C3" stroke-width="3" stroke-linecap="round" stroke-linejoin="round"/>
</svg>
