<svg width="110" height="30" viewBox="0 0 110 30" fill="none" xmlns="http://www.w3.org/2000/svg">
<mask id="path-1-inside-1_117_158" fill="white">
<path d="M5 0H105V30H5V0Z"/>
</mask>
<path d="M5 0H105V30H5V0Z" fill="white"/>
<path d="M5 30.5H6V29.5H5V30.5ZM8 30.5H10V29.5H8V30.5ZM12 30.5H14V29.5H12V30.5ZM16 30.5H18V29.5H16V30.5ZM20 30.5H22V29.5H20V30.5ZM24 30.5H26V29.5H24V30.5ZM28 30.5H30V29.5H28V30.5ZM32 30.5H34V29.5H32V30.5ZM36 30.5H38V29.5H36V30.5ZM40 30.5H42V29.5H40V30.5ZM44 30.5H46V29.5H44V30.5ZM48 30.5H50V29.5H48V30.5ZM52 30.5H54V29.5H52V30.5ZM56 30.5H58V29.5H56V30.5ZM60 30.5H62V29.5H60V30.5ZM64 30.5H66V29.5H64V30.5ZM68 30.5H70V29.5H68V30.5ZM72 30.5H74V29.5H72V30.5ZM76 30.5H78V29.5H76V30.5ZM80 30.5H82V29.5H80V30.5ZM84 30.5H86V29.5H84V30.5ZM88 30.5H90V29.5H88V30.5ZM92 30.5H94V29.5H92V30.5ZM96 30.5H98V29.5H96V30.5ZM100 30.5H102V29.5H100V30.5ZM104 30.5H105V29.5H104V30.5ZM105 -0.5H104V0.5H105V-0.5ZM102 -0.5H100V0.5H102V-0.5ZM98 -0.5H96V0.5H98V-0.5ZM94 -0.5H92V0.5H94V-0.5ZM90 -0.5H88V0.5H90V-0.5ZM86 -0.5H84V0.5H86V-0.5ZM82 -0.5H80V0.5H82V-0.5ZM78 -0.5H76V0.5H78V-0.5ZM74 -0.5H72V0.5H74V-0.5ZM70 -0.5H68V0.5H70V-0.5ZM66 -0.5H64V0.5H66V-0.5ZM62 -0.5H60V0.5H62V-0.5ZM58 -0.5H56V0.5H58V-0.5ZM54 -0.5H52V0.5H54V-0.5ZM50 -0.5H48V0.5H50V-0.5ZM46 -0.5H44V0.5H46V-0.5ZM42 -0.5H40V0.5H42V-0.5ZM38 -0.5H36V0.5H38V-0.5ZM34 -0.5H32V0.5H34V-0.5ZM30 -0.5H28V0.5H30V-0.5ZM26 -0.5H24V0.5H26V-0.5ZM22 -0.5H20V0.5H22V-0.5ZM18 -0.5H16V0.5H18V-0.5ZM14 -0.5H12V0.5H14V-0.5ZM10 -0.5H8V0.5H10V-0.5ZM6 -0.5H5V0.5H6V-0.5ZM5 31H6V29H5V31ZM8 31H10V29H8V31ZM12 31H14V29H12V31ZM16 31H18V29H16V31ZM20 31H22V29H20V31ZM24 31H26V29H24V31ZM28 31H30V29H28V31ZM32 31H34V29H32V31ZM36 31H38V29H36V31ZM40 31H42V29H40V31ZM44 31H46V29H44V31ZM48 31H50V29H48V31ZM52 31H54V29H52V31ZM56 31H58V29H56V31ZM60 31H62V29H60V31ZM64 31H66V29H64V31ZM68 31H70V29H68V31ZM72 31H74V29H72V31ZM76 31H78V29H76V31ZM80 31H82V29H80V31ZM84 31H86V29H84V31ZM88 31H90V29H88V31ZM92 31H94V29H92V31ZM96 31H98V29H96V31ZM100 31H102V29H100V31ZM104 31H105V29H104V31ZM105 -1H104V1H105V-1ZM102 -1H100V1H102V-1ZM98 -1H96V1H98V-1ZM94 -1H92V1H94V-1ZM90 -1H88V1H90V-1ZM86 -1H84V1H86V-1ZM82 -1H80V1H82V-1ZM78 -1H76V1H78V-1ZM74 -1H72V1H74V-1ZM70 -1H68V1H70V-1ZM66 -1H64V1H66V-1ZM62 -1H60V1H62V-1ZM58 -1H56V1H58V-1ZM54 -1H52V1H54V-1ZM50 -1H48V1H50V-1ZM46 -1H44V1H46V-1ZM42 -1H40V1H42V-1ZM38 -1H36V1H38V-1ZM34 -1H32V1H34V-1ZM30 -1H28V1H30V-1ZM26 -1H24V1H26V-1ZM22 -1H20V1H22V-1ZM18 -1H16V1H18V-1ZM14 -1H12V1H14V-1ZM10 -1H8V1H10V-1ZM6 -1H5V1H6V-1Z" fill="#2E3D4D" mask="url(#path-1-inside-1_117_158)"/>
<rect x="105" width="5" height="30" fill="#2E3D4D"/>
<rect width="5" height="30" fill="#2E3D4D"/>
<rect x="100" y="15" width="5" height="5" fill="#2E3D4D"/>
<mask id="path-6-inside-2_117_158" fill="white">
<path d="M10 15H100V20H10V15Z"/>
</mask>
<path d="M10 15H100V20H10V15Z" fill="#CCEEFF"/>
<path d="M10 16H100V14H10V16ZM100 19H10V21H100V19Z" fill="#2E3D4D" mask="url(#path-6-inside-2_117_158)"/>
<rect x="5" y="15" width="5" height="5" fill="#2E3D4D"/>
</svg>
