<svg width="185" height="30" viewBox="0 0 185 30" fill="none" xmlns="http://www.w3.org/2000/svg">
<mask id="path-1-inside-1_117_131" fill="white">
<path d="M5 0H180V30H5V0Z"/>
</mask>
<path d="M5 0H180V30H5V0Z" fill="white"/>
<path d="M5 30.5H5.99432V29.5H5V30.5ZM7.98295 30.5H9.97159V29.5H7.98295V30.5ZM11.9602 30.5H13.9489V29.5H11.9602V30.5ZM15.9375 30.5H17.9261V29.5H15.9375V30.5ZM19.9148 30.5H21.9034V29.5H19.9148V30.5ZM23.892 30.5H25.8807V29.5H23.892V30.5ZM27.8693 30.5H29.858V29.5H27.8693V30.5ZM31.8466 30.5H33.8352V29.5H31.8466V30.5ZM35.8239 30.5H37.8125V29.5H35.8239V30.5ZM39.8011 30.5H41.7898V29.5H39.8011V30.5ZM43.7784 30.5H45.767V29.5H43.7784V30.5ZM47.7557 30.5H49.7443V29.5H47.7557V30.5ZM51.7329 30.5H53.7216V29.5H51.7329V30.5ZM55.7102 30.5H57.6989V29.5H55.7102V30.5ZM59.6875 30.5H61.6761V29.5H59.6875V30.5ZM63.6648 30.5H65.6534V29.5H63.6648V30.5ZM67.642 30.5H69.6307V29.5H67.642V30.5ZM71.6193 30.5H73.608V29.5H71.6193V30.5ZM75.5966 30.5H77.5852V29.5H75.5966V30.5ZM79.5739 30.5H81.5625V29.5H79.5739V30.5ZM83.5512 30.5H85.5398V29.5H83.5512V30.5ZM87.5284 30.5H89.5171V29.5H87.5284V30.5ZM91.5057 30.5H93.4944V29.5H91.5057V30.5ZM95.483 30.5H97.4716V29.5H95.483V30.5ZM99.4603 30.5H101.449V29.5H99.4603V30.5ZM103.438 30.5H105.426V29.5H103.438V30.5ZM107.415 30.5H109.403V29.5H107.415V30.5ZM111.392 30.5H113.381V29.5H111.392V30.5ZM115.369 30.5H117.358V29.5H115.369V30.5ZM119.347 30.5H121.335V29.5H119.347V30.5ZM123.324 30.5H125.313V29.5H123.324V30.5ZM127.301 30.5H129.29V29.5H127.301V30.5ZM131.279 30.5H133.267V29.5H131.279V30.5ZM135.256 30.5H137.244V29.5H135.256V30.5ZM139.233 30.5H141.222V29.5H139.233V30.5ZM143.21 30.5H145.199V29.5H143.21V30.5ZM147.188 30.5H149.176V29.5H147.188V30.5ZM151.165 30.5H153.153V29.5H151.165V30.5ZM155.142 30.5H157.131V29.5H155.142V30.5ZM159.119 30.5H161.108V29.5H159.119V30.5ZM163.097 30.5H165.085V29.5H163.097V30.5ZM167.074 30.5H169.063V29.5H167.074V30.5ZM171.051 30.5H173.04V29.5H171.051V30.5ZM175.028 30.5H177.017V29.5H175.028V30.5ZM179.006 30.5H180V29.5H179.006V30.5ZM180 -0.5H179.006V0.5H180V-0.5ZM177.017 -0.5H175.028V0.5H177.017V-0.5ZM173.04 -0.5H171.051V0.5H173.04V-0.5ZM169.062 -0.5H167.074V0.5H169.062V-0.5ZM165.085 -0.5H163.097V0.5H165.085V-0.5ZM161.108 -0.5H159.119V0.5H161.108V-0.5ZM157.131 -0.5H155.142V0.5H157.131V-0.5ZM153.153 -0.5H151.165V0.5H153.153V-0.5ZM149.176 -0.5H147.188V0.5H149.176V-0.5ZM145.199 -0.5H143.21V0.5H145.199V-0.5ZM141.222 -0.5H139.233V0.5H141.222V-0.5ZM137.244 -0.5H135.256V0.5H137.244V-0.5ZM133.267 -0.5H131.278V0.5H133.267V-0.5ZM129.29 -0.5H127.301V0.5H129.29V-0.5ZM125.313 -0.5H123.324V0.5H125.313V-0.5ZM121.335 -0.5H119.347V0.5H121.335V-0.5ZM117.358 -0.5H115.369V0.5H117.358V-0.5ZM113.381 -0.5H111.392V0.5H113.381V-0.5ZM109.403 -0.5H107.415V0.5H109.403V-0.5ZM105.426 -0.5H103.437V0.5H105.426V-0.5ZM101.449 -0.5H99.4602V0.5H101.449V-0.5ZM97.4716 -0.5H95.4829V0.5H97.4716V-0.5ZM93.4943 -0.5H91.5056V0.5H93.4943V-0.5ZM89.517 -0.5H87.5284V0.5H89.517V-0.5ZM85.5397 -0.5H83.5511V0.5H85.5397V-0.5ZM81.5624 -0.5H79.5738V0.5H81.5624V-0.5ZM77.5852 -0.5H75.5965V0.5H77.5852V-0.5ZM73.6079 -0.5H71.6192V0.5H73.6079V-0.5ZM69.6306 -0.5H67.642V0.5H69.6306V-0.5ZM65.6533 -0.5H63.6647V0.5H65.6533V-0.5ZM61.6761 -0.5H59.6874V0.5H61.6761V-0.5ZM57.6988 -0.5H55.7101V0.5H57.6988V-0.5ZM53.7215 -0.5H51.7328V0.5H53.7215V-0.5ZM49.7442 -0.5H47.7556V0.5H49.7442V-0.5ZM45.767 -0.5H43.7783V0.5H45.767V-0.5ZM41.7897 -0.5H39.8011V0.5H41.7897V-0.5ZM37.8124 -0.5H35.8238V0.5H37.8124V-0.5ZM33.8352 -0.5H31.8465V0.5H33.8352V-0.5ZM29.8579 -0.5H27.8693V0.5H29.8579V-0.5ZM25.8806 -0.5H23.892V0.5H25.8806V-0.5ZM21.9034 -0.5H19.9147V0.5H21.9034V-0.5ZM17.9261 -0.5H15.9375V0.5H17.9261V-0.5ZM13.9488 -0.5H11.9602V0.5H13.9488V-0.5ZM9.97158 -0.5H7.98294V0.5H9.97158V-0.5ZM5.99431 -0.5H5V0.5H5.99431V-0.5ZM5 31H5.99432V29H5V31ZM7.98295 31H9.97159V29H7.98295V31ZM11.9602 31H13.9489V29H11.9602V31ZM15.9375 31H17.9261V29H15.9375V31ZM19.9148 31H21.9034V29H19.9148V31ZM23.892 31H25.8807V29H23.892V31ZM27.8693 31H29.858V29H27.8693V31ZM31.8466 31H33.8352V29H31.8466V31ZM35.8239 31H37.8125V29H35.8239V31ZM39.8011 31H41.7898V29H39.8011V31ZM43.7784 31H45.767V29H43.7784V31ZM47.7557 31H49.7443V29H47.7557V31ZM51.7329 31H53.7216V29H51.7329V31ZM55.7102 31H57.6989V29H55.7102V31ZM59.6875 31H61.6761V29H59.6875V31ZM63.6648 31H65.6534V29H63.6648V31ZM67.642 31H69.6307V29H67.642V31ZM71.6193 31H73.608V29H71.6193V31ZM75.5966 31H77.5852V29H75.5966V31ZM79.5739 31H81.5625V29H79.5739V31ZM83.5512 31H85.5398V29H83.5512V31ZM87.5284 31H89.5171V29H87.5284V31ZM91.5057 31H93.4944V29H91.5057V31ZM95.483 31H97.4716V29H95.483V31ZM99.4603 31H101.449V29H99.4603V31ZM103.438 31H105.426V29H103.438V31ZM107.415 31H109.403V29H107.415V31ZM111.392 31H113.381V29H111.392V31ZM115.369 31H117.358V29H115.369V31ZM119.347 31H121.335V29H119.347V31ZM123.324 31H125.313V29H123.324V31ZM127.301 31H129.29V29H127.301V31ZM131.279 31H133.267V29H131.279V31ZM135.256 31H137.244V29H135.256V31ZM139.233 31H141.222V29H139.233V31ZM143.21 31H145.199V29H143.21V31ZM147.188 31H149.176V29H147.188V31ZM151.165 31H153.153V29H151.165V31ZM155.142 31H157.131V29H155.142V31ZM159.119 31H161.108V29H159.119V31ZM163.097 31H165.085V29H163.097V31ZM167.074 31H169.063V29H167.074V31ZM171.051 31H173.04V29H171.051V31ZM175.028 31H177.017V29H175.028V31ZM179.006 31H180V29H179.006V31ZM180 -1H179.006V1H180V-1ZM177.017 -1H175.028V1H177.017V-1ZM173.04 -1H171.051V1H173.04V-1ZM169.062 -1H167.074V1H169.062V-1ZM165.085 -1H163.097V1H165.085V-1ZM161.108 -1H159.119V1H161.108V-1ZM157.131 -1H155.142V1H157.131V-1ZM153.153 -1H151.165V1H153.153V-1ZM149.176 -1H147.188V1H149.176V-1ZM145.199 -1H143.21V1H145.199V-1ZM141.222 -1H139.233V1H141.222V-1ZM137.244 -1H135.256V1H137.244V-1ZM133.267 -1H131.278V1H133.267V-1ZM129.29 -1H127.301V1H129.29V-1ZM125.313 -1H123.324V1H125.313V-1ZM121.335 -1H119.347V1H121.335V-1ZM117.358 -1H115.369V1H117.358V-1ZM113.381 -1H111.392V1H113.381V-1ZM109.403 -1H107.415V1H109.403V-1ZM105.426 -1H103.437V1H105.426V-1ZM101.449 -1H99.4602V1H101.449V-1ZM97.4716 -1H95.4829V1H97.4716V-1ZM93.4943 -1H91.5056V1H93.4943V-1ZM89.517 -1H87.5284V1H89.517V-1ZM85.5397 -1H83.5511V1H85.5397V-1ZM81.5624 -1H79.5738V1H81.5624V-1ZM77.5852 -1H75.5965V1H77.5852V-1ZM73.6079 -1H71.6192V1H73.6079V-1ZM69.6306 -1H67.642V1H69.6306V-1ZM65.6533 -1H63.6647V1H65.6533V-1ZM61.6761 -1H59.6874V1H61.6761V-1ZM57.6988 -1H55.7101V1H57.6988V-1ZM53.7215 -1H51.7328V1H53.7215V-1ZM49.7442 -1H47.7556V1H49.7442V-1ZM45.767 -1H43.7783V1H45.767V-1ZM41.7897 -1H39.8011V1H41.7897V-1ZM37.8124 -1H35.8238V1H37.8124V-1ZM33.8352 -1H31.8465V1H33.8352V-1ZM29.8579 -1H27.8693V1H29.8579V-1ZM25.8806 -1H23.892V1H25.8806V-1ZM21.9034 -1H19.9147V1H21.9034V-1ZM17.9261 -1H15.9375V1H17.9261V-1ZM13.9488 -1H11.9602V1H13.9488V-1ZM9.97158 -1H7.98294V1H9.97158V-1ZM5.99431 -1H5V1H5.99431V-1Z" fill="#2E3D4D" mask="url(#path-1-inside-1_117_131)"/>
<rect x="180" width="5" height="30" fill="#2E3D4D"/>
<rect width="5" height="30" fill="#2E3D4D"/>
<rect x="175" y="15" width="5" height="5" fill="#2E3D4D"/>
<mask id="path-6-inside-2_117_131" fill="white">
<path d="M95 15H175V20H95V15Z"/>
</mask>
<path d="M95 15H175V20H95V15Z" fill="#CCEEFF"/>
<path d="M95 16H175V14H95V16ZM175 19H95V21H175V19Z" fill="#2E3D4D" mask="url(#path-6-inside-2_117_131)"/>
<rect x="90" y="15" width="5" height="5" fill="#2E3D4D"/>
<mask id="path-9-inside-3_117_131" fill="white">
<path d="M10 15H90V20H10V15Z"/>
</mask>
<path d="M10 15H90V20H10V15Z" fill="#CCEEFF"/>
<path d="M10 16H90V14H10V16ZM90 19H10V21H90V19Z" fill="#2E3D4D" mask="url(#path-9-inside-3_117_131)"/>
<rect x="5" y="15" width="5" height="5" fill="#2E3D4D"/>
</svg>
