<svg width="270" height="30" viewBox="0 0 270 30" fill="none" xmlns="http://www.w3.org/2000/svg">
<mask id="path-1-inside-1_29_184" fill="white">
<path d="M5 0H265V30H5V0Z"/>
</mask>
<path d="M5 0H265V30H5V0Z" fill="white"/>
<path d="M5 30.5H6V29.5H5V30.5ZM8 30.5H10V29.5H8V30.5ZM12 30.5H14V29.5H12V30.5ZM16 30.5H18V29.5H16V30.5ZM20 30.5H22V29.5H20V30.5ZM24 30.5H26V29.5H24V30.5ZM28 30.5H30V29.5H28V30.5ZM32 30.5H34V29.5H32V30.5ZM36 30.5H38V29.5H36V30.5ZM40 30.5H42V29.5H40V30.5ZM44 30.5H46V29.5H44V30.5ZM48 30.5H50V29.5H48V30.5ZM52 30.5H54V29.5H52V30.5ZM56 30.5H58V29.5H56V30.5ZM60 30.5H62V29.5H60V30.5ZM64 30.5H66V29.5H64V30.5ZM68 30.5H70V29.5H68V30.5ZM72 30.5H74V29.5H72V30.5ZM76 30.5H78V29.5H76V30.5ZM80 30.5H82V29.5H80V30.5ZM84 30.5H86V29.5H84V30.5ZM88 30.5H90V29.5H88V30.5ZM92 30.5H94V29.5H92V30.5ZM96 30.5H98V29.5H96V30.5ZM100 30.5H102V29.5H100V30.5ZM104 30.5H106V29.5H104V30.5ZM108 30.5H110V29.5H108V30.5ZM112 30.5H114V29.5H112V30.5ZM116 30.5H118V29.5H116V30.5ZM120 30.5H122V29.5H120V30.5ZM124 30.5H126V29.5H124V30.5ZM128 30.5H130V29.5H128V30.5ZM132 30.5H134V29.5H132V30.5ZM136 30.5H138V29.5H136V30.5ZM140 30.5H142V29.5H140V30.5ZM144 30.5H146V29.5H144V30.5ZM148 30.5H150V29.5H148V30.5ZM152 30.5H154V29.5H152V30.5ZM156 30.5H158V29.5H156V30.5ZM160 30.5H162V29.5H160V30.5ZM164 30.5H166V29.5H164V30.5ZM168 30.5H170V29.5H168V30.5ZM172 30.5H174V29.5H172V30.5ZM176 30.5H178V29.5H176V30.5ZM180 30.5H182V29.5H180V30.5ZM184 30.5H186V29.5H184V30.5ZM188 30.5H190V29.5H188V30.5ZM192 30.5H194V29.5H192V30.5ZM196 30.5H198V29.5H196V30.5ZM200 30.5H202V29.5H200V30.5ZM204 30.5H206V29.5H204V30.5ZM208 30.5H210V29.5H208V30.5ZM212 30.5H214V29.5H212V30.5ZM216 30.5H218V29.5H216V30.5ZM220 30.5H222V29.5H220V30.5ZM224 30.5H226V29.5H224V30.5ZM228 30.5H230V29.5H228V30.5ZM232 30.5H234V29.5H232V30.5ZM236 30.5H238V29.5H236V30.5ZM240 30.5H242V29.5H240V30.5ZM244 30.5H246V29.5H244V30.5ZM248 30.5H250V29.5H248V30.5ZM252 30.5H254V29.5H252V30.5ZM256 30.5H258V29.5H256V30.5ZM260 30.5H262V29.5H260V30.5ZM264 30.5H265V29.5H264V30.5ZM265 -0.5H264V0.5H265V-0.5ZM262 -0.5H260V0.5H262V-0.5ZM258 -0.5H256V0.5H258V-0.5ZM254 -0.5H252V0.5H254V-0.5ZM250 -0.5H248V0.5H250V-0.5ZM246 -0.5H244V0.5H246V-0.5ZM242 -0.5H240V0.5H242V-0.5ZM238 -0.5H236V0.5H238V-0.5ZM234 -0.5H232V0.5H234V-0.5ZM230 -0.5H228V0.5H230V-0.5ZM226 -0.5H224V0.5H226V-0.5ZM222 -0.5H220V0.5H222V-0.5ZM218 -0.5H216V0.5H218V-0.5ZM214 -0.5H212V0.5H214V-0.5ZM210 -0.5H208V0.5H210V-0.5ZM206 -0.5H204V0.5H206V-0.5ZM202 -0.5H200V0.5H202V-0.5ZM198 -0.5H196V0.5H198V-0.5ZM194 -0.5H192V0.5H194V-0.5ZM190 -0.5H188V0.5H190V-0.5ZM186 -0.5H184V0.5H186V-0.5ZM182 -0.5H180V0.5H182V-0.5ZM178 -0.5H176V0.5H178V-0.5ZM174 -0.5H172V0.5H174V-0.5ZM170 -0.5H168V0.5H170V-0.5ZM166 -0.5H164V0.5H166V-0.5ZM162 -0.5H160V0.5H162V-0.5ZM158 -0.5H156V0.5H158V-0.5ZM154 -0.5H152V0.5H154V-0.5ZM150 -0.5H148V0.5H150V-0.5ZM146 -0.5H144V0.5H146V-0.5ZM142 -0.5H140V0.5H142V-0.5ZM138 -0.5H136V0.5H138V-0.5ZM134 -0.5H132V0.5H134V-0.5ZM130 -0.5H128V0.5H130V-0.5ZM126 -0.5H124V0.5H126V-0.5ZM122 -0.5H120V0.5H122V-0.5ZM118 -0.5H116V0.5H118V-0.5ZM114 -0.5H112V0.5H114V-0.5ZM110 -0.5H108V0.5H110V-0.5ZM106 -0.5H104V0.5H106V-0.5ZM102 -0.5H100V0.5H102V-0.5ZM98 -0.5H96V0.5H98V-0.5ZM94 -0.5H92V0.5H94V-0.5ZM90 -0.5H88V0.5H90V-0.5ZM86 -0.5H84V0.5H86V-0.5ZM82 -0.5H80V0.5H82V-0.5ZM78 -0.5H76V0.5H78V-0.5ZM74 -0.5H72V0.5H74V-0.5ZM70 -0.5H68V0.5H70V-0.5ZM66 -0.5H64V0.5H66V-0.5ZM62 -0.5H60V0.5H62V-0.5ZM58 -0.5H56V0.5H58V-0.5ZM54 -0.5H52V0.5H54V-0.5ZM50 -0.5H48V0.5H50V-0.5ZM46 -0.5H44V0.5H46V-0.5ZM42 -0.5H40V0.5H42V-0.5ZM38 -0.5H36V0.5H38V-0.5ZM34 -0.5H32V0.5H34V-0.5ZM30 -0.5H28V0.5H30V-0.5ZM26 -0.5H24V0.5H26V-0.5ZM22 -0.5H20V0.5H22V-0.5ZM18 -0.5H16V0.5H18V-0.5ZM14 -0.5H12V0.5H14V-0.5ZM10 -0.5H8V0.5H10V-0.5ZM6 -0.5H5V0.5H6V-0.5ZM5 31H6V29H5V31ZM8 31H10V29H8V31ZM12 31H14V29H12V31ZM16 31H18V29H16V31ZM20 31H22V29H20V31ZM24 31H26V29H24V31ZM28 31H30V29H28V31ZM32 31H34V29H32V31ZM36 31H38V29H36V31ZM40 31H42V29H40V31ZM44 31H46V29H44V31ZM48 31H50V29H48V31ZM52 31H54V29H52V31ZM56 31H58V29H56V31ZM60 31H62V29H60V31ZM64 31H66V29H64V31ZM68 31H70V29H68V31ZM72 31H74V29H72V31ZM76 31H78V29H76V31ZM80 31H82V29H80V31ZM84 31H86V29H84V31ZM88 31H90V29H88V31ZM92 31H94V29H92V31ZM96 31H98V29H96V31ZM100 31H102V29H100V31ZM104 31H106V29H104V31ZM108 31H110V29H108V31ZM112 31H114V29H112V31ZM116 31H118V29H116V31ZM120 31H122V29H120V31ZM124 31H126V29H124V31ZM128 31H130V29H128V31ZM132 31H134V29H132V31ZM136 31H138V29H136V31ZM140 31H142V29H140V31ZM144 31H146V29H144V31ZM148 31H150V29H148V31ZM152 31H154V29H152V31ZM156 31H158V29H156V31ZM160 31H162V29H160V31ZM164 31H166V29H164V31ZM168 31H170V29H168V31ZM172 31H174V29H172V31ZM176 31H178V29H176V31ZM180 31H182V29H180V31ZM184 31H186V29H184V31ZM188 31H190V29H188V31ZM192 31H194V29H192V31ZM196 31H198V29H196V31ZM200 31H202V29H200V31ZM204 31H206V29H204V31ZM208 31H210V29H208V31ZM212 31H214V29H212V31ZM216 31H218V29H216V31ZM220 31H222V29H220V31ZM224 31H226V29H224V31ZM228 31H230V29H228V31ZM232 31H234V29H232V31ZM236 31H238V29H236V31ZM240 31H242V29H240V31ZM244 31H246V29H244V31ZM248 31H250V29H248V31ZM252 31H254V29H252V31ZM256 31H258V29H256V31ZM260 31H262V29H260V31ZM264 31H265V29H264V31ZM265 -1H264V1H265V-1ZM262 -1H260V1H262V-1ZM258 -1H256V1H258V-1ZM254 -1H252V1H254V-1ZM250 -1H248V1H250V-1ZM246 -1H244V1H246V-1ZM242 -1H240V1H242V-1ZM238 -1H236V1H238V-1ZM234 -1H232V1H234V-1ZM230 -1H228V1H230V-1ZM226 -1H224V1H226V-1ZM222 -1H220V1H222V-1ZM218 -1H216V1H218V-1ZM214 -1H212V1H214V-1ZM210 -1H208V1H210V-1ZM206 -1H204V1H206V-1ZM202 -1H200V1H202V-1ZM198 -1H196V1H198V-1ZM194 -1H192V1H194V-1ZM190 -1H188V1H190V-1ZM186 -1H184V1H186V-1ZM182 -1H180V1H182V-1ZM178 -1H176V1H178V-1ZM174 -1H172V1H174V-1ZM170 -1H168V1H170V-1ZM166 -1H164V1H166V-1ZM162 -1H160V1H162V-1ZM158 -1H156V1H158V-1ZM154 -1H152V1H154V-1ZM150 -1H148V1H150V-1ZM146 -1H144V1H146V-1ZM142 -1H140V1H142V-1ZM138 -1H136V1H138V-1ZM134 -1H132V1H134V-1ZM130 -1H128V1H130V-1ZM126 -1H124V1H126V-1ZM122 -1H120V1H122V-1ZM118 -1H116V1H118V-1ZM114 -1H112V1H114V-1ZM110 -1H108V1H110V-1ZM106 -1H104V1H106V-1ZM102 -1H100V1H102V-1ZM98 -1H96V1H98V-1ZM94 -1H92V1H94V-1ZM90 -1H88V1H90V-1ZM86 -1H84V1H86V-1ZM82 -1H80V1H82V-1ZM78 -1H76V1H78V-1ZM74 -1H72V1H74V-1ZM70 -1H68V1H70V-1ZM66 -1H64V1H66V-1ZM62 -1H60V1H62V-1ZM58 -1H56V1H58V-1ZM54 -1H52V1H54V-1ZM50 -1H48V1H50V-1ZM46 -1H44V1H46V-1ZM42 -1H40V1H42V-1ZM38 -1H36V1H38V-1ZM34 -1H32V1H34V-1ZM30 -1H28V1H30V-1ZM26 -1H24V1H26V-1ZM22 -1H20V1H22V-1ZM18 -1H16V1H18V-1ZM14 -1H12V1H14V-1ZM10 -1H8V1H10V-1ZM6 -1H5V1H6V-1Z" fill="#2E3D4D" mask="url(#path-1-inside-1_29_184)"/>
<rect x="265" width="5" height="30" fill="#2E3D4D"/>
<rect width="5" height="30" fill="#2E3D4D"/>
<rect x="260" y="15" width="5" height="5" fill="#2E3D4D"/>
<mask id="path-6-inside-2_29_184" fill="white">
<path d="M180 15H260V20H180V15Z"/>
</mask>
<path d="M180 15H260V20H180V15Z" fill="#CCEEFF"/>
<path d="M180 15V14H179V15H180ZM260 15H261V14H260V15ZM260 20V21H261V20H260ZM180 20H179V21H180V20ZM180 16H260V14H180V16ZM259 15V20H261V15H259ZM260 19H180V21H260V19ZM181 20V15H179V20H181Z" fill="#2E3D4D" mask="url(#path-6-inside-2_29_184)"/>
<rect x="175" y="15" width="5" height="5" fill="#2E3D4D"/>
<mask id="path-9-inside-3_29_184" fill="white">
<path d="M95 15H175V20H95V15Z"/>
</mask>
<path d="M95 15H175V20H95V15Z" fill="#CCEEFF"/>
<path d="M95 15V14H94V15H95ZM175 15H176V14H175V15ZM175 20V21H176V20H175ZM95 20H94V21H95V20ZM95 16H175V14H95V16ZM174 15V20H176V15H174ZM175 19H95V21H175V19ZM96 20V15H94V20H96Z" fill="#2E3D4D" mask="url(#path-9-inside-3_29_184)"/>
<rect x="90" y="15" width="5" height="5" fill="#2E3D4D"/>
<mask id="path-12-inside-4_29_184" fill="white">
<path d="M10 15H90V20H10V15Z"/>
</mask>
<path d="M10 15H90V20H10V15Z" fill="#CCEEFF"/>
<path d="M10 15V14H9V15H10ZM90 15H91V14H90V15ZM90 20V21H91V20H90ZM10 20H9V21H10V20ZM10 16H90V14H10V16ZM89 15V20H91V15H89ZM90 19H10V21H90V19ZM11 20V15H9V20H11Z" fill="#2E3D4D" mask="url(#path-12-inside-4_29_184)"/>
<rect x="5" y="15" width="5" height="5" fill="#2E3D4D"/>
</svg>
